<?xml version="1.0" encoding="UTF-8"?>
<!-- Created with Inkscape (http://www.inkscape.org/) -->
<svg width="95" height="95" version="1.1" viewBox="0 0 95 95" xml:space="preserve" xmlns="http://www.w3.org/2000/svg"><g><path d="m29.965 66.157c0.11373-0.0607 0.26531-0.078 0.34117-0.18228 0.23981-0.32953 0.48528-0.68106 0.57624-1.0783 0.11935-0.5213 0.094-1.0721 0.0379-1.6039-0.035-0.33234-0.29062-0.6204-0.30768-0.95417-0.0863-1.689-0.1463-3.3888-3.9e-4 -5.0737 0.0705-0.81494 0.12022-1.7401 0.64479-2.3677 0.24501-0.29313 0.73581 0.29831 1.116 0.26098 1.577-0.15478 3.1512-0.41611 4.6809-0.82992 0.67125-0.18161 1.2616-0.58985 1.8622-0.94022 0.14276-0.0833 0.26234-0.21085 0.35057-0.35059 0.30157-0.47766 0.81015-0.92346 0.81037-1.4884 2.9e-4 -0.65753-0.43948-1.2552-0.80897-1.799-0.34213-0.50366-0.78793-0.94919-1.291-1.2922-0.45381-0.30948-0.99388-0.48269-1.5238-0.62725-1.6877-0.46036-3.4226-0.73258-5.1129-1.1831-0.21106-0.0563-0.399-0.18954-0.56578-0.33057-0.061-0.0516-0.0941-0.14306-0.0887-0.22284 0.14948-2.2035 0.4327-4.3973 0.55164-6.6026 0.0144-0.26629-0.0196-0.55447-0.1532-0.78524-0.1682-0.29059-0.3938-0.60761-0.71315-0.71125-1.3058-0.42386-2.6754-0.63434-4.0343-0.82968-0.12775-0.0184-0.20111 0.19983-0.33016 0.20227-0.12329 2e-3 -0.19412-0.19262-0.31739-0.19006-0.12947 3e-3 -0.20153 0.21011-0.33088 0.20367-2.1112-0.10507-4.2077-0.4295-6.3189-0.53457-0.12935-6e-3 -0.2014 0.20095-0.33086 0.20364-0.12327 3e-3 -0.19407-0.18997-0.31736-0.19-0.12328 0-0.19411 0.19327-0.31734 0.18994-0.12389-3e-3 -0.18922-0.17493-0.30899-0.20682-0.20761-0.0552-0.42801-0.0465-0.64285-0.0465-0.53185 0-1.0677-0.0236-1.5949 0.0465-0.12287 0.0164-0.18509 0.20621-0.30902 0.20679-0.12329 6.1e-4 -0.19112-0.16654-0.30866-0.20377-0.10632-0.0337-0.22909-0.0361-0.33459 1.2e-4 -0.11661 0.04-0.1829 0.1767-0.2993 0.21726-0.10918 0.0381-0.23247 0.0253-0.34673 8e-3 -1.0499-0.16064-2.0808-0.46176-3.1399-0.54138-0.23158-0.0174-0.41551 0.25427-0.64773 0.25659-0.2266 2e-3 -0.40819-0.23492-0.63463-0.2438-0.12384-5e-3 -0.18613 0.19067-0.30901 0.20675-0.52661 0.069-1.0661 0.11136-1.5927 0.0424-0.96761-0.12674-1.8974-0.46511-2.86-0.62548-0.21113-0.0352-0.43547-0.0184-0.64076 0.0422-0.19386 0.0572-0.42879 0.12488-0.52576 0.30225-0.27914 0.51053-0.4793 1.08-0.54599 1.658-0.42742 3.7044-0.70057 7.4261-0.93158 11.148-8e-3 0.12974 0.18511 0.19687 0.21966 0.32215 0.0571 0.20715 0.0436 0.4281 0.0465 0.64294 0.0112 0.84574 0.0674 1.6946-4e-3 2.5374-0.0193 0.22632-0.21138 0.40689-0.26558 0.62744-0.0513 0.20865-0.0466 0.42801-0.0466 0.64285 0 0.32044-0.0152 0.64578 0.0466 0.96024 0.0438 0.22284 0.24283 0.40149 0.26558 0.62744 0.0532 0.52878 0.0308 1.0673-0.0421 1.5937-0.0312 0.22494-0.24831 0.40097-0.26558 0.62744-0.0724 0.94842-0.0754 1.9054 0 2.8536 0.0264 0.33227 0.30185 0.61972 0.30272 0.95303 8.7e-4 0.33246-0.26294 0.62128-0.29773 0.95193-0.0172 0.1634 0.0449 0.34229 0.14808 0.47016 0.27344 0.33893 0.56936 0.68722 0.95257 0.89407 0.11351 0.0612 0.20246-0.22037 0.33009-0.20184 2.1203 0.30737 4.1997 0.86337 6.3206 1.166 0.13374 0.0191 0.20857-0.22329 0.34344-0.21521 3.4848 0.20822 6.9524 0.66043 10.438 0.8595 0.23465 0.0134 0.43383-0.24362 0.66813-0.22516 2.4328 0.19162 4.84 0.64331 7.2715 0.85053 0.12874 0.011 0.20134-0.20816 0.33043-0.20267 0.22635 0.01 0.40888 0.22247 0.63442 0.24393m-1.575-2.2642c-0.66351-0.11063-1.3222-0.25528-1.9905-0.33182-1.1832-0.1355-2.3715-0.22516-3.5599-0.30387-3.0132-0.19958-6.0259-0.42565-9.0439-0.53097-0.12948-5e-3 -0.2014 0.20383-0.33096 0.20383-0.12331 0-0.19113-0.1666-0.30868-0.20383-0.10636-0.0337-0.22873-0.0349-0.33469-3e-5 -0.12271 0.0405-0.19305 0.22925-0.32161 0.21637-0.955-0.0958-1.8747-0.43671-2.8297-0.53232-0.13426-0.0134-0.20944 0.23288-0.34316 0.21472-1.6414-0.22299-3.3286-0.35123-4.8826-0.92468-0.25731-0.0949 0.25674-0.49786 0.28969-0.77017 0.0511-0.42264 0.0258-0.85614-0.0421-1.2764-0.0362-0.22418-0.25652-0.40051-0.26558-0.62744-0.0801-2.0073-0.0749-4.0191 0-6.0266 9e-3 -0.22739 0.23866-0.40839 0.24878-0.63572 5e-3 -0.12381-0.17536-0.18911-0.20677-0.30902-0.0543-0.20703-0.0556-0.42706-0.0421-0.64068 0.16602-2.6423 0.46369-5.2763 0.58003-7.9213 6e-3 -0.12924-0.17608-0.19888-0.2174-0.3215-0.037-0.10956-0.0235-0.23224-8e-3 -0.34686 0.19151-1.4173 5e-3 -2.957 0.62843-4.2444 0.19197-0.39676 0.85495 0.23428 1.2942 0.27094 3.0914 0.25799 6.1859 0.50296 9.2861 0.61209 0.23335 8e-3 0.41931-0.22303 0.64946-0.26239 0.2113-0.0361 0.43434-0.0125 0.64173 0.0417 0.11991 0.0313 0.18508 0.20618 0.30903 0.20676 0.12327 6.1e-4 0.18536-0.20376 0.30865-0.20376 0.22493 0 0.41846 0.21087 0.64328 0.20376 0.2262-7e-3 0.40739-0.25311 0.63354-0.24414 2.7923 0.11081 5.577 0.36887 8.3618 0.60107 0.72678 0.0606 1.4975-4e-3 2.1703 0.27713 0.17897 0.0749-0.20884 0.34739-0.21367 0.54133-0.0526 2.1172-0.21557 4.2513 0.0423 6.3534 0.0494 0.4024 0.52902 0.6206 0.84448 0.87527 0.25298 0.20423 0.52817 0.41288 0.84447 0.4881 0.12832 0.0306 0.21092-0.24484 0.33725-0.20694 2.007 0.60218 4.0434 1.1746 5.9296 2.0872 0.43242 0.20926 0.82522 0.70099 0.8255 1.1814 2.3e-4 0.40222-0.49501 0.65036-0.82433 0.88135-0.34695 0.24334-0.74618 0.43835-1.1634 0.51284-0.6306 0.11255-1.2829 0.0905-1.9213 0.0378-0.2268-0.0187-0.40841-0.23868-0.63573-0.24878-0.12381-5e-3 -0.18611 0.1907-0.30902 0.20678-0.52693 0.0689-1.0643 0.0877-1.5937 0.042-0.33107-0.0286-0.62949-0.26981-0.9617-0.26258-0.19802 4e-3 -0.40009 0.13413-0.5159 0.2948-0.27811 0.3858-0.48642 0.82819-0.62216 1.284-0.25672 0.86194-0.44722 1.7483-0.54705 2.6421-0.0143 0.12829 0.21444 0.19235 0.21608 0.32144 3e-3 0.22494-0.20054 0.4184-0.20379 0.64331-2e-3 0.12329 0.19322 0.19415 0.18991 0.31735-3e-3 0.1239-0.17496 0.18924-0.20682 0.30902-0.0553 0.20761-0.0436 0.42804-0.0465 0.64286-0.0112 0.84573-0.0628 1.6943 4e-3 2.5374 0.0181 0.22684 0.23477 0.4086 0.24881 0.63571 8e-3 0.12305-0.18997 0.19406-0.18994 0.31735 0 0.12326 0.18986 0.194 0.18998 0.3173 9e-5 0.12295-0.18235 0.19375-0.18943 0.31649-5e-3 0.0951 0.22906 0.17551 0.15747 0.23828"/><path d="m65.011 36.433c0.50792-0.17005 1.0316-0.29877 1.5238-0.51017 0.093-0.0399 0.18201-0.12982 0.19859-0.22967 0.0529-0.31818 0.0534-0.64948 5.4e-4 -0.96765-0.021-0.12607-0.26348-0.20008-0.21421-0.318 1.9272-4.6129 4.2185-9.0706 6.0756-13.712 0.84375-2.1089 1.2432-4.3733 2.015-6.5096 0.85324-2.3616 1.8453-4.672 2.8555-6.9708 0.48782-1.1101 1.2228-2.109 1.6357-3.2491 0.065-0.17941-0.12833-0.38177-0.27764-0.50058-0.31891-0.25384-0.69047-0.45028-1.0775-0.57803-0.20937-0.0691-0.44634-0.0445-0.66136 4e-3 -0.12626 0.0286-0.1932 0.23624-0.32137 0.21808-0.64441-0.0913-1.235-0.43781-1.8792-0.53-0.12749-0.0182-0.19853 0.17505-0.32089 0.21521-0.10601 0.0348-0.22834 0.0337-0.33469-3e-5 -0.11751-0.0372-0.18538-0.20105-0.30862-0.2038-0.12323-3e-3 -0.19404 0.18997-0.31731 0.18997-0.12329-3e-5 -0.19405-0.19-0.31731-0.19-0.12327 0-0.19407 0.19269-0.31733 0.18994-0.12325-3e-3 -0.19111-0.16659-0.30864-0.20379-0.10633-0.0337-0.22689-0.0288-0.33461 1.2e-4 -0.21791 0.0585-0.40033 0.25812-0.62597 0.2576-0.22613-5.2e-4 -0.40486-0.21527-0.62643-0.26047-0.21263-0.0434-0.43887-0.0457-0.65105-1.2e-4 -0.12115 0.0261-0.18512 0.20608-0.30905 0.20663-0.12329 5.8e-4 -0.19113-0.16653-0.30865-0.20376-0.10636-0.0337-0.22879-0.0351-0.33472 0-0.12303 0.0408-0.19272 0.22293-0.32222 0.21762-2.5315-0.10425-5.05-0.44126-7.5816-0.543-0.22919-9e-3 -0.42534 0.20993-0.6547 0.21185-0.12329 1e-3 -0.18538-0.20376-0.30865-0.20376-0.22493 0-0.41835 0.20376-0.64327 0.20376-0.12329 0-0.18538-0.20379-0.30865-0.20376-0.22495 0-0.41838 0.2037-0.64331 0.20382-0.12941 6e-5 -0.20154-0.21032-0.33075-0.20328-3.9136 0.21253-7.8074 0.85807-11.727 0.85816-2.971 9e-5 -5.9081-0.64682-8.8716-0.8577-0.12895-9e-3 -0.20126 0.20029-0.3305 0.20285-0.12331 2e-3 -0.19414-0.19256-0.31743-0.19006-0.12938 3e-3 -0.20159 0.21179-0.33075 0.20337-1.5842-0.10343-3.1482-0.43469-4.7327-0.53397-0.13505-8e-3 -0.20927 0.23075-0.34378 0.21585-1.5613-0.17285-3.1071-0.47064-4.6494-0.76864-1.0996-0.21247-2.171-0.55899-3.2724-0.762-0.21331-0.0393-0.4497-0.0452-0.64955 0.0391-0.28384 0.11972-0.61645 0.26806-0.74374 0.54861-0.15865 0.34967-0.0748 0.77051-0.0277 1.1516 0.0279 0.22583 0.23741 0.40848 0.24882 0.63574 6e-3 0.12827-0.21144 0.20105-0.20045 0.32898 0.0348 0.40455 0.2552 0.7735 0.32967 1.1726 0.79882 4.281 1.5687 8.5677 2.2893 12.862 0.38583 2.2998 0.62973 4.6222 1.0296 6.9196 0.27784 1.5964 0.61087 3.1844 1.0026 4.7568 0.2641 1.0601 0.75377 2.0606 0.96291 3.1329 0.0436 0.22366-0.19448 0.41949-0.22605 0.64517-0.0448 0.31973-0.10617 0.66373 2.2e-4 0.9685 0.0852 0.24415 0.30406 0.44462 0.53415 0.56257 0.49135 0.25192 1.026 0.44513 1.5734 0.51797 2.2804 0.30347 4.5778 0.48209 6.875 0.60632 0.1351 7e-3 0.20909-0.22921 0.34375-0.21588 0.96208 0.0954 1.8908 0.4206 2.8511 0.53253 0.0914 0.0107 0.19132-0.0859 0.21344-0.17523 0.33099-1.3376 0.6387-2.685 0.83194-4.0494 0.0179-0.12625-0.19238-0.19162-0.2135-0.31732-0.054-0.32181-0.10414-0.66824-4e-3 -0.97885 0.41646-1.2941 0.85438-2.6017 1.5351-3.7785 0.3616-0.62512 0.98991-1.0552 1.535-1.5289 0.28395-0.24677 0.60643-0.45114 0.94107-0.62299 0.33178-0.17038 0.68511-0.30298 1.0459-0.3974 1.5099-0.39511 3.0249-0.77914 4.5584-1.0691 0.42198-0.0798 0.86101-0.0836 1.2879-0.0364 0.22621 0.025 0.40849 0.23718 0.63576 0.24881 0.12784 7e-3 0.20268-0.22467 0.32817-0.19943 0.41627 0.0838 0.81416 0.27127 1.1711 0.50131 0.57675 0.37164 1.1465 0.77811 1.6056 1.288 0.5046 0.56048 0.90058 1.2173 1.2512 1.885 0.24429 0.46515 0.47598 0.96429 0.52014 1.4878 0.14321 1.6975 0.27715 3.424 0.0365 5.1105-0.0609 0.42655-0.66998 0.564-0.89841 0.92932-0.0935 0.14954-0.13191 0.39832-0.0134 0.52894 0.2795 0.30804 0.68427 0.4884 1.0723 0.63818 0.45509 0.17569 0.94502 0.24875 1.4266 0.32648m5.2521-1.3795c-1.6924-0.29703-3.4151-0.45486-5.077-0.89111-0.16521-0.0434-0.14926-0.31498-0.16531-0.48502-0.0397-0.4205-0.0579-0.84869-3e-5 -1.2671 0.0458-0.33099 0.25251-0.62457 0.3074-0.95419 0.0352-0.21146 0.0125-0.43436-0.0417-0.64176-0.0313-0.1199-0.20346-0.18508-0.20682-0.30899-3e-3 -0.12323 0.18998-0.19406 0.18998-0.31732-2e-5 -0.12329-0.19202-0.19406-0.19001-0.31735 2e-3 -0.12845 0.22445-0.20282 0.20053-0.32901-0.20468-1.0809-0.54624-2.132-0.86595-3.1847-0.0548-0.18039-0.15635-0.34412-0.25459-0.50504-0.20036-0.32815-0.3842-0.67257-0.63979-0.95984-0.60643-0.68158-1.2271-1.3603-1.9357-1.9349-0.36301-0.29434-0.81519-0.46137-1.2452-0.64438-0.49141-0.20911-0.98051-0.47995-1.5123-0.52899-1.2698-0.11713-2.5559-0.0829-3.8255 0.0367-0.88342 0.0833-1.7546 0.30103-2.6005 0.56888-1.0236 0.3241-2.0662 0.65179-2.9889 1.2009-0.59198 0.35229-0.9468 1.0045-1.47 1.4526-0.22042 0.18878-0.54347 0.24002-0.74742 0.44647-0.28121 0.2847-0.49001 0.63791-0.67453 0.99298-0.276 0.53107-0.50421 1.0878-0.70072 1.6532-0.5887 1.6938-1.0526 3.4297-1.6531 5.1193-0.0731 0.20544-0.17344 0.43386-0.36059 0.54577-0.15274 0.0913-0.36145 0.0334-0.53376-0.011-0.11974-0.0309-0.18477-0.20301-0.30837-0.20621-0.12323-3e-3 -0.19403 0.18994-0.3173 0.18994-0.1233 0-0.1941-0.19324-0.31733-0.18994-0.12391 3e-3 -0.188 0.18027-0.30911 0.20669-0.2157 0.0471-0.44627 0.0509-0.66228 5e-3 -0.63548-0.13424-1.2301-0.44165-1.872-0.54059-0.12724-0.0196-0.20086 0.20185-0.32959 0.20136-0.1233-4.9e-4 -0.19116-0.1666-0.3087-0.20386-0.10632-0.0337-0.22923-0.0365-0.33459 1.5e-4 -0.11734 0.0407-0.17876 0.19547-0.30045 0.22046-0.27552 0.0566-0.59721 0.15-0.84367 0.0145-0.31564-0.17359-0.52063-0.51987-0.67072-0.84732-0.59285-1.2933-1.2437-2.5888-1.542-3.9798-1.355-6.3184-2.3564-12.708-3.4043-19.085-0.0217-0.13217 0.23387-0.20923 0.21191-0.34134-0.0902-0.54254-0.43779-1.0206-0.52856-1.563-0.022-0.13141 0.23703-0.2095 0.2101-0.33996-0.091-0.44086-0.4596-0.7959-0.5362-1.2395-0.0389-0.22541 0.2087-0.42475 0.20934-0.65348 3.5e-4 -0.12393-0.18095-0.18786-0.20663-0.30908-0.045-0.21249-0.14525-0.49289 3e-3 -0.65164 0.17187-0.18396 0.49049-0.16782 0.74124-0.14508 0.4639 0.0421 0.89638 0.26312 1.3565 0.33539 1.1456 0.17987 2.2994 0.30651 3.4535 0.41983 2.9362 0.28823 5.8709 0.61068 8.8161 0.78466 0.23443 0.0138 0.43387-0.2445 0.66785-0.22445 1.1715 0.10022 2.3112 0.44571 3.4794 0.57925 0.52435 0.06 1.0588 0.0585 1.5833-4e-4 0.22614-0.0254 0.40847-0.23788 0.63575-0.24877 0.12289-6e-3 0.19081 0.16568 0.30786 0.20355 0.11004 0.0356 0.23155 0.0171 0.34686 8e-3 2.2108-0.16941 4.4141-0.45606 6.6297-0.54285 0.23203-9e-3 0.41523 0.2691 0.64719 0.25787 2.0167-0.0977 4.0102-0.57251 6.0292-0.58126 1.1732-5e-3 2.3089 0.44043 3.4778 0.53991 0.12862 0.011 0.19872-0.17535 0.32108-0.21652 0.1096-0.0369 0.23172-0.0189 0.34687-8e-3 1.7882 0.16742 3.5675 0.43991 5.3606 0.54254 0.12934 7e-3 0.19263-0.21548 0.32215-0.21731 0.22491-3e-3 0.41839 0.20056 0.64332 0.20383 0.12328 2e-3 0.1941-0.19266 0.31733-0.18992 0.12326 3e-3 0.18534 0.2038 0.30863 0.2038 0.22493 0 0.41837-0.20056 0.64325-0.2038 0.12328-2e-3 0.19431 0.19748 0.31736 0.18992 0.22711-0.014 0.40956-0.22348 0.63569-0.24881 0.52483-0.0588 1.0595-0.0588 1.5843 0 0.22615 0.0253 0.40851 0.23663 0.63575 0.24881 0.12689 7e-3 0.20516-0.23581 0.32626-0.19724 0.29077 0.0926 0.79022 0.23602 0.7413 0.53726-0.22374 1.3773-0.92506 2.6347-1.4656 3.9211-0.43256 1.0296-1.0577 1.9745-1.4507 3.0199-1.0813 2.8765-1.906 5.8444-2.966 8.7288-0.67074 1.8254-1.4508 3.6092-2.2236 5.3938-0.66028 1.525-1.4225 3.0047-2.0746 4.5331-0.21459 0.50293-0.39855 1.0224-0.523 1.5548-0.0501 0.2146-0.0384 0.44507 5e-3 0.66111 0.019 0.0944 0.24668 0.16659 0.1745 0.23046"/><path d="m60.109 50.916c0.57705 0.6029-0.13556 2.655 0.24377 3.3984 0.20908 0.40973 0.60518 0.703 0.97513 0.97631 0.34276 0.25321 0.7374 0.43656 1.1371 0.58423 0.63922 0.23618 1.3392 0.2937 1.9656 0.56208 0.55274 0.23684 0.98668 0.70398 1.5398 0.93994 0.25443 0.10855 0.6615-0.15198 0.82687 0.0698 0.544 0.72937 0.69867 1.6812 1.0913 2.5021 0.5237 1.0946 0.94739 2.257 1.6565 3.2418 0.40134 0.55737 1.0221 0.92947 1.6067 1.2899 0.44188 0.27243 0.93997 0.45539 1.4415 0.58939 1.3794 0.3685 2.767 0.74481 4.1848 0.91366 1.1539 0.13746 2.3301 0.11716 3.4862 0 0.77135-0.0782 1.5136-0.34509 2.252-0.58148 1.1357-0.36358 2.2563-0.77527 3.3641-1.2166 0.25777-0.10266 0.51659-0.22675 0.72344-0.41171 0.76071-0.68015 1.5058-1.3859 2.1616-2.1678 0.43368-0.51709 0.69616-1.158 1.0884-1.7072 0.13907-0.19474 0.38071-0.30799 0.49921-0.51587 0.58582-1.0276 1.1418-2.0768 1.6005-3.1671 0.2857-0.67898 0.45953-1.402 0.62402-2.12 0.31238-1.3637 0.62109-2.7323 0.80524-4.1192 0.017-0.12784-0.17542-0.1987-0.21564-0.32123-0.0348-0.10596-0.0361-0.22913 1.2e-4 -0.33466 0.0399-0.11661 0.17673-0.18286 0.21726-0.29931 0.0379-0.10914 0.0319-0.23365 7e-3 -0.34653-0.25143-1.1536-0.48822-2.3135-0.83319-3.4427-0.35626-1.1662-0.73886-2.3326-1.2669-3.4317-0.63254-1.3165-1.2893-2.6479-2.202-3.7882-0.39289-0.49084-1.0378-0.72391-1.6128-0.97812-0.89258-0.39453-1.8278-0.69119-2.7666-0.95758-1.146-0.32525-2.2991-0.65628-3.4798-0.81509-0.23066-0.031-0.41856 0.22107-0.64805 0.25986-0.21135 0.0357-0.4352 0.0157-0.64171-0.0418-0.11964-0.0333-0.17619-0.21827-0.3004-0.22043-0.22488-4e-3 -0.41835 0.20297-0.64327 0.20367-0.12847 4.3e-4 -0.20239-0.22177-0.3291-0.20062-0.53961 0.0901-1.0566 0.29718-1.5581 0.51584-1.5839 0.69067-3.1458 1.4327-4.6897 2.2086-0.54549 0.27414-1.0654 0.59893-1.5727 0.93866-0.45462 0.30444-0.94775 0.57968-1.3086 0.99096-0.42815 0.48801-0.73642 1.0754-1.0177 1.6606-0.32545 0.677-0.62611 1.3767-0.79437 2.1088-0.31805 1.3838-0.29083 2.8368-0.65759 4.2086-0.0394 0.14743-1.2049-0.12533-1.3313-0.21083m14.228 16.663c-0.11086-0.0664-0.20349-0.20605-0.33254-0.19934-0.22783 0.0119-0.41005 0.22839-0.63716 0.24991-0.53264 0.0506-1.08 0.0674-1.6047-0.0372-1.4849-0.29599-2.9629-0.65842-4.3922-1.1582-0.86663-0.30304-1.9038-0.50791-2.4604-1.238-0.95516-1.2528-1.3068-2.8729-1.8116-4.3653-0.10455-0.30908-0.05-0.6571 4e-3 -0.97885 0.0212-0.12607 0.24265-0.19342 0.21427-0.31805-0.0709-0.31192-0.17887-0.71515-0.47617-0.83319-1.6771-0.66577-3.4978-0.89466-5.2214-1.4287-0.27144-0.0841-0.51585-0.24756-0.74238-0.41916-0.1715-0.12992-0.36917-0.27057-0.43744-0.47458-0.10157-0.30347-0.067-0.64008-0.0423-0.95911 0.0128-0.16473 0.0717-0.32763 0.15307-0.47137 0.13896-0.24552 0.29008-0.49442 0.50015-0.68271 0.37893-0.33966 0.75746-0.73926 1.2458-0.88223 1.5691-0.45948 3.2531-0.43692 4.8228-0.89469 0.32943-0.0961 0.52757-0.44854 0.73086-0.72497 0.0974-0.13236 0.16585-0.30683 0.1481-0.47016-0.036-0.33136-0.27754-0.62066-0.30269-0.95303-0.0643-0.84985-0.0801-1.7124 0.0372-2.5566 0.0749-0.53903 0.29591-1.0532 0.53236-1.5434 0.26398-0.54718 0.52698-1.123 0.95961-1.5495 0.64581-0.63666 1.4379-1.1121 2.2148-1.5799 1.3358-0.80435 2.7265-1.5149 4.1123-2.2299 0.37424-0.19311 0.74512-0.44476 1.1636-0.49228 1.1616-0.13189 2.3513-0.21432 3.5071-0.0381 1.4084 0.21472 2.7552 0.73547 4.1027 1.1982 0.52478 0.18023 1.0633 0.38077 1.4982 0.7254 0.52166 0.41339 0.95337 0.94406 1.3142 1.5034 0.51013 0.79077 0.90817 1.6518 1.2792 2.5166 0.46124 1.0752 0.88031 2.1719 1.2134 3.2934 0.25568 0.86087 0.4025 1.7516 0.54816 2.6378 0.0358 0.21793 0.0415 0.44681-6e-3 0.66257-0.0265 0.12109-0.2034 0.18518-0.20669 0.30908-3e-3 0.12323 0.18997 0.19406 0.18994 0.31735s-0.19214 0.19407-0.18997 0.31733c2e-3 0.12872 0.22171 0.20248 0.20129 0.32956-0.20899 1.3014-0.47525 2.6-0.87357 3.8565-0.29709 0.93701-0.72244 1.8348-1.2027 2.6925-0.55964 0.99951-1.1897 1.9656-1.906 2.8596-0.5704 0.71188-1.2489 1.3341-1.9356 1.9347-0.20815 0.18204-0.4681 0.30429-0.72904 0.39584m-19.411-14.984c0.24668 0.13489-0.42202 0.40784-0.6939 0.47941-0.12785 0.0337-0.20946-0.23917-0.3379-0.2078-0.72962 0.17819-1.4324 0.46973-2.1047 0.80438-0.21579 0.10743-0.52096 0.31664-0.72027 0.4522-0.33013 0.22449-0.54831 0.36189-0.85413 0.61848-0.36306 0.30463-0.57248 0.76132-0.91775 1.086"/><path d="m76.871 94.447c0.323-0.22915 0.78342-0.33764 0.96899-0.6875 0.1818-0.34274 0.26505-0.86889 0.013-1.1638-0.57923-0.67776-1.5292-0.92196-2.2472-1.4505-0.31261-0.23007-0.51735-0.58712-0.83125-0.8154-0.85417-0.62121-1.7934-1.118-2.6592-1.723-0.19124-0.13367-0.3044-0.36416-0.50282-0.48688-0.36953-0.22845-0.81176-0.3229-1.1799-0.55358-0.48715-0.30527-0.88681-0.73658-1.3718-1.0454-0.96565-0.61487-2.0037-1.1104-2.9723-1.7206-0.44811-0.28238-0.87012-0.60733-1.2713-0.95312-0.40729-0.35108-0.72051-0.80728-1.1485-1.1328-0.68984-0.52454-1.9408-0.57373-2.1879-1.4044-0.17371-0.58374 0.93278-0.78607 1.4326-1.1341 0.53557-0.37293 1.0752-0.75235 1.6682-1.0249 1.5752-0.72396 3.2372-1.2463 4.8186-1.9566 1.4775-0.66364 2.9202-1.404 4.3514-2.1623 0.57347-0.30387 1.1257-0.64948 1.6575-1.0216 0.19612-0.13721 0.3169-0.36651 0.51601-0.49933 0.43945-0.29318 0.93925-0.48669 1.3856-0.76928 0.0906-0.0574 0.19362-0.13642 0.21192-0.2421 0.055-0.31784 0.0825-0.65659-3e-3 -0.96771-0.0312-0.11414-0.22733-0.0886-0.30971-0.17353-0.30072-0.31005-0.4095-0.88525-0.82648-0.99804-1.9299-0.52207-3.9501-0.63718-5.9399-0.83225-0.13478-0.0132-0.20894 0.2266-0.34396 0.21622-1.2691-0.0976-2.512-0.43539-3.7811-0.53339-0.12875-0.01-0.19875 0.17545-0.32112 0.21668-0.10962 0.0369-0.23142 0.0148-0.34688 8e-3 -3.1602-0.17465-6.3158-0.4454-9.479-0.55136-0.22925-8e-3 -0.42532 0.20999-0.65469 0.21194-0.12329 1e-3 -0.19117-0.16656-0.30872-0.20376-0.10594-0.0336-0.22716-0.0321-0.33339 5.2e-4 -0.0871 0.0268-0.19174 0.2561-0.21539 0.16815-0.25508-0.94919-0.42607-1.9241-0.51944-2.9025-0.0127-0.13244 0.26112-0.21655 0.21007-0.33941-0.48732-1.1728-1.1049-2.2908-1.7561-3.3811-0.15839-0.26516-0.38385-0.50744-0.65494-0.65542-0.67441-0.36826-1.3932-0.66941-2.1354-0.86814-0.31252-0.0837-0.65125-0.0192-0.96991 0.0367-0.87807 0.15409-1.7515 0.34494-2.6083 0.59119-0.19884 0.0572-0.39691 0.15961-0.53621 0.31259-0.64289 0.70587-1.3159 1.408-1.7871 2.2384-0.52945 0.93295-0.88079 1.9636-1.1819 2.9932-0.0359 0.12287 0.19414 0.19284 0.21314 0.3194 0.0221 0.14703 0.0482 0.42181-0.0999 0.43469-1.7939 0.15649-3.6023 0.10669-5.4019 0.0452-0.33209-0.0114-0.62938-0.26258-0.96167-0.26258-0.22661 0-0.40057 0.25653-0.6271 0.26258-3.0655 0.0819-6.1341 0.0776-9.1997 0-0.22748-6e-3 -0.40859-0.2348-0.63573-0.24881-0.12303-8e-3 -0.19403 0.18997-0.31731 0.18994-0.12329 0-0.19407-0.19238-0.31737-0.19-0.1291 2e-3 -0.20188 0.21634-0.33029 0.20251-1.0654-0.11487-2.0996-0.44025-3.1622-0.57907-0.41843-0.0547-0.84549-0.0355-1.2659 6.1e-4 -0.14984 0.0129-0.38756-2.4e-4 -0.42727 0.14481-0.13025 0.47549-0.32995 1.0976-0.0175 1.4789 0.84605 1.0324 2.1667 1.5622 3.201 2.4059 0.77226 0.62985 1.5063 1.3075 2.2131 2.0101 0.2106 0.20935 0.29073 0.53995 0.52959 0.71637 0.72897 0.53842 1.6071 0.85376 2.3322 1.3973 0.97209 0.72873 1.7543 1.6931 2.7392 2.4044 0.92825 0.67041 1.9911 1.1319 2.9728 1.7211 0.32747 0.19653 0.65824 0.3931 0.9535 0.63532 0.19624 0.16101 0.41435 0.33041 0.51001 0.56552 0.0377 0.0928-0.0918 0.1969-0.183 0.23822-1.8294 0.82946-3.7165 1.5276-5.545 2.359-0.50145 0.22799-0.92221 0.62014-1.4371 0.81576-1.182 0.44907-2.4413 0.67127-3.6278 1.1084-0.33314 0.12274-0.58748 0.40283-0.90501 0.56165-0.53188 0.26605-1.1148 0.42489-1.6369 0.70968-0.4086 0.22293-0.73369 0.57956-1.1406 0.80554-0.5488 0.30484-1.1749 0.45871-1.7142 0.78009-0.27946 0.16654-0.43421 0.49881-0.71302 0.66645-0.15232 0.0915-0.38611-0.0288-0.52721 0.0793-0.24475 0.18738-0.47906 0.44406-0.54857 0.74439-0.12108 0.52322-0.21771 1.1217 3e-3 1.6111 0.17595 0.38943 0.65448 0.5784 1.0542 0.72952 0.11875 0.0449 0.1964-0.17138 0.31699-0.21112 0.1098-0.0362 0.23207-0.0222 0.34676-8e-3 3.217 0.4115 6.4221 0.91693 9.6443 1.2856 2.0565 0.23526 4.1199 0.42776 6.1875 0.52572 0.12939 6e-3 0.19261-0.21557 0.32213-0.2174 0.22493-3e-3 0.41854 0.21173 0.64335 0.20379 0.2274-8e-3 0.40958-0.22345 0.63571-0.24878 0.52483-0.0588 1.0595-0.0588 1.5843 0 0.22615 0.0253 0.40818 0.24875 0.63575 0.24875 0.22755 0 0.40846-0.23688 0.63571-0.24875 1.3724-0.0718 2.7504-0.0718 4.1228 0 0.22725 0.0119 0.40845 0.23795 0.63574 0.24878 0.12314 6e-3 0.19112-0.16656 0.30863-0.20379 0.10635-0.0337 0.22831-0.0337 0.33467 0 0.11751 0.0373 0.18535 0.20111 0.30861 0.20382 0.12324 3e-3 0.19407-0.19265 0.31732-0.18991 0.12326 3e-3 0.1855 0.20951 0.30865 0.2038 0.33196-0.0154 0.63051-0.23529 0.96169-0.2627 0.73677-0.061 1.4798-0.0427 2.2179-4.5e-4 2.6432 0.15118 5.2763 0.46398 7.9212 0.58038 0.12949 6e-3 0.19919-0.17688 0.32224-0.21759 0.10591-0.0351 0.22914-0.0361 0.33467 1.2e-4 0.11684 0.04 0.17653 0.21561 0.30003 0.21741 0.22489 3e-3 0.41835-0.20438 0.64325-0.20365 0.12393 4e-4 0.18657 0.18757 0.30901 0.20679 0.42054 0.066 0.85348 0.0904 1.2764 0.042 0.23193-0.0265 0.41605-0.27197 0.64928-0.26242 2.0068 0.0821 3.9958 0.43393 6.0017 0.53443 0.13534 7e-3 0.20904-0.22773 0.34408-0.21649 1.1642 0.0968 2.3001 0.43182 3.4639 0.53311 0.12878 0.0112 0.20123-0.20035 0.33049-0.20291 0.12329-2e-3 0.19407 0.19003 0.31738 0.19003 0.12327 0 0.19404-0.18997 0.3173-0.19 0.12328 0 0.19411 0.19323 0.31733 0.18994 0.12388-3e-3 0.18922-0.17496 0.30899-0.20682 0.20764-0.0552 0.42802-0.0439 0.64287-0.0465 0.95149-0.0114 1.9059-0.0682 2.8547 5e-3 0.22577 0.0173 0.40472 0.21701 0.62657 0.26242m-4.1014-2.544c-0.6387 0.0171-1.2799 0.11011-1.9161 0.0513-1.2747-0.11783-2.5217-0.4631-3.7966-0.57947-0.12874-0.0117-0.20142 0.20902-0.33055 0.20288-0.2273-0.0108-0.40833-0.24032-0.63574-0.24881-2.0074-0.075-4.0193-0.079-6.0266 0-0.2334 9e-3 -0.41599 0.26749-0.64951 0.26294-5.2864-0.10321-10.567-0.4183-15.852-0.58505-0.84537-0.0267-1.6943-0.0626-2.5374 5e-3 -0.22682 0.0181-0.40842 0.23798-0.63571 0.24881-0.12316 6e-3 -0.19112-0.16659-0.30866-0.20379-0.10634-0.0337-0.22688-0.0288-0.33459 1.2e-4 -0.21794 0.0585-0.40036 0.25512-0.62598 0.25763-0.22662 2e-3 -0.40819-0.23493-0.63463-0.24384-0.12384-5e-3 -0.18913 0.17539-0.309 0.20679-0.20705 0.0543-0.42707 0.0551-0.64069 0.0421-2.9048-0.17614-5.815-0.30484-8.7092-0.60907-2.1182-0.22268-4.3614-0.12295-6.3154-0.97042-0.61274-0.26575 1.1274-0.72074 1.7241-1.0209 0.446-0.22433 0.95097-0.31753 1.394-0.54764 0.50068-0.26007 0.90791-0.68661 1.4235-0.91574 0.0939-0.0417 0.17132 0.22287 0.25835 0.16821 0.22802-0.14328 0.27322-0.48425 0.49279-0.64016 0.71836-0.51013 1.4979-0.93219 2.2834-1.3312 0.91921-0.46689 1.8996-0.80518 2.8234-1.2627 0.53195-0.26345 1.0014-0.64392 1.5382-0.89733 1.2689-0.5991 2.6167-1.0256 3.8703-1.6561 0.26262-0.13211 0.51129-0.34458 0.63618-0.61069 0.0932-0.19864 0.0517-0.45822-0.0412-0.65698-0.10844-0.23178-0.32714-0.39844-0.52716-0.55805-0.26077-0.20813-0.58422-0.32846-0.8448-0.53689-0.27128-0.21707-0.45485-0.53632-0.74173-0.73233-1.3812-0.94358-2.8673-1.7273-4.2457-2.6749-0.31985-0.21991-0.52075-0.58255-0.83125-0.81543-0.53992-0.40494-1.158-0.6962-1.7072-1.0884-0.19478-0.13913-0.31687-0.36655-0.51599-0.49933-0.43952-0.29303-0.98607-0.42337-1.3858-0.76867-0.98544-0.85132-1.9257-1.7696-2.7342-2.7905-0.0927-0.11704 0.28349-0.11914 0.43274-0.11539 5.5995 0.14093 11.194 0.53726 16.795 0.54898 0.73179 2e-3 1.4848-0.17459 2.1355-0.50943 0.2972-0.15292 0.41239-0.54086 0.52021-0.8572 0.071-0.20823 0.0434-0.44498-3e-3 -0.65998-0.0262-0.12115-0.20336-0.18518-0.20668-0.30908-3e-3 -0.12323 0.19261-0.19409 0.18991-0.31732-3e-3 -0.12308-0.16608-0.19083-0.20363-0.30808-0.0351-0.10965-0.0532-0.24048-6e-3 -0.34536 0.37215-0.82248 0.67543-1.706 1.2492-2.4029 0.43955-0.53384 1.0433-0.97866 1.7038-1.1836 0.71205-0.22098 1.4975-0.1387 2.2364-0.0392 0.52376 0.0705 1.0878 0.19849 1.4904 0.54093 0.37564 0.31961 0.52814 0.84369 0.68619 1.3109 0.33739 0.99719 0.80756 2.0047 0.79173 3.0574-8e-3 0.50934-0.6743 0.78986-0.85672 1.2655-0.11554 0.3012-0.16821 0.69265 1.7e-4 0.96786 0.22311 0.36466 0.64449 0.59537 1.0461 0.74197 0.30603 0.11176 0.65605 0.0506 0.97737-3e-3 0.224-0.0375 0.40256-0.23398 0.62748-0.26556 0.41787-0.0587 0.84458-0.0238 1.2659-4.9e-4 4.7639 0.26376 9.5276 0.53604 14.288 0.86157 1.16 0.0793 2.3085 0.30704 3.4703 0.35278 0.1293 5e-3 0.20624-0.23809 0.33083-0.20312 0.18677 0.0524 0.34681 0.22857 0.41154 0.41144 0.0333 0.094-0.0915 0.19525-0.18174 0.23764-1.0866 0.51028-2.2247 0.90481-3.316 1.4049-1.2363 0.56647-2.425 1.2336-3.6642 1.7935-1.0615 0.47958-2.1955 0.79605-3.2342 1.3231-1.5488 0.78586-3.0171 1.7217-4.5113 2.607-0.21643 0.1282-0.44215 0.25299-0.61854 0.43234-0.21735 0.22104-0.44405 0.45987-0.54652 0.75244-0.0551 0.15732 0.0287 0.34299 0.11215 0.48733 0.0938 0.16233 0.23114 0.31257 0.39869 0.39673 0.47744 0.23981 1.0358 0.2981 1.5025 0.55814 0.96235 0.53613 1.8773 1.1587 2.7606 1.817 0.14163 0.10557 0.15504 0.32526 0.28053 0.44959 0.47321 0.46881 0.97867 0.90616 1.5028 1.3172 0.23111 0.18124 0.52966 0.26575 0.75529 0.45377 0.4131 0.34426 0.73548 0.78851 1.1486 1.1328 0.22561 0.18802 0.52965 0.26574 0.75529 0.45379 0.41307 0.34424 0.71369 0.81641 1.1486 1.1327 0.73564 0.5351 1.5782 0.90711 2.3398 1.4046 0.4435 0.2897 0.8619 0.6174 1.271 0.95398 0.0819 0.0674 0.16215 0.15078 0.19466 0.25177"/><path d="m58.803 68.613c-0.35725-4e-3 -0.71304-0.0292-1.0645-0.0898-0.75572-0.13049-1.4534-0.50571-2.1328-0.86133-0.23137-0.12113-0.47635-0.30161-0.56055-0.54883-0.1048-0.30759-0.0201-0.65546 0.041-0.97461 0.0427-0.22305 0.23882-0.40143 0.26562-0.62695 0.0507-0.42609 0.0924-0.87803-0.0371-1.2871-0.29446-0.93012-0.69786-1.8355-1.2129-2.6641-0.17545-0.28229-0.49193-0.47907-0.80664-0.58594-0.1174-0.0399-0.18742 0.18083-0.30859 0.20703-0.21499 0.0464-0.44788 0.0616-0.66016 4e-3 -0.26312-0.0715-0.46946-0.28271-0.72461-0.37891-0.79276-0.29871-1.565-0.79473-2.4121-0.80274-1.1346-0.0105-2.2291 0.43705-3.3203 0.74805-0.65518 0.18671-1.3741 0.31488-1.9062 0.74024-0.60583 0.48419-1.0376 1.1787-1.3711 1.8789-0.49824 1.046-0.50087 2.3034-1.0938 3.2988-0.22364 0.37552-0.78071 0.39895-1.1934 0.54297-0.10873 0.0377-0.23603 0.0292-0.3457-6e-3 -0.11723-0.0375-0.18552-0.20375-0.3086-0.20313-0.12395 6.6e-4 -0.18867 0.17574-0.30859 0.20704-0.2074 0.0542-0.43146 0.0782-0.64258 0.041-0.22365-0.0394-0.4064-0.21152-0.62695-0.26562-0.20867-0.0513-0.42774-0.0449-0.64258-0.0449-0.21486 0-0.43392-6e-3 -0.64258 0.0449-0.22057 0.0542-0.40401 0.23392-0.62891 0.26562-0.31688 0.0447-0.64494 0.0206-0.95898-0.041-0.12163-0.0238-0.18466-0.20502-0.30859-0.20704-0.12714-2e-3 -0.20264 0.22747-0.32618 0.19727-0.31285-0.0765-0.59166-0.27477-0.83789-0.48242-0.12571-0.10604-0.20848-0.26676-0.24218-0.42774-0.25076-1.1974-0.48169-2.404-0.60547-3.6211-0.0131-0.12863 0.20392-0.2008 0.20312-0.33008-7.4e-4 -0.12396-0.17563-0.18862-0.20703-0.30859-0.0542-0.2074-0.0762-0.43113-0.041-0.64258 0.0549-0.32962 0.27394-0.62253 0.30664-0.95508 0.0726-0.73648 0.0159-1.4788 6e-3 -2.2188-4e-3 -0.32043 7e-3 -0.64498-0.0469-0.96094-0.0379-0.22401-0.27561-0.42113-0.22461-0.64257 0.0697-0.30209 0.3244-0.53602 0.54492-0.75391 0.13916-0.13745 0.31422-0.287 0.50977-0.29102 0.33114-7e-3 0.63086 0.28512 0.96094 0.25782 1.1058-0.0915 2.2068-0.29516 3.2715-0.60742 0.68526-0.20099 1.41-0.4364 1.9356-0.91993 0.51405-0.47302 0.74493-1.1857 1.041-1.8184 0.23065-0.49292 0.39571-1.0164 0.53321-1.543 0.0552-0.2113 0.0413-0.43594 0.041-0.6543-3e-4 -0.21774 0.0317-0.44586-0.043-0.65039-0.11149-0.30518-0.29252-0.5895-0.50195-0.83789-0.39534-0.46884-0.80573-0.93884-1.3008-1.3008-0.69443-0.50769-1.4363-0.96897-2.2363-1.2852-1.477-0.5838-3.0718-0.82972-4.5547-1.3984-0.23429-0.0899-0.48028-0.29871-0.51757-0.54687-0.15748-1.0481-0.13237-2.1236-0.043-3.1797 0.10506-1.2408 0.3803-2.4623 0.62304-3.6836 0.0461-0.23184 0.0863-0.48832 0.24219-0.66602 0.13378-0.1525 0.35399-0.25314 0.55664-0.24414 2.2271 0.10412 4.4345 0.58903 6.6641 0.58203 0.91897-3e-3 1.9998-4e-3 2.6875-0.61328 0.43425-0.38492 0.0844-1.172-0.0332-1.7402-0.0935-0.45182-0.52944-0.79599-0.58594-1.2539-0.13027-1.0554-0.0966-2.1345 0.0371-3.1894 0.0533-0.42084 0.30404-0.79529 0.51367-1.1641 0.3598-0.63299 0.70564-1.2879 1.1895-1.832 0.377-0.42395 0.87056-0.73673 1.3555-1.0312 0.60234-0.36585 1.2373-0.68203 1.8926-0.9414 0.58358-0.23102 1.1982-0.37741 1.8086-0.52344 0.1123-0.0268 0.23771-0.0276 0.34765 8e-3 0.11714 0.0377 0.18362 0.20013 0.30665 0.20313 0.12331 3e-3 0.20585-0.23996 0.31835-0.18946 0.85675 0.38486 1.6884 0.84708 2.4297 1.4238 0.31541 0.24539 0.47784 0.645 0.67578 0.99219 0.32893 0.57694 0.65882 1.1575 0.90235 1.7754 0.2433 0.61719 0.49778 1.2508 0.55078 1.9121 0.14416 1.7985 0.0905 3.6086 0.0371 5.4121-6e-3 0.19281-0.40372 0.51106-0.21289 0.53906 3.2772 0.48194 6.5965 0.62229 9.8984 0.88672 0.21335 0.0171 0.43247 7e-3 0.64063-0.043 0.21973-0.0526 0.40509-0.20795 0.625-0.25977 0.10927-0.0258 0.23508-0.0198 0.33398 0.0332 0.27364 0.1466 0.56243 0.30447 0.75391 0.54883 0.53843 0.90507 0.21616 1.3332-0.24805 2.0879-0.0563 0.32953 0.22871 0.64239 0.22071 0.97656-6e-3 0.22656-0.25072 0.40057-0.26172 0.62695-0.0772 1.5839-0.0731 3.1737 0 4.7578 0.0105 0.22735 0.28084 0.41149 0.24804 0.63671-0.0306 0.20957-0.30748 0.29829-0.4121 0.48243 0.29466 0.0329-1.123 0.268-0.88474 0.0916-0.48966-0.26774-1.1286-0.18417-1.6719-0.0566-0.93094 0.21848-1.79 0.67765-2.6602 1.0742-0.22984 0.1048-0.44899 0.24847-0.62891 0.42578-0.0858 0.0845-0.15666 0.1822-0.22265 0.28321-0.10347 0.0596-0.20254 0.12215-0.29688 0.1875-0.2809 0.24445-0.72173 1.404-0.86914 1.6914-0.14757 0.287-5e-5 -0.30177 0 0 0.0169 0.19733 0.066 0.39302 0.14648 0.58399-0.22228-0.0557-0.25747 0.86981-0.32617 1.2441-0.0596 0.32416-0.10809 0.67956 2e-3 0.99023 0.20047 0.56601 0.50592 1.1059 0.90039 1.5586 0.29272 0.33597 0.69212 0.59162 1.1094 0.74805 0.12268 0.046-0.12536-0.038 0 0 0.51616 0.15664 1.2751 0.32599 1.7715 0.53711 0.65957 0.28051 1.3562 0.46668 2.0234 0.72852 0.19187 0.0753 0.39814 0.14276 0.55078 0.28125 0.22234 0.20169 0.48593 0.42129 0.54883 0.71484 0.34784 1.6228 0.50882 3.283 0.66211 4.9356 0.0682 0.73584 0.10188 1.4849 0 2.2168-0.0904 0.64927-0.33919 1.2674-0.57031 1.8809-0.0904 0.23978-0.25919 0.443-0.38867 0.66407l-0.46485 0.15039c-0.4207 0.0361-0.84933 0.056-1.2676-2e-3 -0.33103-0.0458-0.6214-0.26644-0.95313-0.30664-0.52429-0.0636-1.0617-0.0636-1.5859 0-0.33176 0.0402-0.62005 0.27974-0.95312 0.30664-0.47393 0.0383-0.95405 0.0791-1.4316 0.0898-0.1194 3e-3 -0.23834 3e-3 -0.35742 2e-3z"/></g></svg>
