<?xml version="1.0" encoding="UTF-8"?>
<!-- Created with Inkscape (http://www.inkscape.org/) -->
<svg width="100" height="100" version="1.1" viewBox="0 0 100 100" xml:space="preserve" xmlns="http://www.w3.org/2000/svg"><g><path d="m98.48 7.4773c0.39154 0.18036 0.83216 0.27921 1.1746 0.54102 0.13467 0.10296 0.15149 0.31259 0.16314 0.48175 0.0293 0.42471 0.024 0.85589-0.042 1.2765-0.0192 0.12243-0.20616 0.18506-0.20675 0.30899-6.3e-4 0.12329 0.20376 0.18539 0.20373 0.30868 0 0.22489-0.20055 0.41834-0.20378 0.64322-2e-3 0.12326 0.18994 0.19403 0.18993 0.31729 0 0.12329-0.19239 0.19409-0.19001 0.31739 3e-3 0.12912 0.2173 0.20199 0.20256 0.33029-0.11583 1.0088-0.30369 2.0138-0.58381 2.9897-0.0722 0.25144-0.20253 0.57819-0.45725 0.6377-0.33038 0.0772-0.6345-0.26379-0.9714-0.30393-0.52411-0.0624-1.0617-0.0803-1.5834-3.6e-4 -0.76666 0.1174-1.5283 0.30716-2.2514 0.58761-0.83952 0.3256-1.6708 0.70606-2.41 1.2203-0.58956 0.41016-1.0245 1.0069-1.5277 1.5193-0.0954 0.0972-0.2421 0.17492-0.26761 0.30868-0.0312 0.16391-0.01 0.37754 0.11594 0.487 0.54065 0.46985 1.224 0.74817 1.7981 1.1765 0.20509 0.15298 0.42487 0.32351 0.52702 0.5581 0.0879 0.20172 0.0755 0.45215 3e-3 0.66004-0.11112 0.32055-0.22542 0.72366-0.53286 0.86712-0.95602 0.44605-2.0213 0.62311-3.0597 0.80914-0.12693 0.0227-0.20102-0.19955-0.32997-0.20193-0.1233-2e-3 -0.1941 0.19263-0.31739 0.19009-0.12941-3e-3 -0.2016-0.21188-0.33075-0.20349-1.841 0.11972-3.6742 0.34723-5.504 0.5828-0.49548 0.0638-0.96759 0.27203-1.4654 0.31448-0.73664 0.0628-1.4832 0.0817-2.218-4e-4 -0.23581-0.0263-0.4688-0.15078-0.63655-0.31863-0.11667-0.11676-0.13566-0.30688-0.15271-0.47104-0.0225-0.21689 2e-3 -0.43774 0.0359-0.65323 0.17363-1.1184 0.35307-2.2369 0.58475-3.3448 0.0544-0.2602 0.25688-0.48441 0.27156-0.74985 7e-3 -0.13343-0.22396-0.20767-0.21121-0.34067 0.20292-2.1159 0.64419-4.2043 0.84993-6.32 0.0125-0.12881-0.24984-0.21011-0.20316-0.33084 0.10315-0.26675 0.34814-0.46338 0.57672-0.63525 0.13204-0.0992 0.30707-0.13602 0.47138-0.15274 0.21614-0.022 0.44639-0.0355 0.65063 0.0386 0.30544 0.11075 0.61617 0.2616 0.83636 0.50052 0.45679 0.49558 0.73842 1.1297 1.1548 1.6597 0.1675 0.21323 0.33866 0.45752 0.5895 0.56052 0.0909 0.0374 0.0524-0.19956 0.12301-0.26795 0.23055-0.22342 0.53476-0.36227 0.76166-0.58938 0.0965-0.0966 0.093-0.26682 0.18991-0.36298 0.47345-0.46973 0.95821-0.93649 1.5049-1.3184 0.69737-0.48724 1.4503-0.89368 2.2098-1.277 0.71633-0.36148 1.4694-0.6452 2.2102-0.95364 0.51125-0.21283 1.011-0.46424 1.5453-0.60993 1.2358-0.33697 2.4789-0.68521 3.7512-0.83429"/><path d="m9.6447 2.092c1.2451 0.37967 2.5136 0.68951 3.7352 1.139 0.2751 0.10125 0.56672 0.25299 0.72253 0.50128 0.11524 0.18365 0.0953 0.45563 1.5e-4 0.65042-0.14285 0.29245-0.49504 0.43692-0.66645 0.71359-0.22365 0.36096-0.41748 0.75482-0.50129 1.1711-0.0252 0.12546 0.19759 0.20014 0.19948 0.32816 2e-3 0.12326-0.1933 0.19409-0.18999 0.31732 3e-3 0.12393 0.17499 0.18924 0.20682 0.30905 0.0552 0.20764 0.0462 0.42804 0.0462 0.64286 0 0.2149 0.0107 0.43582-0.0462 0.643-0.0343 0.12503-0.23811 0.19342-0.21869 0.3216 0.1902 1.2554 0.49683 2.4926 0.83068 3.7177 0.0251 0.0921 0.14283 0.21243 0.22914 0.17166 0.85184-0.40222 1.6486-0.91541 2.4372-1.4307 0.2009-0.13128 0.30608-0.38726 0.51781-0.50027 1.4116-0.75336 2.8528-1.4556 4.3243-2.0839 0.13315-0.0569 0.29799-4e-3 0.431 0.0536 0.27842 0.11965 0.64255 0.1968 0.78005 0.46682 0.33261 0.6532 0.55777 1.3981 0.54272 2.1309-0.0229 1.1162-0.48803 2.1807-0.65385 3.2847-0.3588 2.3889-0.66914 4.7859-0.91914 7.1886-0.0444 0.42673-0.0384 0.86429 0.0373 1.2866 0.13417 0.74838 0.47069 1.4526 0.58852 2.2037 0.0659 0.42028 0.0694 0.86514-0.0427 1.2755-0.0522 0.19119-0.23078 0.36294-0.42047 0.42047-0.31179 0.0945-0.67219 0.11737-0.97741 3e-3 -0.60192-0.2247-1.0835-0.69473-1.6559-0.98648-0.50542-0.25763-1.0365-0.46396-1.5697-0.65763-1.628-0.59124-3.2981-1.0661-4.9115-1.6962-0.83185-0.32492-1.5805-0.84089-2.4128-1.1646-1.0758-0.41831-2.2079-0.67576-3.2977-1.056-0.86194-0.30078-1.7195-0.61825-2.5549-0.98632-0.0899-0.0396-0.17302-0.12744-0.19171-0.22391-0.0534-0.27579-0.17984-0.61527-0.0149-0.84268 0.47798-0.65885 1.14-1.178 1.813-1.6358 0.82778-0.56308 1.8032-0.87802 2.6553-1.4036 0.21773-0.13428 0.43044-0.32144 0.52611-0.55872 0.0612-0.1517-0.0199-0.34076-0.10779-0.4787-0.14566-0.2286-0.41793-0.35623-0.56799-0.582-0.24603-0.37011-0.45824-0.76819-0.60771-1.1867-0.4424-1.2387-0.8914-2.4839-1.1628-3.7709-0.13216-0.62665-0.11206-1.2848-0.0376-1.921 0.10358-0.88498 0.3264-1.7544 0.56819-2.612 0.2571-0.91189 0.53453-1.8244 0.92586-2.6872 0.10882-0.23987 0.29759-0.49268 0.55023-0.56726"/><path d="m15.259 66.132c0.25351 0.18387 0.53204 0.33743 0.76053 0.55161 0.0458 0.0429 0.028 0.12372 0.0269 0.18652-4e-3 0.21945 0.01 0.44366-0.0411 0.65714-0.0527 0.22091-0.257 0.40051-0.26557 0.62747-0.0682 1.8029-0.20054 3.6239 0.0372 5.4124 0.26828 2.018 0.90843 3.971 1.4704 5.9276 0.56923 0.61555 0.37558 0.91629-0.07616 1.4627-0.31178 0.0946-0.66849 0.10687-0.97745 3e-3 -0.87562-0.29321-1.6356-0.87585-2.5104-1.1714-0.12578-0.0425-0.20871 0.2342-0.33903 0.20896-0.41689-0.0807-0.79791-0.29871-1.1711-0.50125-0.15475-0.084-0.24138-0.26551-0.39619-0.34937-0.0963-0.0521-0.21631-0.0399-0.32579-0.0418-0.17418-3e-3 -0.36962-0.0575-0.52193 0.027-0.26018 0.14441-0.48663 0.36615-0.64276 0.61948-0.59664 0.96814-1.1928 1.9519-1.597 3.0149-0.62282 1.6379-1.1033 3.3338-1.4688 5.0475-0.0483 0.22645 0.25253 0.41483 0.25444 0.64637 2e-3 0.22662-0.23102 0.40835-0.24382 0.63461-7e-3 0.12308 0.19751 0.19431 0.18991 0.31732-0.014 0.22714-0.23691 0.40848-0.24881 0.63571-0.0719 1.3721-0.14093 2.7552-3.2e-4 4.122 0.0571 0.55554 0.42406 1.0352 0.58589 1.5697 0.0333 0.10999 0.0671 0.25629-6e-3 0.3447-0.17713 0.21341-0.41446 0.3974-0.67893 0.48083-1.1259 0.3552-2.3058 0.51221-3.4455 0.82032-0.35835 0.0969-0.67584 0.332-1.042 0.39282-0.42623 0.0708-0.89031 0.14361-1.2962-4e-3 -0.32672-0.11923-0.53219-0.45724-0.73778-0.73779-0.0649-0.0886-0.0422-0.21692-0.0423-0.32675-2e-3 -2.3331-0.26747-4.686 0.0368-6.9992 0.31186-2.3705 1.0581-4.6701 1.7975-6.9438 0.38816-1.1938 1.0089-2.3001 1.5729-3.4215 0.27428-0.54535 0.58777-1.0729 0.93865-1.5724 0.19012-0.27066 0.49833-0.44739 0.67613-0.72629 0.0598-0.0939 0.0767-0.25357-2.6e-4 -0.33399-0.33101-0.34558-0.73187-0.62524-1.1468-0.86364-0.54451-0.3129-1.1717-0.46512-1.7147-0.78055-0.45881-0.26651-0.86031-0.6221-1.2733-0.95514-0.0829-0.0668-0.19161-0.13596-0.20982-0.24088-0.0552-0.31784-0.13047-0.67272-1.6e-4 -0.96786 0.1397-0.31638 0.43575-0.56827 0.74597-0.72125 0.13088-0.0645 0.28223 0.21924 0.41106 0.15069 1.0096-0.53714 1.8901-1.2893 2.862-1.892 1.2789-0.79299 2.5286-1.6487 3.8882-2.2938 1.678-0.79608 3.4294-1.438 5.1946-2.0154"/><path d="m52.774 13.813c0.81788 0.16834 1.6231 0.41846 2.4536 0.50501 0.1338 0.0139 0.20985-0.23639 0.34247-0.21363 1.54 0.26444 3.0525 0.67203 4.567 1.0566 0.77739 0.19742 1.5748 0.35788 2.3056 0.68857 3.5341 1.5994 7.0758 3.2035 10.465 5.0907 1.1585 0.64514 2.1236 1.5935 3.1166 2.4724 0.48397 0.42835 0.9154 0.91892 1.3012 1.4374 0.22685 0.30484 0.29001 0.71259 0.5224 1.0132 0.34512 0.44651 0.81786 0.77985 1.1909 1.2033 0.0879 0.0998 0.0882 0.26078 0.18201 0.35501 0.20675 0.20768 0.54563 0.28244 0.70047 0.53125 0.47119 0.75727 0.82965 1.5848 1.1372 2.422 0.076 0.20697 0.10726 0.47144-5e-3 0.66144-0.32547 0.55279-0.7505 1.0598-1.2476 1.4653-0.57942 0.47263-1.3223 0.70575-1.9366 1.1321-0.63063 0.43765-1.1645 1.0034-1.7872 1.4523-0.57361 0.41355-1.1757 0.78928-1.7952 1.1304-0.0957 0.0527-0.21755 0.0534-0.32564 0.0374-0.16594-0.0245-0.36304-0.0343-0.47839-0.1561-0.91284-0.96326-1.649-2.084-2.5594-3.0495-0.7648-0.81116-1.5428-1.6309-2.4563-2.27-1.3982-0.97818-2.8637-1.8928-4.4373-2.5528-1.4836-0.62226-3.086-0.92173-4.6584-1.2622-2.0973-0.45404-4.2139-0.8266-6.3399-1.1189-0.1277-0.0176-0.20114 0.2081-0.32991 0.20185-0.22731-0.0111-0.40831-0.24109-0.63576-0.24888-2.2189-0.0758-4.4538-0.24502-6.6604-3e-4 -1.4172 0.15717-2.7665 0.70999-4.1075 1.1946-1.1439 0.41333-2.2432 0.94553-3.3294 1.4928-0.58302 0.29376-1.1741 0.59927-1.6686 1.0254-0.34418 0.2966-0.50513 0.75809-0.80118 1.1027-0.35042 0.4079-0.83045 0.70386-1.1328 1.1486-0.82557 1.2144-1.5241 2.5115-2.2305 3.7988-0.5671 1.0334-1.0784 2.0968-1.5879 3.1598-0.18326 0.38235-0.36073 0.77014-0.48927 1.1742-0.0349 0.10974-0.0315 0.23648 6e-3 0.34543 0.0551 0.16061 0.0983 0.39252 0.26225 0.43665 1.1884 0.31991 2.4161 0.49218 3.6407 0.61398 0.12939 0.0129 0.19412-0.19766 0.32225-0.21982 0.32187-0.0557 0.65828-0.0622 0.97995-5e-3 0.76664 0.13531 1.5379 0.29422 2.2629 0.57779 0.34352 0.1344 0.6479 0.37878 0.89122 0.65601 0.10999 0.1253 0.15915 0.32739 0.11235 0.48742-0.0911 0.31149-0.28859 0.58902-0.49924 0.83594-0.11657 0.13663-0.33088 0.15738-0.45713 0.28509-0.15042 0.1521-0.25795 0.34415-0.35405 0.53528-0.39081 0.77732-0.64716 1.6246-1.1042 2.3649-1.7694 2.8663-3.7933 5.5701-5.5634 8.436-0.45487 0.73645-0.66812 1.6021-1.1 2.3523-0.56809 0.98672-1.1628 1.9694-1.8917 2.844-0.31047 0.37253-0.73961 0.65085-1.1836 0.84604-0.15236 0.067-0.33498-0.0432-0.48671-0.11163-0.46356-0.20908-0.94755-0.40131-1.3474-0.71558-0.59502-0.46765-1.128-1.0182-1.6055-1.6053-0.42581-0.52362-0.65636-1.1888-1.0884-1.7072-0.6315-0.75781-1.434-1.359-2.0847-2.1005-0.55344-0.63065-0.96703-1.3753-1.5196-2.0068-0.19549-0.22335-0.50987-0.31884-0.70871-0.53924-0.22181-0.24594-0.31599-0.58844-0.53367-0.83801-0.0898-0.10294-0.26682-0.0931-0.36306-0.1901-0.46925-0.47278-0.90614-0.97864-1.3172-1.5028-0.18126-0.23111-0.26576-0.52966-0.45379-0.75531-0.34424-0.41305-0.78852-0.73544-1.1328-1.1486-0.18804-0.22561-0.26577-0.52963-0.4538-0.75528-0.34424-0.41308-0.80661-0.721-1.1327-1.1485-0.56212-0.73691-0.97249-1.5804-1.5196-2.3286-0.15593-0.21322-0.48853-0.293-0.57891-0.54123-0.119-0.32681-0.23584-0.78955 2e-3 -1.0434 0.46829-0.5 1.1794-0.73001 1.8374-0.92053 1.0867-0.31467 2.2197-0.45505 3.3441-0.57987 0.79207-0.0879 1.9477 0.60611 2.3901-0.0568 1.5087-2.2607 1.681-5.1783 2.7665-7.67 0.58606-1.3452 1.471-2.5395 2.2288-3.7961 0.19722-0.32705 0.38599-0.66421 0.63535-0.95349 0.44873-0.5206 1.0019-0.94473 1.45-1.4659 0.21754-0.25296 0.31897-0.59213 0.53691-0.84479 0.44292-0.51345 0.98165-0.93762 1.4353-1.4416 0.0889-0.0987 0.0877-0.26104 0.18191-0.35479 0.6841-0.68039 1.3975-1.3326 2.1374-1.9518 0.29359-0.24572 0.61761-0.45739 0.95578-0.63684 0.55453-0.29428 1.1843-0.44348 1.7142-0.78006 0.63791-0.40524 1.1064-1.0505 1.7612-1.4276 1.8527-1.067 3.7355-2.1106 5.7281-2.8856 1.6714-0.65012 3.4836-0.8591 5.2037-1.3665 0.38989-0.11502 0.72934-0.36453 1.1136-0.49707 0.59491-0.20517 1.1908-0.44796 1.8166-0.51352 0.23027-0.0241 0.41508 0.27393 0.64589 0.25553 1.1697-0.0934 2.3056-0.45221 3.4716-0.58414m28.259 24.438c0.17306 0.0983 0.37614 0.15649 0.51919 0.29489 0.42496 0.41107 0.73406 0.93307 1.1668 1.336 0.21237 0.19778 0.55568 0.22863 0.74741 0.44647 0.27499 0.31241 0.32475 0.785 0.60632 1.0915 0.87628 0.9537 1.8686 1.7948 2.8364 2.6554 0.0993 0.0883 0.26068 0.0881 0.35478 0.18192 0.31306 0.31226 0.52357 0.71985 0.84921 1.019 0.24576 0.22568 0.60007 0.31012 0.84479 0.5369 1.1576 1.0726 2.2752 2.1902 3.3478 3.3478 0.22679 0.24475 0.31695 0.59393 0.53692 0.84481 0.55176 0.62925 1.2163 1.1534 1.7674 1.7832 0.19342 0.22104 0.25732 0.53698 0.45379 0.75528 0.75995 0.84442 1.6389 1.5761 2.402 2.4178 0.41708 0.46012 0.84063 0.93137 1.1316 1.48 0.10309 0.19434 0.0753 0.45206 3e-3 0.66001-0.11046 0.31985-0.26778 0.65213-0.53033 0.8656-0.32518 0.26434-0.734 0.47964-1.1524 0.50253-3.01 0.16443-6.5088-1.5774-9.0434 0.0545-1.8687 1.2032-0.76718 4.3792-1.2217 6.5548-0.14906 0.71357-0.37572 1.409-0.58771 2.1065-0.42334 1.3931-0.78099 2.811-1.318 4.1642-0.42511 1.0714-0.94087 2.1136-1.5592 3.0863-0.28882 0.45441-0.78916 0.73682-1.1338 1.1505-0.18801 0.22568-0.26606 0.52942-0.45382 0.75528-0.31605 0.38022-0.67587 0.724-1.0472 1.0504-0.0998 0.0877-0.26062 0.0881-0.35478 0.18188-0.3144 0.31314-0.49024 0.76672-0.85349 1.0216-0.51375 0.36044-1.1916 0.43152-1.7138 0.77966-1.39 0.92661-2.592 2.1191-3.9949 3.026-0.9915 0.64093-2.0857 1.1103-3.1603 1.5991-0.66342 0.30179-1.3799 0.47495-2.0466 0.76947-0.29553 0.13059-0.52146 0.40418-0.82964 0.50125-2.143 0.67511-4.2908 1.3659-6.4942 1.8058-1.789 0.35718-3.6217 0.46457-5.4426 0.57733-0.12991 8e-3 -0.194-0.19922-0.32245-0.22024-0.42012-0.0689-0.8535-0.0903-1.2765-0.042-0.2318 0.0265-0.41635 0.27893-0.64904 0.26187-2.258-0.1654-4.5011-0.49816-6.7444-0.80352-1.214-0.16529-2.4242-0.36447-3.625-0.60791-0.69626-0.14121-1.3879-0.3161-2.0605-0.54489-1.5512-0.52756-3.1319-1.0021-4.6038-1.7218-1.8695-0.91412-3.7356-1.8906-5.3835-3.1616-1.6352-1.2612-2.8979-2.9435-4.3869-4.3742-0.0958-0.0921-0.26418-0.0847-0.35479-0.18192-1.4248-1.5288-2.8863-3.032-4.1741-4.6778-0.49068-0.62711-0.84049-1.3626-1.1321-2.1035-0.0611-0.15512 0.0171-0.35049 0.11228-0.4874 0.1975-0.28402 0.44565-0.54345 0.73566-0.73208 0.5567-0.36215 1.1449-0.69666 1.7765-0.9021 2.2008-0.71597 4.4399-1.3168 6.6914-1.8527 0.15962-0.038 0.34139 0.0457 0.46936 0.14837 0.4447 0.35682 0.79041 0.82346 1.2155 1.2035 0.6154 0.55023 1.248 1.0824 1.9031 1.5847 0.23306 0.17874 0.52595 0.27033 0.75529 0.4538 0.30309 0.24249 0.51326 0.59286 0.83125 0.81543 1.469 1.0282 2.9625 2.0267 4.5138 2.9259 1.1963 0.69342 2.4554 1.2755 3.7158 1.8442 1.0202 0.46036 2.0494 0.9147 3.1201 1.2404 1.5496 0.47128 3.1302 0.84747 4.7223 1.1448 0.12657 0.0236 0.20104-0.20764 0.32961-0.20132 0.22729 0.0112 0.40826 0.24277 0.63574 0.24884 2.4381 0.0651 4.8822 0.11078 7.3167-0.0365 0.88324-0.0534 1.744-0.31778 2.5942-0.5629 1.55-0.4469 3.0757-0.97592 4.5976-1.5106 0.54036-0.18988 1.1256-0.32061 1.5857-0.66183 0.37513-0.27826 0.47461-0.82559 0.82937-1.1295 0.39882-0.34161 0.93891-0.47525 1.3789-0.76193 0.16301-0.10623 0.29657-0.25558 0.41703-0.40838 0.25453-0.32279 0.42933-0.70658 0.70353-1.0128 0.65846-0.73548 1.4809-1.3223 2.0857-2.1024 0.51682-0.66659 0.93196-1.4189 1.25-2.2002 0.48821-1.1993 0.95645-2.4294 1.1554-3.7089 0.20251-1.3027 1.0672-3.1336 0.036-3.955-1.6268-1.2958-4.1028-0.6984-6.1696-0.93027-0.12787-0.0143-0.2008 0.20166-0.32945 0.20108-0.12331-5.2e-4 -0.19115-0.16656-0.30871-0.20383-0.10634-0.0337-0.22872-0.0349-0.33468 0-0.12263 0.0404-0.19303 0.22943-0.32144 0.21607-0.82574-0.0859-1.687-0.15192-2.4392-0.50324-0.30634-0.14306-0.54975-0.53927-0.5125-0.87533 0.0725-0.65357 0.44658-1.2505 0.80902-1.7992 0.5053-0.76483 1.2112-1.3781 1.77-2.1047 0.50086-0.65125 0.91092-1.3687 1.4057-2.0245 0.32999-0.43741 0.68015-0.86224 1.0658-1.2514 0.20897-0.21088 0.508-0.32059 0.70873-0.53928 0.35576-0.38769 0.66006-0.82199 0.94595-1.2637 0.28697-0.44348 0.45174-0.96323 0.76868-1.3858 1.2729-1.697 2.6927-3.2796 3.9897-4.9583 0.50232-0.65011 0.90453-1.3735 1.4057-2.0245 0.19114-0.24826 0.4172-0.47254 0.66473-0.66465 0.25662-0.19918 0.52827-0.39724 0.8363-0.50042"/></g></svg>
