<?xml version="1.0" encoding="UTF-8"?>
<!-- Created with Inkscape (http://www.inkscape.org/) -->
<svg width="104" height="104" version="1.1" viewBox="0 0 104 104" xml:space="preserve" xmlns="http://www.w3.org/2000/svg"><g><path d="m69.423 27.952c0.36218-0.25717 0.85312-0.39362 1.0864-0.77152 0.33295-0.53927 0.52011-1.1952 0.51923-1.829-2e-3 -1.1543-0.13385-2.3372-0.52667-3.4226-0.52662-1.455-1.4084-2.7577-2.1929-4.0915-0.43191-0.73416-0.99983-1.381-1.4512-2.1033-0.60727-0.97174-1.0289-2.0628-1.7224-2.975-0.6423-0.84479-1.4424-1.5642-2.2512-2.2512-0.60631-0.51505-1.2748-0.96247-1.9754-1.3394-0.92551-0.49786-1.8674-1.0067-2.8837-1.2744-2.7479-0.724-5.5554-1.2084-8.3565-1.687-0.12733-0.0218-0.20118 0.20263-0.33037 0.2026-0.12924-6e-5 -0.20166-0.21341-0.33047-0.20282-1.0949 0.0901-2.1815 0.27838-3.2578 0.49814-0.8233 0.16809-1.6029 0.52661-2.4319 0.66348-0.12988 0.0215-0.20914-0.2387-0.3367-0.2063-1.1803 0.29975-2.2749 0.89359-3.4608 1.1706-0.22311 0.0521-0.43046-0.25583-0.65475-0.20908-0.11042 0.023 0.14871 0.25733 0.0643 0.33216-0.27992 0.24829-0.63934 0.4187-1.0042 0.50143-0.12503 0.0283-0.21747-0.26218-0.32909-0.19907-0.41608 0.2352-0.67258 0.68296-1.0487 0.97794-0.25586 0.20065-0.52817 0.3992-0.83701 0.50098-0.20849 0.0687-0.44702 0.0506-0.65858-8e-3 -0.064-0.0178-0.077-0.12698-0.058-0.1907 0.11242-0.37818 0.25366-0.75119 0.44129-1.0983 0.44358-0.82047 0.99259-1.5804 1.4472-2.3948 0.34575-0.61947 0.66538-1.2546 0.95186-1.9036 0.2154-0.48798 0.42815-0.98326 0.55147-1.5022 0.0495-0.20831 0.0179-0.43539-0.0421-0.64093-0.055-0.18832-0.15383-0.37256-0.29381-0.51004-0.32762-0.32169-0.62815-0.85825-1.0872-0.84589-0.57792 0.0156-1.0602 0.51062-1.4735 0.91489-0.43011 0.42069-0.71022 0.97553-0.99888 1.5034-0.29956 0.54783-0.4717 1.1582-0.75952 1.7123-0.19033 0.36636-0.5358 0.65103-0.67078 1.0412-0.0416 0.12024 0.24475 0.20849 0.19748 0.3266-0.24039 0.60067-0.70129 1.09-0.99509 1.6664-0.7299 1.432-1.6356 2.8068-2.0732 4.3533-0.11673 0.41248 0.29876 0.80713 0.50686 1.182 0.077 0.13858 0.20485 0.24756 0.33617 0.33636 0.5123 0.34631 1.0125 0.73071 1.5857 0.96286 1.5508 0.62805 3.1426 1.1616 4.7558 1.6054 1.6321 0.44897 3.3187 0.67255 4.9644 1.0685 0.32933 0.0792 0.62291 0.27539 0.95214 0.35507 0.21655 0.0524 0.47781 0.15396 0.66743 0.0369 0.43045-0.26569 0.78024-0.66803 1.0492-1.0965 0.114-0.18158 0.0646-0.42862 0.042-0.64184-0.0177-0.16748-0.0444-0.35718-0.16064-0.4791-0.17308-0.18158-0.4179-0.28653-0.65288-0.37436-1.6143-0.60357-3.2844-1.0552-4.8842-1.6959-0.20768-0.0832-0.41626-0.24628-0.49164-0.45694-0.0475-0.13278 0.0934-0.27694 0.19353-0.37625 0.15439-0.15304 0.34682-0.26953 0.54596-0.35681 0.69054-0.3027 1.381-0.62586 2.1125-0.80853 0.12427-0.031 0.20141 0.21246 0.32878 0.19891 0.0998-0.0106 0.078-0.20264 0.16571-0.25153 0.44882-0.25021 0.95326-0.38818 1.4087-0.62622 0.12509-0.0654 0.17932-0.26648 0.32007-0.27725 0.22427-0.0172 0.41844 0.20035 0.64336 0.20352 0.12327 2e-3 0.19409-0.19198 0.31736-0.18997 0.12844 2e-3 0.20249 0.22257 0.32906 0.20062 0.54189-0.0939 1.0205-0.43801 1.563-0.5285 0.12676-0.0212 0.19823 0.1745 0.32038 0.21445 0.10604 0.0347 0.23666 0.0529 0.33473-3.1e-4 0.23852-0.12939 0.36874-0.43362 0.62575-0.52081 0.11677-0.0396 0.1912 0.16659 0.30879 0.2038 0.10634 0.0337 0.22911 0.0361 0.33461-1e-4 0.11665-0.04 0.18291-0.17697 0.29944-0.21728 0.10882-0.0377 0.23617-0.0424 0.34536-6e-3 0.42691 0.14285 0.79938 0.44165 1.2395 0.53619 0.12516 0.0269 0.20018-0.1976 0.32817-0.19946 0.1233-2e-3 0.1941 0.19205 0.31738 0.19003 0.12845-2e-3 0.20352-0.22787 0.32906-0.20062 1.3886 0.3017 2.712 0.86496 4.1015 1.1631 0.13021 0.0279 0.20912-0.23526 0.3399-0.21006 0.41696 0.0803 0.79587 0.30256 1.1711 0.50123 0.1543 0.0817 0.2327 0.30105 0.40437 0.33285 0.12505 0.0232 0.213-0.25473 0.32652-0.19739 1.1772 0.59461 2.3136 1.2823 3.3741 2.0665 0.25027 0.18509 0.2931 0.55444 0.49278 0.79324 0.34155 0.40851 0.80974 0.70591 1.1216 1.1376 0.25235 0.34927 0.30232 0.81646 0.54658 1.1714 0.33911 0.49277 0.86338 0.84302 1.1862 1.3466 0.0538 0.084-0.21396 0.16751-0.16119 0.25217 0.24824 0.39831 0.72168 0.62558 0.96013 1.0298 0.25534 0.4329 0.23899 0.99018 0.48863 1.4264 0.18616 0.32522 0.58993 0.48391 0.78715 0.80255 0.26239 0.42395 0.4363 0.90307 0.56644 1.3844 0.33931 1.2548 0.36087 2.5994 0.83775 3.8088 0.12639 0.3205 0.55626 0.42289 0.87877 0.54404"/><path d="m84.392 73.278c0.12281-0.0636 0.27112-0.0924 0.36841-0.19067 0.25522-0.25763 0.49121-0.54169 0.6698-0.8573 1.4942-2.6405 2.855-5.3548 4.342-7.9994 0.16211-0.28827 0.49063-0.47797 0.60028-0.79001 0.0434-0.12357-0.23794-0.20865-0.2048-0.33536 0.0902-0.34473 0.43875-0.58246 0.53473-0.9256 0.0886-0.31662 0.0871-0.66928 0-0.98633-0.086-0.31329-0.3013-0.57974-0.50055-0.83639-0.15689-0.20212-0.31842-0.43723-0.55798-0.52716-0.29963-0.11246-0.64008-0.067-0.95914-0.0423-0.16467 0.0128-0.33789 0.0556-0.47128 0.15305-0.26966 0.19696-0.57749 0.4013-0.70826 0.70861-0.34082 0.80085-0.38943 1.6996-0.66754 2.5243-0.22506 0.66745-0.57281 2.5926-0.83783 1.9399-0.89853-2.2126-0.92392-4.689-1.2398-7.0561-0.0303-0.22724 0.26477-0.43183 0.21081-0.65464-0.0638-0.26376-0.45498-0.36248-0.52078-0.62576-0.0546-0.21823 0.25552-0.42462 0.20349-0.64346-0.0626-0.2634-0.42477-0.37644-0.50726-0.63431-0.039-0.12198 0.23074-0.20416 0.1994-0.32831-0.18552-0.73495-0.47022-1.4483-0.81793-2.1218-0.14872-0.28809-0.51941-0.42643-0.65067-0.72287-0.05-0.11283 0.24512-0.20734 0.18994-0.31769-0.18768-0.3754-0.63693-0.57614-0.82455-0.95157-0.0553-0.11057 0.21701-0.198 0.18979-0.31857-0.0261-0.11557-0.22379-0.0973-0.30347-0.18497-0.14444-0.15891-0.26141-0.34448-0.35394-0.53824-1.0242-2.1447-1.8748-4.3743-2.9935-6.4712-0.2186-0.40982-0.62479-0.69238-0.98459-0.98615-0.25168-0.20547-0.51797-0.43591-0.8364-0.50055-0.52658-0.10693-1.1126-0.19479-1.6121 3e-3 -0.46231 0.18344-0.87161 0.59278-1.0551 1.0551-0.19824 0.49945-0.10919 1.0852-3e-3 1.6121 0.0633 0.31515 0.26898 0.59839 0.49329 0.82861 0.22897 0.23505 0.59897 0.29636 0.82989 0.52951 0.37018 0.37378 0.67527 0.81223 0.94577 1.2634 0.5149 0.85879 0.88883 1.7971 1.404 2.6558 0.43875 0.73123 1.0149 1.374 1.4529 2.1058 0.36099 0.60321 0.68438 1.2333 0.93789 1.889 0.75589 1.9553 1.4834 3.925 2.086 5.9328 0.0376 0.12537-0.23761 0.20853-0.20462 0.33524 0.0897 0.34442 0.48355 0.57281 0.5329 0.92532 0.0554 0.39578-0.31232 0.78207-0.23895 1.1749 0.0477 0.25515 0.47876 0.29489 0.55954 0.54156 0.0584 0.17847-0.20658 0.33441-0.21137 0.5221-3e-3 0.12323 0.19327 0.19412 0.18994 0.31735-3e-3 0.1239-0.18759 0.18655-0.20681 0.30899-0.066 0.42056-0.069 0.85159-0.042 1.2764 0.0105 0.16485 0.0687 0.32931 0.15308 0.47131 0.108 0.18182 0.35889 0.27713 0.41302 0.48154 0.0316 0.11923-0.16656 0.19125-0.20379 0.30884-0.0337 0.10632-0.0337 0.2283 0 0.33462 0.0372 0.11758 0.23804 0.19034 0.20379 0.30881-0.054 0.18667-0.24292 0.31677-0.41223 0.41211-0.0518 0.0291-0.10672-0.0552-0.15078-0.0951-0.7186-0.65008-1.4744-1.264-2.1351-1.9728-0.0502-0.0539 0.17386-0.12043 0.1294-0.17914-0.16245-0.21445-0.47763-0.27793-0.63879-0.49335-0.31467-0.42056-0.46317-0.94733-0.76221-1.3792-0.14609-0.21097-0.31253-0.45844-0.55921-0.52918-0.41204-0.11816-0.87381-0.11782-1.286 0-0.24597 0.0703-0.40118 0.32496-0.55795 0.52716-0.19873 0.25635-0.37295 0.53663-0.49859 0.8357-0.0457 0.10888-0.046 0.24496-1e-3 0.35434 0.33658 0.82446 0.69571 1.6437 1.1336 2.4192 0.25863 0.4581 0.57409 0.89111 0.94571 1.2635 1.0915 1.0937 2.3361 2.0271 3.4287 3.1198 0.29062 0.29068 0.44259 0.69513 0.70346 1.0128 0.21908 0.26676 0.45257 0.52939 0.7308 0.73371 0.13239 0.0972 0.30573 0.14657 0.46997 0.14813"/><path d="m39.279 60.636c0.51943-0.36032 1.1004-0.64514 1.5583-1.081 0.0716-0.0681-0.16864-0.15084-0.16055-0.24935 0.0101-0.12326 0.18694-0.18622 0.20638-0.30835 0.0507-0.31882 0.0837-0.65757-3e-3 -0.96848-0.0327-0.11679-0.23436-0.0895-0.31729-0.17804-0.14669-0.15649-0.26285-0.34326-0.35354-0.53763-1.3483-2.89-2.5667-5.8404-3.9605-8.7088-0.50908-1.0476-1.2281-1.9838-1.743-3.0286-0.92232-1.872-1.7614-3.7851-2.5634-5.7116-0.40785-0.97971-0.66561-2.017-1.0636-3.0007-0.18826-0.46537-0.53398-0.86115-0.69157-1.3378-0.0474-0.14328-3e-3 -0.33408 0.10345-0.44077 0.0812-0.0812 0.23944-0.0537 0.34428-7e-3 0.51139 0.22782 1.0302 0.46656 1.4687 0.81464 0.65604 0.52081 1.1552 1.2166 1.7852 1.7686 0.35585 0.3118 0.75241 0.57844 1.1625 0.81437 0.0952 0.0548 0.21703 0.0387 0.32683 0.0423 0.31638 0.0105 0.63492 0.0339 0.94968 0 0.16424-0.0177 0.33215-0.0641 0.47134-0.1531 0.16036-0.10251 0.30641-0.24082 0.40218-0.40528 0.21313-0.36599 0.37674-0.76156 0.51123-1.1632 0.0366-0.1092 0.0474-0.24344-6e-3 -0.34543-0.1594-0.30414-0.34974-0.60611-0.61007-0.82999-0.38809-0.33377-0.90571-0.49023-1.3019-0.81433-0.53258-0.43561-0.91737-1.0384-1.4678-1.4512-0.7277-0.54581-1.5781-0.90723-2.3398-1.4045-0.44345-0.28955-0.87318-0.60376-1.2713-0.95313-0.51781-0.4544-0.90497-1.0587-1.4701-1.4527-0.53581-0.37353-1.1717-0.58221-1.7822-0.81457-0.11036-0.042-0.24681-0.0476-0.35429 1e-3 -0.52028 0.23691-1.2398 0.32904-1.4949 0.84064-1.0174 2.0402-1.5514 4.2922-2.1603 6.4891-0.40869 1.4745-0.6568 2.9911-0.88648 4.5039-0.0649 0.42752-0.16643 0.90058 6e-3 1.2972 0.23136 0.53315 0.7024 0.93482 1.1325 1.3256 0.0554 0.0503 0.11667-0.16608 0.18259-0.13065 0.18854 0.10129 0.2307 0.50195 0.44168 0.466 0.53519-0.0912 0.96979-0.49228 1.4274-0.78442 0.13935-0.089 0.26239-0.21091 0.35068-0.35068 0.29939-0.47397 0.66386-0.93435 0.80399-1.4771 0.0578-0.22391-0.23381-0.41455-0.2562-0.64471-0.0518-0.53251-0.0631-1.0791 0.0373-1.6046 0.0881-0.46155 0.27791-0.90738 0.51936-1.3105 0.0402-0.0671 0.1362 0.093 0.16674 0.16503 0.5971 1.4085 1.1093 2.852 1.709 4.2593 0.49977 1.173 1.0258 2.3355 1.5884 3.4797 0.66112 1.3443 1.4219 2.6382 2.0816 3.9832 0.56142 1.1447 1.0851 2.3082 1.5804 3.4831 0.19553 0.46374 0.29706 0.96335 0.49025 1.4281 0.18025 0.43359 0.37775 0.86365 0.62763 1.2612 0.11979 0.19061 0.36903 0.2839 0.46995 0.48517 0.2253 0.44925 0.2563 0.98068 0.48865 1.4263 0.45737 0.87729 0.98691 1.7194 1.5686 2.5197 0.23784 0.32715 0.52954 0.63004 0.87446 0.84131"/><path d="m21.416 76.239c0.87181-0.44236 1.7266-0.91999 2.6154-1.327 1.5943-0.7301 3.2432-1.338 4.8306-2.0828 0.42873-0.20118 0.77924-0.54599 1.2066-0.75007 1.3913-0.6643 2.8845-1.1139 4.2392-1.8501 0.27267-0.1482 0.43692-0.46256 0.54888-0.75202 0.0806-0.20831 0.0636-0.45562 1e-3 -0.67013-0.1218-0.41931-0.23623-0.88101-0.54233-1.1924-0.36757-0.37388-0.98088-0.41663-1.3771-0.75995-1.1983-1.0384-2.2067-2.2797-3.3718-3.3551-0.24519-0.22631-0.58847-0.32333-0.8448-0.53695-0.38182-0.31818-0.67633-0.73245-1.059-1.0496-0.22614-0.18741-0.53406-0.26059-0.75528-0.4538-0.69968-0.61105-1.195-1.4729-1.9938-1.9471-0.36859-0.21878-0.87381-0.11783-1.2859 0-0.24602 0.0703-0.40299 0.3236-0.55795 0.52719-0.19901 0.26147-0.49302 0.52499-0.49302 0.85357 0 0.32859 0.28591 0.59848 0.49302 0.85355 0.33892 0.41745 0.78741 0.73636 1.1327 1.1486 0.21423 0.25577 0.30921 0.60092 0.53693 0.84479 0.39697 0.42517 0.90695 0.73205 1.3189 1.1428 0.31311 0.3122 0.52049 0.72327 0.84924 1.019 0.3511 0.3158 0.73338 0.61954 1.1707 0.79782 0.11476 0.0468 0.2106-0.24972 0.31935-0.1903 0.1271 0.0694 0.17566 0.29571 0.10434 0.42178-0.0736 0.13016-0.27557 0.13306-0.42465 0.14447-0.32242 0.0247-0.65645 0.0439-0.96936-0.0376-0.4359-0.11352-0.79891-0.44531-1.2398-0.53781-0.1291-0.0271-0.20926 0.23871-0.33728 0.20697-0.34613-0.0859-0.58743-0.43704-0.93372-0.52225-0.12414-0.0306-0.19331 0.18662-0.31816 0.21414-0.21171 0.0467-0.46479 0.11155-0.65042-4.8e-4 -0.3051-0.18418-0.39895-0.61444-0.69563-0.81192-0.10089-0.0672-0.23874 0.18209-0.34309 0.12045-0.83294-0.49216-1.6048-1.0872-2.3458-1.7091-0.58372-0.48993-1.1384-1.0232-1.6166-1.6166-0.40737-0.50555-0.72121-1.0827-1.022-1.6581-0.85983-1.6444-1.7118-3.2958-2.4569-4.9952-0.28604-0.65225-0.45832-1.3505-0.62895-2.042-0.21243-0.86102-0.4355-1.7266-0.51874-2.6095-0.0215-0.22824 0.20931-0.42532 0.21102-0.65454 9.3e-4 -0.12329-0.16655-0.19113-0.20375-0.30865-0.0337-0.10635-0.0361-0.2291 1.2e-4 -0.33463 0.04-0.1166 0.17676-0.18289 0.21725-0.29934 0.0379-0.1091 0.0312-0.23346 7e-3 -0.3465-0.15644-0.73959-0.57559-1.4457-0.54625-2.2011 0.0787-2.0247 0.52253-4.0197 0.86545-6.0167 0.14333-0.8346 0.38333-1.6498 0.592-2.4706 0.0254-0.10007 0.0452-0.20905 0.10977-0.28962 0.14865-0.18551 0.41632-0.27618 0.51645-0.49179 0.042-0.0905-0.14629-0.14727-0.17532-0.24279-0.0324-0.10654-0.0478-0.23343 0-0.33402 0.0752-0.15845 0.2738-0.23636 0.34643-0.396 0.73413-1.6141 1.3209-3.2929 2.0637-4.903 0.17049-0.36954 0.48093-0.66037 0.66919-1.0212 0.0522-0.1001 0.0381-0.22351 0.0391-0.33636 3e-3 -0.27799 0.1076-0.59079-0.0279-0.83353-0.15018-0.26901-0.44787-0.46286-0.74373-0.54865-0.41144-0.11926-0.86473-0.12478-1.2845-0.0393-0.42165 0.0858-0.84833 0.25689-1.1727 0.53964-0.51722 0.45096-0.94017 1.0143-1.2881 1.6057-0.55699 0.94669-0.84651 2.0353-1.4091 2.9786-0.14975 0.2511-0.5571 0.28091-0.69017 0.54123-0.0738 0.1445 0.23112 0.29632 0.18284 0.45129-0.0865 0.27747-0.41392 0.42343-0.53743 0.6865-0.0768 0.16366 0.0459 0.38134-0.0389 0.54107-0.11062 0.20847-0.41162 0.27698-0.50924 0.49182-0.0413 0.091 0.14628 0.1474 0.17538 0.24292 0.0324 0.10648 0.0367 0.22876 1.4e-4 0.33387-0.0407 0.11712-0.17828 0.18307-0.22023 0.29974-0.0611 0.16986 0.01 0.37903-0.0801 0.53555-0.11757 0.20475-0.41254 0.27661-0.50977 0.49176-0.0413 0.0914 0.15447 0.14514 0.17785 0.24268 0.0424 0.17706 0.0726 0.37469 0.0112 0.54608-0.0618 0.17242-0.34938 0.23496-0.35663 0.41794-6e-3 0.1629 0.33783 0.20233 0.32567 0.36493-0.0712 0.95144-0.51818 1.8533-0.56286 2.8064-0.14361 3.0625-0.26007 6.1429 2e-5 9.1977 0.14853 1.7448 0.69446 3.439 1.2181 5.11 0.25301 0.80741 0.77576 1.5061 1.1 2.2877 0.40628 0.97919 0.64577 2.0251 1.089 2.9881 0.24924 0.54147 0.5984 1.0372 0.97601 1.4984 0.58441 0.71375 1.2202 1.3885 1.899 2.013 0.79241 0.72901 1.735 1.2868 2.5054 2.039 0.0709 0.0693-0.14126 0.15323-0.16034 0.25052-8e-3 0.043 0.0503 0.10291 0.093 0.0929 0.12062-0.0282 0.19868-0.21604 0.3197-0.18955 0.11428 0.025 0.0882 0.23065 0.18276 0.29956 0.43966 0.32047 0.88395 0.65927 1.3937 0.84952 0.11896 0.0444 0.19641-0.17172 0.31714-0.21103 0.10896-0.0355 0.23466-0.0393 0.34375-4e-3 0.21048 0.0677 0.37985 0.23367 0.58935 0.30451 0.92084 0.31127 1.8789 0.50796 2.7929 0.83877 0.0947 0.0343 0.24843 0.16098 0.18482 0.23901-0.23186 0.28443-0.5724 0.46775-0.89838 0.6363-1.161 0.60034-2.3876 1.0673-3.5503 1.6641-0.13642 0.07-0.25123 0.19095-0.32534 0.32516-0.2072 0.37528-0.51198 0.7533-0.50686 1.182 5e-3 0.44107 0.25947 0.86606 0.53541 1.2102 0.20071 0.25036 0.53273 0.36557 0.82823 0.4906"/><path d="m66.778 87.335c0.68132-0.24405 1.3898-0.42258 2.044-0.73215 0.59268-0.28043 1.1484-0.64008 1.6767-1.0284 0.31335-0.23032 0.51928-0.58716 0.83328-0.81665 0.49768-0.36365 1.0484-0.64936 1.5858-0.95121 0.41333-0.23211 0.82373-0.47671 1.2651-0.64978 0.77121-0.30236 1.5957-0.45794 2.3621-0.77234 0.14474-0.0594 0.24713-0.20059 0.33118-0.33258 0.30099-0.47247 0.61663-0.94564 0.81649-1.469 0.0785-0.20551 0.12061-0.4783-3e-3 -0.65997-0.39743-0.58179-0.95026-1.0443-1.479-1.51-0.25036-0.22055-0.58847-0.32331-0.84478-0.5369-0.38184-0.31818-0.66565-0.74585-1.0591-1.0496-1.0174-0.78568-2.0739-1.5231-3.161-2.2091-0.33691-0.21261-0.76642-0.25296-1.0957-0.47714-0.70523-0.4801-1.2901-1.1204-1.9827-1.6186-0.0892-0.0641-0.21694-0.0423-0.32677-0.0423-0.31978 3e-5 -0.64194-3e-3 -0.9584 0.0425-0.0641 9e-3 -0.11618 0.066-0.15363 0.11878-0.21175 0.29858-0.46172 0.58383-0.58827 0.92737-0.076 0.20642-0.0805 0.45666 3e-3 0.66 0.13086 0.31683 0.36954 0.58383 0.61083 0.82733 0.21838 0.2204 0.473 0.41296 0.75221 0.54825 0.1624 0.0787 0.38966-0.0297 0.53596 0.0759 0.23891 0.17245 0.30968 0.5158 0.53942 0.70031 0.55588 0.44651 1.2397 0.71753 1.7902 1.1708 0.0797 0.0657 0.0576 0.21933 8e-3 0.30978-0.0692 0.12552-0.18732 0.28324-0.33041 0.27518-1.4902-0.0838-2.9767-0.27334-4.4446-0.54379-1.6848-0.3104-3.3462-0.74295-4.9984-1.196-1.4059-0.38552-2.7997-0.82095-4.1701-1.3182-0.44783-0.16248-0.81947-0.50061-1.27-0.65552-0.27248-0.0937-0.59039 0.0218-0.86096-0.0772-0.22895-0.0838-0.35637-0.34598-0.57718-0.44931-0.0589-0.0276-0.10883 0.13025-0.16695 0.10104-0.0959-0.0482-0.0888-0.20483-0.17273-0.27172-0.26004-0.20713-0.62147-0.28635-0.84117-0.53586-0.0633-0.0719 0.13931-0.14636 0.15756-0.24045 8e-3 -0.043-0.0507-0.1044-0.0929-0.0928-0.11918 0.0328-0.19208 0.16638-0.30995 0.20358-0.10635 0.0336-0.22908 0.036-0.33459-1.2e-4 -0.11687-0.04-0.1832-0.17743-0.30007-0.21747-0.10551-0.0361-0.24376-0.0645-0.33462 1.8e-4 -0.35579 0.25336-0.78193 0.50376-0.9431 0.9097-0.12355 0.31122-7e-3 0.71609 0.19033 0.9863 0.3926 0.53647 0.94446 0.94784 1.4963 1.3184 0.90193 0.60571 1.8724 1.1056 2.8423 1.5952 1.171 0.59098 2.3351 1.2169 3.5754 1.6437 2.0131 0.69266 4.0779 1.2383 6.1551 1.7046 0.52207 0.11716 1.0716 0.0822 1.6047 0.0372 0.20334-0.0172 0.36917-0.25211 0.57086-0.22107 0.21765 0.0335 0.3199 0.33377 0.53256 0.39093 0.16294 0.0438 0.32515-0.13376 0.49283-0.11523 0.12254 0.0136 0.18553 0.20965 0.30869 0.20376 0.22728-0.0108 0.4095-0.2243 0.63572-0.24875 0.42322-0.0458 0.85584-0.024 1.2764 0.042 0.12244 0.0192 0.18509 0.20617 0.30902 0.20678 0.12329 6.1e-4 0.18625-0.18881 0.30863-0.20376 0.16198-0.0198 0.33209 0.0337 0.47766 0.10754 0.10193 0.0517 0.31936 0.17844 0.23211 0.25226-0.6618 0.55997-1.4834 0.90063-2.1893 1.4038-0.39828 0.28384-0.81186 0.56946-1.1162 0.95227-0.0616 0.0774 0.17793 0.15213 0.16056 0.24951-0.024 0.13471-0.12742 0.28943-0.26158 0.31638-0.26137 0.0525-0.53898-0.18607-0.79283-0.10468-0.1091 0.035 0.16306 0.27017 0.0697 0.33652-0.38861 0.27621-0.90803 0.31116-1.3196 0.55185-0.18686 0.10928-0.35457 0.27853-0.44021 0.47729-0.0848 0.1969-0.0649 0.42865-0.042 0.64182 0.0181 0.16845 0.0272 0.37988 0.16269 0.48153"/><path d="m47.186 103.18c1.3581-0.22562 2.7257-0.39997 4.0743-0.67682 2.5373-0.52094 5.1485-0.8197 7.5788-1.7157 4.863-1.7929 9.483-4.1868 14.208-6.3166 0.25039-0.11288 0.5007-0.23776 0.7149-0.4097 0.5123-0.41122 0.93378-0.92917 1.4536-1.3309 0.40573-0.3136 0.89594-0.50391 1.3106-0.80557 0.26746-0.19458 0.41739-0.55771 0.72617-0.67612 0.1882-0.0721 0.38037 0.21271 0.57849 0.17581 0.21747-0.0405 0.34378-0.28418 0.54104-0.38424 0.0328-0.0166 0.067 0.0936 0.0893 0.0644 0.40665-0.53 1.0023-0.99909 1.1307-1.6546 0.10174-0.51923-0.20289-1.0731-0.51209-1.5025-0.27866-0.38696-0.74765-0.60006-1.1663-0.82833-0.10327-0.0563-0.24185-0.0388-0.35284 9e-5 -0.25684 0.0901-0.46909 0.28222-0.72403 0.37756-0.77243 0.28894-1.6187 0.39218-2.3505 0.77249-0.28058 0.14578-0.35592 0.52753-0.58017 0.75043-0.68475 0.68069-1.3929 1.3403-2.1392 1.9528-0.20975 0.17215-0.4718 0.26883-0.71481 0.38965-0.80811 0.40185-1.6032 0.83471-2.4379 1.178-0.7708 0.31701-1.6085 0.45837-2.3692 0.79901-0.21429 0.096-0.31636 0.35199-0.507 0.48907-0.22017 0.15836-0.46396 0.28525-0.71439 0.38928-1.3806 0.57358-2.8117 1.0254-4.1738 1.6416-1.1468 0.51867-2.1974 1.2338-3.3416 1.7579-0.43384 0.19873-0.90943 0.29288-1.3739 0.40207-2.5776 0.6058-5.1336 1.3366-7.7501 1.7423-1.1483 0.17807-2.3296 0.11307-3.4862 3e-5 -2.7284-0.26669-5.444-0.67001-8.1454-1.1369-0.76453-0.13214-1.5108-0.37314-2.233-0.6568-0.66089-0.25965-1.2911-0.59845-1.8985-0.96622-0.453-0.27432-0.87155-0.6055-1.2712-0.953-0.43145-0.37516-0.86785-0.7562-1.216-1.2098-0.29494-0.38416-0.50116-0.83237-0.69304-1.2771-0.21628-0.50128-0.43096-1.0133-0.52706-1.5507-0.0942-0.52667-0.067-1.0705-0.0372-1.6046 9e-3 -0.16492 0.0666-0.33054 0.15306-0.47132 0.11109-0.18097 0.3969-0.26281 0.42662-0.47305 0.0468-0.33093-0.30085-0.65323-0.22148-0.97794 0.23415-0.9577 0.62241-1.888 1.129-2.7338 0.55431-0.92551 1.3044-1.7214 2.0219-2.5271 0.19743-0.22168 0.51353-0.31558 0.70872-0.53928 0.50996-0.58441 0.62131-1.7636 1.3902-1.866 0.55318-0.0738 0.14928 1.123 0.0562 1.6732-0.075 0.44309-0.46835 0.78949-0.54776 1.2318-0.0404 0.22512 0.21632 0.42486 0.20934 0.65347-7e-3 0.22745-0.22434 0.40948-0.24877 0.63571-0.0457 0.42328-0.15823 0.90094 0.0423 1.2765 0.3048 0.57068 0.81398 1.0457 1.3724 1.3724 0.27862 0.16299 0.6571 0.0824 0.96846-3e-3 0.11424-0.0313 0.0882-0.22812 0.1737-0.31003 0.20729-0.19852 0.62764-0.2359 0.68906-0.51624 0.56492-2.5785 0.84414-5.2135 1.1409-7.8364 0.0152-0.13425-0.23037-0.20914-0.21528-0.34345 0.0959-0.85476 0.52928-1.6638 0.53714-2.5239 5e-3 -0.5246-0.16509-1.0888-0.50046-1.4922-0.2756-0.33154-0.76564-0.41074-1.1802-0.52939-0.21554-0.0617-0.45384-0.05-0.67263-9.7e-4 -0.89754 0.20111-1.7814 0.46322-2.6564 0.74694-2.263 0.7338-4.5378 1.4413-6.7546 2.3048-0.56967 0.22193-1.0859 0.57309-1.5749 0.93997-0.32493 0.24375-0.67713 0.50736-0.84652 0.87653-0.13461 0.29346-0.10537 0.66342 0 0.96863 0.0835 0.24185 0.32494 0.40118 0.52718 0.55795 0.25638 0.19876 0.51257 0.52646 0.8358 0.49863 1.1212-0.0967 2.1932-0.51474 3.2667-0.85233 0.51729-0.16269 0.9736-0.4909 1.4936-0.64474 0.21054-0.0623 0.44188-0.027 0.65866 8e-3 0.0489 8e-3 0.11432 0.0679 0.0956 0.11374-0.12325 0.30155-0.2715 0.6034-0.48816 0.84668-0.39095 0.43906-0.83712 0.83246-1.3137 1.1767-0.11075 0.08-0.31092-0.0346-0.40479 0.0646-0.81538 0.86231-1.5948 1.7684-2.2587 2.7521-0.30745 0.45557-0.46259 1.0005-0.62773 1.5247-0.32433 1.0296-0.60636 2.0738-0.83798 3.1281-0.0474 0.21561-0.0419 0.44659 5e-3 0.66229 0.0264 0.12113 0.2034 0.18524 0.20672 0.30915 3e-3 0.12323-0.18998 0.19403-0.18996 0.31729 1e-5 0.12329 0.19218 0.19409 0.19002 0.31735-2e-3 0.12872-0.21993 0.20215-0.20139 0.32956 0.0906 0.62271 0.29567 1.2263 0.5136 1.8166 0.17118 0.46371 0.52259 0.85544 0.64915 1.3332 0.0337 0.12741-0.24565 0.21112-0.20674 0.33704 0.18025 0.58337 0.48431 1.1275 0.8174 1.6393 0.0381 0.0586 0.11876-0.17593 0.16762-0.12595 0.55848 0.57102 0.95289 1.29 1.5205 1.8519 0.37753 0.37381 0.90257 0.57187 1.2923 0.93299 0.45378 0.42047 0.70941 1.0504 1.222 1.3968 0.19167 0.12951 0.46148-0.16507 0.6856-0.10773 0.23481 0.0601 0.37141 0.31698 0.58441 0.43271 0.033 0.0179 0.0616-0.0883 0.0916-0.0656 0.18798 0.1424 0.27143 0.42572 0.49245 0.50797 0.32848 0.12225 0.72325-0.0625 1.0494 0.0658 0.24167 0.0951 0.29413 0.48126 0.54158 0.56005 0.18234 0.0581 0.34259-0.25268 0.53087-0.21853 0.63073 0.11447 1.188 0.49783 1.8122 0.64371 1.4895 0.34814 2.9951 0.64114 4.5125 0.8345 0.1286 0.0164 0.19517-0.19013 0.32167-0.21854 0.21173-0.0476 0.4389-0.0457 0.65109 0 0.12119 0.0261 0.18517 0.20587 0.30911 0.20667 0.12914 8.5e-4 0.20192-0.21628 0.33033-0.20246 0.95266 0.1027 1.8729 0.41761 2.8229 0.54233"/><path d="m68.773 44.467c0.78101-0.29761 1.6123-0.48709 2.343-0.89282 0.25943-0.14405 0.31906-0.50952 0.53976-0.70789 0.24561-0.22076 0.58609-0.31531 0.83725-0.52975 0.43592-0.37216 0.88559-0.74857 1.2119-1.2198 0.28186-0.40707 0.44598-0.8909 0.57977-1.3676 0.24301-0.86597 0.44617-1.7487 0.54553-2.6426 0.0143-0.12833-0.17569-0.19883-0.21609-0.32148-0.0349-0.10595-0.0343-0.22854 3e-5 -0.33468 0.0391-0.12094 0.25103-0.19687 0.21106-0.31754-0.28019-0.84594-0.68216-1.6513-1.1202-2.4274-0.26786-0.47457-0.52194-1.0184-0.986-1.3041-1.2432-0.76545-2.5964-1.3907-4.0062-1.7698-0.82929-0.22305-1.7262-0.12259-2.5762-5.5e-4 -0.49996 0.0718-0.97998 0.29627-1.4031 0.57202-0.51594 0.33628-0.95637 0.7829-1.3724 1.237-0.25157 0.2746-0.45444 0.59665-0.61528 0.93253-0.42909 0.89615-0.93888 1.7794-1.1484 2.7507-0.18106 0.83948-0.13916 1.7288-6e-4 2.5763 0.11575 0.70804 0.38085 1.4026 0.75147 2.0168 0.45304 0.75085 1.0355 1.431 1.6847 2.0207 0.48323 0.43896 1.0906 0.72198 1.6687 1.0254 0.54914 0.28827 1.1002 0.60675 1.7048 0.74539"/><path d="m86.851 88.256c0.89826-0.26261 1.8517-0.38159 2.6948-0.78778 0.81595-0.3931 1.4981-1.0204 2.2129-1.5766 0.24316-0.18918 0.49905-0.387 0.65347-0.65357 0.37885-0.65396 0.69946-1.3488 0.92444-2.0703 0.26556-0.85159 0.71048-1.746 0.53854-2.6213-0.26379-1.3433-1.0629-2.535-1.7802-3.7009-0.31863-0.51792-0.80524-0.9228-1.2902-1.2897-0.44702-0.33825-0.94574-0.62533-1.4771-0.80404-0.12055-0.0405-0.20844 0.24462-0.32651 0.19738-0.46729-0.18695-0.79263-0.64514-1.2599-0.83209-0.11807-0.0472-0.19928 0.19931-0.32645 0.19742-0.12393-2e-3 -0.18911-0.17542-0.30902-0.20682-0.20718-0.0542-0.43533-0.10129-0.64108-0.0419-0.73819 0.21298-1.4433 0.53079-2.1442 0.84543-0.643 0.28873-1.2687 0.61658-1.8828 0.96255-0.3327 0.18741-0.65576 0.39591-0.95337 0.6352-0.24475 0.1968-0.51037 0.39373-0.66577 0.66665-0.55771 0.97968-1.1468 1.9691-1.4524 3.0542-0.20227 0.71811-0.13498 1.4981-0.0381 2.2378 0.0693 0.52954 0.31992 1.0209 0.52902 1.5123 0.18299 0.43006 0.3927 0.85144 0.64438 1.2453 0.21518 0.33674 0.4668 0.6532 0.74939 0.93576 0.26065 0.26066 0.54663 0.50541 0.86954 0.6832 0.64142 0.35315 1.3026 0.6897 2.0042 0.89911"/><path d="m23.71 27.337c1.0299-0.28806 2.1734-0.31275 3.0897-0.86414 1.0037-0.604 1.7296-1.5902 2.4816-2.4884 0.30002-0.35834 0.46143-0.81516 0.64437-1.2452 0.20906-0.49146 0.53399-0.9784 0.5287-1.5124-0.0122-1.2273-0.32636-2.4353-0.57978-3.6362-0.11378-0.53919-0.31572-1.0574-0.51878-1.5697-0.14064-0.35483-0.24071-0.75458-0.5098-1.0252-0.42353-0.426-0.97996-0.69843-1.501-0.99732-0.90129-0.51702-1.7277-1.3359-2.7608-1.4474-1.1503-0.12415-2.2775 0.43722-3.3811 0.78451-0.77318 0.24332-1.5363 0.55332-2.2255 0.97986-0.2763 0.17099-0.36982 0.53882-0.59961 0.76852-0.20995 0.2099-0.51012 0.31867-0.7087 0.53931-0.25311 0.28119-0.43811 0.61823-0.62782 0.94556-0.2231 0.38498-0.45421 0.77072-0.6087 1.188-0.34417 0.92947-0.69733 1.8658-0.88257 2.8394-0.0999 0.52545-0.0494 1.0763 0.0372 1.6041 0.1016 0.61902 0.25315 1.2415 0.52277 1.8079 0.22307 0.4686 0.59358 0.85367 0.9317 1.2474 0.30197 0.35163 0.61075 0.70755 0.98363 0.98282 0.34405 0.25394 0.74058 0.43659 1.1413 0.58573 0.62167 0.23135 1.2599 0.43084 1.9123 0.55063 0.42233 0.0775 0.86084 0.0839 1.2876 0.0369 0.2262-0.0249 0.40843-0.23791 0.63574-0.24881 0.12291-6e-3 0.18845 0.17416 0.30792 0.20361"/><path d="m45.307 75.233c0.59943-0.28204 1.2425-0.4856 1.7983-0.84613 0.35488-0.2302 0.63477-0.56632 0.89425-0.90039 0.48762-0.62778 0.92469-1.295 1.3382-1.9738 0.20658-0.33908 0.38396-0.69888 0.5177-1.0727 0.2235-0.62463 0.4751-1.2534 0.55043-1.9126 0.10958-0.95837 0.18969-1.9483-9.4e-4 -2.8939-0.19501-0.96734-0.6463-1.8767-1.1337-2.7347-0.22687-0.39932-0.57288-0.75052-0.97362-0.97485-1.0726-0.60047-2.1843-1.1984-3.3843-1.4648-1.0442-0.23181-2.1636-0.22607-3.2089 1e-3 -0.54197 0.11777-0.86779 0.69522-1.3392 0.98737-0.5446 0.33749-1.2265 0.4649-1.7004 0.89618-0.66438 0.60473-1.1605 1.3795-1.6368 2.1413-0.34654 0.55429-0.70421 1.1391-0.81668 1.783-0.16591 0.94996-0.16591 1.9431 0 2.893 0.11247 0.64398 0.51022 1.2056 0.81668 1.783 0.17947 0.33817 0.38196 0.67011 0.63683 0.95578 0.62832 0.70425 1.255 1.4253 2.0021 2.002 0.12608 0.0973 0.32066-0.15461 0.46831-0.0949 0.59129 0.2391 1.0642 0.72247 1.6582 0.9548 0.68102 0.26633 1.4048 0.42947 2.1296 0.52664"/></g></svg>
