<?xml version="1.0" encoding="UTF-8"?>
<!-- Created with Inkscape (http://www.inkscape.org/) -->
<svg width="197.04" height="83.15" version="1.1" viewBox="0 0 197.04 83.15" xml:space="preserve" xmlns="http://www.w3.org/2000/svg"><path d="m154.08 83.083c5.9029-0.29175 11.803-0.65467 17.709-0.87534 1.9014-0.071 3.807-0.0743 5.7083 4.9e-4 0.22739 9e-3 0.40845 0.23816 0.63577 0.24881 0.12934 6e-3 0.20157-0.21091 0.33085-0.20349 2.1163 0.12091 4.2147 0.49194 6.3324 0.58417 2.3244 0.10122 4.6549 0.0855 6.9798-5e-3 0.33307-0.0129 0.61969-0.30182 0.95297-0.3027 0.33246-8.6e-4 0.6196 0.28927 0.95197 0.29773 0.22552 6e-3 0.4003-0.2519 0.62582-0.25757 0.33106-8e-3 0.64374 0.2774 0.96936 0.21725 0.23807-0.044 0.46662-0.26138 0.53189-0.49451 0.31199-1.1139 0.52659-2.2678 0.56562-3.4238 0.14978-4.4387 0.0833-8.8832-4.3e-4 -13.324-4e-3 -0.22657-0.25208-0.40073-0.26257-0.62708-0.0104-0.22467 0.21157-0.41849 0.20364-0.64325-8e-3 -0.22742-0.23746-0.40845-0.24878-0.63574-0.0738-1.4786-0.0167-2.9608-4e-3 -4.4412 2e-3 -0.21485-0.0119-0.43613 0.0466-0.64283 0.0338-0.11953 0.22006-0.1762 0.22048-0.30041 7.4e-4 -0.23065-0.22702-0.42645-0.21743-0.65689 0.0968-2.3227 0.43344-4.631 0.53467-6.9535 6e-3 -0.12949-0.17682-0.19919-0.21753-0.32221-0.0351-0.10589-0.0293-0.22705 1.5e-4 -0.33465 0.0597-0.2186 0.24377-0.40128 0.26254-0.62711 0.0699-0.8425 0.0742-1.6941 0-2.5362-0.0294-0.33289-0.27789-0.62131-0.30768-0.95414-0.0754-0.84243-0.0593-1.6933-5e-3 -2.5374 0.0482-0.74576 0.30014-1.4728 0.31244-2.2201 4e-3 -0.22708-0.2121-0.40674-0.26556-0.62747-0.0505-0.20832-0.0785-0.43052-0.0418-0.6417 0.0388-0.22326 0.25711-0.40063 0.26227-0.62716 8e-3 -0.33533-0.23688-0.64539-0.22571-0.98066 0.095-2.8487 0.45456-5.6846 0.54312-8.5335 7e-3 -0.23246-0.25824-0.41578-0.25772-0.64832 5.2e-4 -0.2261 0.2074-0.40655 0.26059-0.62634 0.0506-0.2088 0.0426-0.42801 0.0466-0.64282 0.01-0.52839 0.059-1.0608-4e-3 -1.5855-0.04-0.33091-0.29037-0.61994-0.30276-0.95304-8e-3 -0.22644 0.23419-0.4082 0.2438-0.63461 5e-3 -0.12317-0.16656-0.19113-0.20376-0.30866-0.0337-0.10632-0.0289-0.22686 1.2e-4 -0.33456 0.0585-0.21765 0.26773-0.39981 0.25793-0.62497-0.0969-2.2231-0.46112-4.4286-0.5751-6.6509-7e-3 -0.12939 0.21732-0.19263 0.21744-0.32217 2.1e-4 -0.23044-0.23566-0.42685-0.21655-0.6565 0.0881-1.0602 0.43225-2.0877 0.53274-3.1468 0.0122-0.12866-0.20022-0.2012-0.20276-0.33041-2e-3 -0.12329 0.19004-0.19406 0.19004-0.31735 0-0.12332-0.19272-0.19412-0.19007-0.31738 3e-3 -0.12958 0.2078-0.20145 0.20404-0.331-0.10379-3.5739-0.19028-7.1536-0.52475-10.713-0.0225-0.23904-0.30618-0.39792-0.52792-0.49008-0.20044-0.0833-0.45657-0.0962-0.65115 3e-5 -0.21338 0.10547-0.22071 0.52579-0.45768 0.54813-5.1202 0.48303-10.257 0.87039-15.4 0.94781-2.8628 0.0431-5.7108-0.42358-8.5693-0.58694-0.31915-0.0183-0.64441-0.0193-0.95807 0.0424-0.12161 0.0239-0.18506 0.20346-0.30896 0.20682-0.1232 3e-3 -0.19409-0.19266-0.31732-0.18992-0.12326 3e-3 -0.18536 0.20514-0.30865 0.2038-0.33112-4e-3 -0.63816-0.21759-0.96927-0.21771-0.12952-3e-5 -0.19284 0.22488-0.32212 0.21725-1.6898-0.0997-3.3602-0.43444-5.05-0.53408-0.12928-8e-3 -0.19913 0.1766-0.32209 0.21725-0.10592 0.035-0.22692 0.0288-0.33468-1.5e-4 -0.21793-0.0584-0.4003-0.25727-0.62592-0.2576-0.23196-3.4e-4 -0.41638 0.27807-0.64728 0.25574-0.74954-0.0726-1.4486-0.4383-2.1959-0.53101-0.12863-0.016-0.19659 0.18433-0.32159 0.21869-0.20719 0.057-0.42804 0.0465-0.64289 0.0465-0.32049 0-0.64639 0.018-0.96032-0.0464-0.1261-0.0259-0.19342-0.24048-0.31983-0.21631-0.41708 0.0797-0.81949 0.26325-1.1711 0.50125-0.67657 0.45795-1.3049 0.99124-1.8845 1.567-0.22086 0.21936-0.28323 0.56283-0.49213 0.79361-0.21759 0.24038-0.53882 0.3678-0.76742 0.59775-0.68024 0.68423-1.335 1.3956-1.9519 2.1374-0.1878 0.22583-0.25375 0.54025-0.45382 0.75528-1.2028 1.2929-2.5201 2.4751-3.7396 3.7522-0.0918 0.0961-0.0875 0.26117-0.18188 0.3548-0.47281 0.46924-0.97864 0.90616-1.5028 1.3173-0.23111 0.18125-0.53982 0.25415-0.75528 0.4538-1.1875 1.1003-2.3623 2.2206-3.4373 3.4309-0.69216 0.77926-1.3614 1.6003-1.8494 2.5213-0.15122 0.28531-0.10361 0.66284 3e-5 0.96866 0.0875 0.25842 0.48501 0.34973 0.53732 0.61755 0.0643 0.32919-0.24646 0.64597-0.22519 0.98071 0.10083 1.5895 0.46533 3.1538 0.58823 4.7417 0.0734 0.94797 0.0673 1.9041-4.3e-4 2.8525-0.0162 0.22699-0.24878 0.40817-0.24878 0.63574s0.23099 0.40888 0.24878 0.63571c0.0661 0.84284 0.0661 1.6934 0 2.5363-0.0178 0.22687-0.23794 0.40842-0.24878 0.63574-6e-3 0.12314 0.20377 0.18533 0.20377 0.30863 0 0.22494-0.20377 0.41836-0.20377 0.64328 0 0.12329 0.16657 0.1911 0.20377 0.30862 0.0337 0.10635 0.0293 0.22702-9e-5 0.33462-0.0596 0.2186-0.22348 0.4039-0.2623 0.62714-0.0367 0.21121-0.0125 0.43436 0.0417 0.64176 0.0313 0.1199 0.20675 0.18508 0.20675 0.30902 0 0.12393-0.19043 0.18615-0.20678 0.30902-0.0701 0.52719-0.0465 1.063-0.0465 1.5948 0 0.21487-9e-3 0.43527 0.0465 0.64288 0.0319 0.11975 0.20346 0.18512 0.20678 0.30899 3e-3 0.12326-0.19266 0.19412-0.18994 0.31738 3e-3 0.12964 0.20654 0.20145 0.20419 0.33109-0.1112 6.125-0.44305 12.245-0.54364 18.37-6e-3 0.33539 0.23252 0.64527 0.22589 0.98065-4e-3 0.22559-0.25759 0.40033-0.25759 0.62595 6e-5 0.33154 0.24365 0.62936 0.25769 0.96057 5e-3 0.1232-0.20105 0.18543-0.2038 0.30866-3e-3 0.12323 0.19324 0.19409 0.18991 0.31732-3e-3 0.1239-0.18725 0.18664-0.20676 0.30902-0.0672 0.42081-0.0465 0.85141-0.0465 1.2776 0 0.21484-0.0119 0.43612 0.0466 0.64282 0.0338 0.1195 0.21823 0.17621 0.22045 0.30041 4e-3 0.22489-0.21069 0.41846-0.20364 0.64328 7e-3 0.2265 0.24378 0.40799 0.24378 0.63462 0 0.22662-0.24378 0.40799-0.24378 0.63461s0.24381 0.40799 0.24381 0.63461c0 0.22663-0.24469 0.40802-0.24381 0.63462 9.2e-4 0.22753 0.23581 0.40853 0.24875 0.63571 0.0722 1.2668 0.0165 2.5378 4e-3 3.8066-2e-3 0.21481 0.0119 0.43612-0.0466 0.64282-0.0338 0.11951-0.21827 0.17621-0.22049 0.30041-4e-3 0.22489 0.20373 0.41837 0.2037 0.64332 0 0.12954-0.2102 0.2015-0.20376 0.33093 0.13726 2.7687 0.36203 5.5334 0.6314 8.2924 0.0186 0.19046 0.11213 0.37512 0.22953 0.52624 0.0711 0.0915 0.19146 0.15137 0.3067 0.16379 2.4993 0.26892 4.9992 0.57217 7.5107 0.67737m46.664-2.2663c-0.32467-0.086-0.63812-0.25503-0.97394-0.25796-0.22659-2e-3 -0.40832 0.23095-0.63458 0.24377-0.12308 7e-3 -0.19427-0.19751-0.31729-0.18991-0.22717 0.014-0.40848 0.23834-0.63583 0.24884-1.5841 0.0731-3.1733 0.073-4.7574-3e-5 -0.22726-0.0105-0.40833-0.23795-0.63559-0.24878-0.12311-6e-3 -0.1911 0.16657-0.30862 0.20377-0.10636 0.0337-0.2291 0.0361-0.33463-9e-5 -0.11685-0.0401-0.17654-0.21744-0.30008-0.2175-0.23056-6e-5 -0.42651 0.22995-0.65671 0.21716-1.6901-0.0939-3.3604-0.4303-5.0499-0.53412-0.12921-8e-3 -0.20136 0.20407-0.33078 0.20337-0.12397-6.7e-4 -0.18927-0.17493-0.30905-0.20682-0.20762-0.0552-0.42804-0.045-0.64286-0.0465-1.7977-0.0125-3.597-0.071-5.3932 4e-3 -0.22735 0.01-0.4086 0.23477-0.63571 0.24878-0.12304 8e-3 -0.19403-0.18994-0.31732-0.18994-0.12326 0-0.19403 0.18997-0.31729 0.19-0.12329 0-0.19406-0.19272-0.31732-0.18994-0.12326 3e-3 -0.18552 0.2095-0.30866 0.2038-0.33197-0.0154-0.63052-0.23529-0.9617-0.2627-0.73678-0.061-1.4793-0.0333-2.2179-4.6e-4 -3.9161 0.17401-7.8254 0.50162-11.744 0.62082-0.2262 7e-3 -0.40738-0.23517-0.63352-0.24414-0.12387-5e-3 -0.1893 0.17493-0.30905 0.20679-0.20761 0.0553-0.42801 0.0454-0.64285 0.0465-2.5381 0.0129-5.0774 0.0734-7.6143-4e-3 -0.22748-7e-3 -0.4086-0.2348-0.63574-0.24884-0.12305-8e-3 -0.19431 0.19748-0.31733 0.18991-0.22711-0.014-0.41113-0.21213-0.63574-0.2485-0.21164-0.0342-0.43435-0.0125-0.64178 0.0417-0.11991 0.0313-0.18518 0.21225-0.30899 0.20676-0.22733-0.0101-0.40958-0.22342-0.63574-0.24875-0.52482-0.0588-1.0599-0.0623-1.5843 0-0.22501 0.0267-0.40311 0.22812-0.62708 0.26245-0.14694 0.0225-0.40015 0.0448-0.43466-0.0998-0.14789-0.61996-0.0959-1.2762-0.0451-1.9115 0.0182-0.22684 0.23477-0.4086 0.24881-0.63571 8e-3 -0.12305-0.19266-0.19409-0.18994-0.31735 3e-3 -0.12323 0.1666-0.1911 0.20383-0.30863 0.0337-0.10632 0.0293-0.22699-9e-5 -0.33459-0.0597-0.2186-0.23651-0.40198-0.26261-0.62708-0.049-0.42288-0.0241-0.85586 0.042-1.2764 0.0192-0.12243 0.21231-0.18518 0.20682-0.30899-0.0101-0.22732-0.23395-0.40866-0.24878-0.63574-0.0689-1.0547-0.0689-2.1162 0-3.1709 0.0149-0.22708 0.23477-0.40857 0.24881-0.63571 8e-3 -0.12304-0.19323-0.19409-0.18991-0.31732 3e-3 -0.1239 0.17493-0.18924 0.20679-0.30902 0.0552-0.20764 0.0465-0.42801 0.0465-0.64285 0-0.32047 0.0162-0.646-0.0465-0.96027-0.0242-0.12152-0.20679-0.18506-0.20679-0.30899 0-0.12396 0.17496-0.18927 0.20679-0.30905 0.0552-0.20761 0.0462-0.42804 0.0462-0.64288 0-0.21485 5e-3 -0.43424-0.0463-0.64292-0.0541-0.22055-0.25971-0.40042-0.26557-0.62744-0.0846-3.2774-0.0176-6.557-5e-3 -9.8354 8.5e-4 -0.21484-9e-3 -0.43524 0.0465-0.64288 0.0319-0.11975 0.20621-0.18506 0.20682-0.30899 5.8e-4 -0.12329-0.16659-0.19113-0.20379-0.30866-0.0337-0.10635-0.036-0.22909 1.2e-4 -0.33459 0.0401-0.11685 0.21567-0.17655 0.2175-0.30005 3e-3 -0.22489-0.21161-0.41849-0.20371-0.64325 8e-3 -0.22742 0.23972-0.40836 0.24881-0.63571 0.0759-1.902 0.0171-3.8071 4e-3 -5.7105-1e-3 -0.21482 0.0125-0.43628-0.0466-0.64283-0.0344-0.12008-0.20243-0.17767-0.22348-0.30081-0.0718-0.42001-0.0685-0.85199-0.0466-1.2776 0.15753-3.0648 0.46624-6.1215 0.5845-9.1882 5e-3 -0.12954-0.17694-0.19921-0.21768-0.32226-0.0351-0.1059-0.0365-0.22931 1.5e-4 -0.33469 0.0407-0.11731 0.19971-0.17791 0.22043-0.30038 0.0711-0.42017 0.0748-0.85239 0.0466-1.2776-0.25986-3.9231-0.82398-7.8292-0.91019-11.76-0.0155-0.70596-0.0188-1.7038 0.60785-2.0293 0.98087-0.50949 2.2129-0.0805 3.3159-9e-3 0.22665 0.0148 0.40329 0.22925 0.6275 0.26556 0.41989 0.068 0.85083 0.0692 1.2753 0.0426 2.4318-0.15274 4.8529-0.46319 7.2866-0.58032 0.13413-6e-3 0.21066 0.24194 0.3418 0.2132 0.51062-0.11191 1.2421-0.12418 1.4467-0.6052 0.59009-1.3874 0.5488-2.968 0.71061-4.467 0.3287-3.0453 0.46307-6.1088 0.75994-9.1573 0.077-0.79043 0.32178-1.5618 0.36121-2.355 0.0114-0.22961-0.17462-0.42953-0.21152-0.65643-7e-3 -0.0451 0.0422-0.10123 0.0877-0.10538 0.52872-0.048 1.0631-0.0934 1.592-0.0471 0.64838 0.0568 1.274 0.27566 1.9201 0.35452 1.2482 0.15231 2.5029 0.24859 3.7571 0.33832 2.756 0.19711 5.5115 0.41995 8.2727 0.52212 0.12949 5e-3 0.2016-0.20981 0.331-0.2038 0.22732 0.0106 0.40826 0.24225 0.63577 0.24885 2.6424 0.0768 5.288 0.0768 7.9304 0 0.22751-7e-3 0.40845-0.2381 0.6358-0.24885 0.12924-6e-3 0.20163 0.2125 0.33069 0.20325 1.4769-0.10562 2.9312-0.44574 4.4087-0.5422 0.22888-0.015 0.42548 0.20648 0.65479 0.2116 0.12323 3e-3 0.19424-0.19689 0.31732-0.18991 0.22623 0.0128 0.40799 0.24384 0.63461 0.24384 0.2266 0 0.40799-0.24469 0.63462-0.24381 0.2275 8.9e-4 0.40994 0.21952 0.63559 0.24875 0.31738 0.0412 0.64514 0.0196 0.95919-0.042 0.12165-0.0239 0.18521-0.21164 0.30906-0.20679 0.22644 9e-3 0.40798 0.24381 0.63461 0.24381 0.22662 0 0.40802-0.24381 0.63461-0.24381s0.40799 0.24381 0.63458 0.24381c0.22663 0 0.40824-0.23419 0.63465-0.24381 0.12314-5e-3 0.18539 0.20896 0.30853 0.20377 0.33124-0.014 0.63022-0.2308 0.96069-0.25742 0.14551-0.0117 0.34973 0.015 0.4126 0.14676 0.0533 0.11179-0.19021 0.19529-0.19028 0.31913-9e-5 0.12326 0.19748 0.19427 0.18991 0.31732-0.0139 0.22711-0.21218 0.41116-0.2485 0.63577-0.0342 0.21161-8e-3 0.4332 0.0418 0.64169 0.0524 0.21997 0.26654 0.40033 0.26053 0.62638-9e-3 0.33319-0.27793 0.62063-0.30267 0.95303-0.0785 1.0544-0.0162 2.1147-4e-3 3.172 2e-3 0.21484-0.0119 0.43612 0.0466 0.64285 0.0338 0.11948 0.21823 0.17621 0.22043 0.30038 4e-3 0.22489-0.21073 0.41846-0.20361 0.64325 7e-3 0.22623 0.25741 0.40766 0.24407 0.63358-0.10028 1.7004-0.57193 3.3737-0.5809 5.0771-5e-3 0.96475 0.43744 1.8842 0.53922 2.8436 0.0136 0.12841-0.20239 0.20117-0.20252 0.33035-9e-5 0.1289 0.21854 0.20209 0.20188 0.32992-0.0973 0.74677-0.45844 1.4464-0.53104 2.1959-0.0223 0.23089 0.25357 0.41528 0.25574 0.64724 2e-3 0.2266-0.23105 0.40833-0.24387 0.63459-7e-3 0.1231 0.19003 0.19406 0.19003 0.31735 0 0.12326-0.19332 0.19406-0.19003 0.31732 3e-3 0.1239 0.1908 0.18607 0.20688 0.30896 0.0689 0.52695 0.0911 1.0646 0.042 1.5937-0.0211 0.22662-0.23825 0.40845-0.24887 0.6358-6e-3 0.12937 0.20523 0.20139 0.20371 0.3309-0.0173 1.464-0.21518 2.9212-0.25943 4.3846-0.25632 8.475-0.48893 16.951-0.64222 25.429-0.0593 3.278-0.0748 6.558 5e-3 9.8355 5e-3 0.2275 0.23477 0.4086 0.24878 0.63571 8e-3 0.12304-0.19327 0.19412-0.18997 0.31735 3e-3 0.1239 0.17496 0.18924 0.20685 0.30899 0.0553 0.20764 0.0443 0.42804 0.0465 0.64285 0.0118 1.1631 0.067 2.3284-5e-3 3.4894-0.0207 0.33603-0.28327 0.63666-0.27069 0.97309 0.0788 2.1105 0.43493 4.2033 0.54278 6.3125 7e-3 0.12908-0.19372 0.20132-0.20318 0.33023-7e-3 0.0986 0.21704 0.16821 0.16055 0.24936m-154.21 0.46789c1.5649-0.25793 3.1412-0.45428 4.6946-0.77374 2.3308-0.47934 4.6717-0.94168 6.9522-1.6214 1.2929-0.38541 2.5648-0.88895 3.7331-1.5637 0.33728-0.19479 0.47575-0.62222 0.65257-0.96927 0.47311-0.92859 0.89423-1.8838 1.2919-2.8472 0.71408-1.73 1.3126-3.5066 2.0422-5.23 0.43645-1.0311 1.0458-1.9854 1.4534-3.0283 0.3892-0.99573 0.68726-2.0283 0.92988-3.0695 0.63336-2.7183 1.071-5.4796 1.6959-8.1999 1.4856-6.4673 3.1854-12.885 4.6347-19.36 0.57706-2.5781 0.92563-5.2025 1.4428-7.7933 0.18313-0.91748 0.52411-1.8026 0.6575-2.7286 0.0185-0.12814-0.18947-0.1951-0.21806-0.32135-0.0488-0.21524-0.0566-0.44751-5e-3 -0.66205 0.12865-0.53353 0.44542-1.0149 0.53951-1.5556 0.0228-0.13107-0.21836-0.20685-0.20972-0.33963 0.0181-0.27722 0.222-0.51285 0.28284-0.7839 0.22375-0.99695 0.60971-1.991 0.56912-3.012-0.0378-0.95077-0.43918-1.8595-0.79779-2.7409-0.23555-0.57889-0.59372-1.1055-0.97023-1.6043-0.2789-0.36948-0.612-0.7038-0.98201-0.982-0.91486-0.6878-1.8701-1.325-2.8572-1.9044-1.5776-0.92608-3.1699-1.8371-4.8291-2.6075-2.8852-1.3397-5.8056-2.615-8.79-3.7162-1.4213-0.52444-2.9431-0.72418-4.3971-1.1496-0.94908-0.27774-1.8402-0.75345-2.8075-0.95871-0.2229-0.0473-0.41946 0.19455-0.64516 0.2261-0.42129 0.0589-0.856 0.11322-1.2755 0.0425-0.65085-0.1098-1.2426-0.47137-1.8941-0.57715-0.13288-0.0216-0.20819 0.22269-0.34253 0.21399-1.5824-0.10254-3.1434-0.4451-4.7261-0.54236-0.22891-0.0141-0.4254 0.20652-0.65469 0.21164-0.12323 3e-3 -0.19411-0.1932-0.31734-0.18991-0.12389 3e-3 -0.18791 0.18061-0.30907 0.20667-0.21217 0.0457-0.43944 0.0479-0.65112 0-0.12706-0.0288-0.19252-0.22608-0.32266-0.22049-2.785 0.11993-5.5648 0.34912-8.3417 0.59354-0.60573 0.0533-1.1915 0.29153-1.7995 0.29904-0.33534 4e-3 -0.63946-0.3176-0.97066-0.26474-3.5442 0.56576-7.048 1.3628-10.559 2.1053-0.81372 0.17206-1.6193 0.38675-2.4123 0.6377-0.51889 0.16421-1.0367 0.34826-1.5163 0.60553-0.40822 0.21896-0.72794 0.57803-1.1274 0.81256-0.86827 0.50973-1.8192 0.87451-2.6682 1.4158-0.89253 0.56903-1.7219 1.234-2.5405 1.905-0.35523 0.2912-0.78629 0.55585-0.97339 0.97534-0.43067 0.96542-0.65436 2.0187-0.82736 3.0616-0.0375 0.22613 0.20848 0.42532 0.21087 0.65451 1e-3 0.12847-0.22223 0.20245-0.20062 0.3291 0.0918 0.53756 0.30937 1.0483 0.52153 1.5507 0.10943 0.25915 0.39374 0.44357 0.43799 0.7214 0.28015 1.759 0.4273 3.5393 0.52383 5.3179 7e-3 0.13532-0.2269 0.20899-0.21652 0.34412 0.0975 1.2691 0.43567 2.512 0.53339 3.7811 0.0104 0.13489-0.22802 0.20898-0.21576 0.34372 0.0962 1.0595 0.43653 2.0873 0.53276 3.1468 0.0122 0.13473-0.22887 0.2091-0.21579 0.34375 0.4069 4.1907 0.93939 8.3685 1.4673 12.546 0.0727 0.57532 0.30023 1.1284 0.33403 1.7073 8e-3 0.13455-0.23009 0.20904-0.2143 0.34289 0.38285 3.2458 0.78716 6.4942 1.3994 9.7046 0.51957 2.7247 1.2749 5.4 1.992 8.0795 0.43823 1.6377 0.94894 3.2557 1.4728 4.868 0.73526 2.2629 1.4036 4.5536 2.3039 6.7561 0.0761 0.18615 0.35368 0.23959 0.55479 0.23724 0.23035-3e-3 0.43712-0.35315 0.64376-0.25134 1.3174 0.64917 2.4885 1.562 3.7003 2.3918 0.19254 0.1319 0.29349 0.38428 0.50307 0.48691 1.8366 0.89939 3.6771 1.8106 5.6015 2.5025 1.2993 0.46717 2.6709 0.71308 4.0293 0.96027 2.559 0.4657 5.1208 0.97226 7.7138 1.1767m2.5638-1.2946c-0.10715-0.0628-0.19725-0.19134-0.32141-0.18845-0.1297 3e-3 -0.2028 0.21824-0.33171 0.20362-1.8001-0.20404-3.5676-0.64917-5.3682-0.84961-0.1338-0.0149-0.21059 0.24014-0.34264 0.21387-0.96646-0.19217-1.8665-0.65177-2.8327-0.84528-0.13052-0.0262-0.20935 0.23651-0.33978 0.20987-1.3642-0.27853-2.7031-0.67731-4.0292-1.1019-1.1819-0.37845-2.3698-0.7641-3.4868-1.3046-1.53-0.7403-2.9796-1.6389-4.4295-2.5258-0.20484-0.12528-0.31792-0.36783-0.51805-0.50052-0.46682-0.30945-0.95687-0.58862-1.4685-0.81644-0.16841-0.075-0.39169 0.0182-0.54713-0.0809-0.15651-0.0999-0.24646-0.289-0.3076-0.46429-0.69074-1.981-1.3554-3.9725-1.9418-5.9868-0.72324-2.4844-1.4431-4.9744-1.9856-7.5044-0.84158-3.9242-1.5246-7.8821-2.1638-11.844-0.78418-4.861-1.5138-9.7326-2.1056-14.621-0.0279-0.23041 0.27405-0.41547 0.25734-0.64698-0.29018-4.0219-0.96823-8.0129-1.1727-12.04-0.0192-0.37896 0.13181-0.98364 0.50974-1.0179 0.36758-0.0333 0.3846 0.63364 0.62307 0.91534 0.29955 0.35386 0.59453 0.73145 0.98392 0.98307 0.79019 0.51062 1.6563 0.89685 2.5162 1.2787 1.816 0.80646 3.5961 1.7365 5.5063 2.2839 4.0161 1.1508 8.1242 1.9597 12.218 2.7951 2.2943 0.46823 4.612 0.82691 6.936 1.1137 0.12841 0.0159 0.19638-0.18384 0.32118-0.21802 0.20723-0.0568 0.42808-0.0462 0.64294-0.0462 0.21486 3e-5 0.43424-5e-3 0.64289 0.0463 0.22056 0.0542 0.40066 0.25369 0.62747 0.26556 1.478 0.0775 2.9618 0.0725 4.4401 0 0.22729-0.0111 0.4086-0.23474 0.63571-0.24878 0.12305-8e-3 0.19412 0.19324 0.31734 0.18991 0.1239-3e-3 0.18922-0.17499 0.30902-0.20682 0.20764-0.0552 0.42804-0.0462 0.6429-0.0462 0.21482 3e-5 0.4342-5e-3 0.64286 0.0463 0.22057 0.0541 0.40082 0.25091 0.62749 0.26556 1.1599 0.075 2.3279 0.0858 3.4871 4.3e-4 3.007-0.22153 6.0054-0.55734 8.9986-0.92029 1.1674-0.14157 2.3282-0.3443 3.4776-0.59256 0.69198-0.14944 1.3712-0.35996 2.0378-0.5986 0.7271-0.26032 1.4383-0.56598 2.1366-0.89594 0.88886-0.42001 1.7678-0.86392 2.6211-1.3522 0.3978-0.22766 0.72655-0.56387 1.1245-0.79126 0.34622-0.19785 0.7503-0.28034 1.0966-0.47797 0.68614-0.39151 1.3056-0.89282 1.9918-1.2843 0.0397-0.0227 0.0987 0.0426 0.10542 0.0878 0.032 0.21445 0.0493 0.43826 5e-3 0.65042-0.0255 0.12125-0.20662 0.18515-0.20662 0.30908 0 0.12394 0.18019 0.18802 0.20667 0.30912 0.0472 0.21579 0.0425 0.44479 6e-3 0.66262-0.55751 3.3125-1.1134 6.6266-1.7866 9.9176-0.34419 1.6828-0.79999 3.3417-1.2637 4.9956-0.1788 0.63773-0.52919 1.2246-0.66215 1.8734-0.0266 0.13 0.23415 0.20871 0.20877 0.33895-0.15956 0.819-0.5349 1.5825-0.74069 2.3912-0.75995 2.9859-1.4822 5.9818-2.1556 8.9884-0.73604 3.2862-1.0994 6.664-2.0723 9.888-1.2943 4.2887-3.0759 8.4157-4.7103 12.587-0.29753 0.75928-0.57992 1.5515-1.0817 2.1943-0.27893 0.35736-0.74966 0.52429-1.1709 0.69165-1.2442 0.49426-2.5152 0.92679-3.8051 1.2852-1.7395 0.4833-3.4925 0.93798-5.273 1.2371-2.3163 0.38909-4.6556 0.64849-6.9978 0.82421-0.33445 0.0251-0.64522-0.21914-0.98055-0.22552m19.999-24.523c0.39433-0.17187 0.80365-0.3128 1.183-0.51565 0.32829-0.17551 0.66885-0.3519 0.93209-0.61511 0.38637-0.38636 0.6778-0.85804 0.98975-1.3066 0.1855-0.26676 0.36478-0.5412 0.50053-0.8364 0.0472-0.10254 0.0395-0.22351 0.0388-0.33636-1e-3 -0.21439 0.0714-0.46161-0.0451-0.64157-0.0808-0.12479-0.32275-0.19742-0.43471-0.0996-0.64495 0.56338-1.0343 1.3806-1.6782 1.9452-0.4209 0.36917-0.9418 0.62552-1.4687 0.81472-0.15694 0.0563-0.34332-0.0285-0.48743-0.1123-0.16458-0.0957-0.3065-0.24084-0.40245-0.4053-0.21358-0.36606-0.4667-0.7421-0.51283-1.1634-0.12804-1.1692-0.15674-2.3627-9.6e-4 -3.5285 0.15085-1.1289 0.22325-2.386 0.91243-3.2929 0.43051-0.56643 1.3457-0.48657 2.0477-0.60211 0.13102-0.0216 0.20973 0.23975 0.339 0.20929 0.31647-0.0745 0.58785-0.28848 0.84447-0.4881 0.20041-0.15588 0.60341-0.32943 0.51016-0.56561-0.15573-0.39447-0.61662-0.64911-1.029-0.74838-0.32618-0.0786-0.63558 0.24679-0.9705 0.26691-0.3558 0.0214-0.77513 0.0699-1.0595-0.14505-0.17563-0.13276-0.077-0.452-6e-3 -0.66047 0.22078-0.64965 0.61556-1.2287 0.86531-1.8677 0.0658-0.1684-0.0313-0.39069 0.0746-0.53726 0.22225-0.30784 0.70241-0.40427 0.85593-0.75153 0.0915-0.20706-0.24641-0.40772-0.24336-0.63409 3e-3 -0.22611 0.21533-0.40485 0.26046-0.62644 0.0433-0.21265 0.079-0.44903-2.1e-4 -0.65109-0.0722-0.18424-0.25018-0.31778-0.41968-0.41989-0.0981-0.0591-0.24456-0.0998-0.34132-0.0385-0.25026 0.15833-0.43758 0.40436-0.6134 0.64267-0.1222 0.16559-0.20098 0.36127-0.27034 0.555-0.27938 0.7803-0.48124 1.5875-0.7743 2.3627-0.29274 0.77438-0.69067 1.5064-0.98132 2.2815-0.0649 0.17301 0.0735 0.44541-0.0798 0.54849-0.75349 0.50678-1.789 0.55463-2.4638 1.1623-0.23828 0.2146-0.12226 0.73666 0.11215 0.9555 0.23411 0.21854 0.64201 0.0856 0.9597 0.0451 0.22632-0.0289 0.41585-0.30317 0.63751-0.24918 0.14466 0.0353 0.14136 0.28589 0.11322 0.43207-0.32211 1.6734-0.65237 3.3518-1.155 4.9801-0.0776 0.25128-0.3265 0.43079-0.55531 0.56043-1.0154 0.57534-2.0631 1.1011-3.1458 1.5368-0.20729 0.0834-0.4583 0.0695-0.67032-1e-3 -0.30826-0.10263-0.57994-0.30102-0.83641-0.50046-0.24864-0.19336-0.5044-0.39938-0.66734-0.66891-0.33794-0.55893-0.60346-1.164-0.81458-1.7821-0.0472-0.13827-4e-3 -0.30203 0.0575-0.4346 0.10633-0.22915 0.18074-0.60586 0.43286-0.62216 0.43202-0.0279 0.78076 0.37988 1.1913 0.5173 0.11262 0.0377 0.24196 0.0328 0.35629 7.7e-4 0.50507-0.1417 1.0207-0.27558 1.4861-0.51755 0.34675-0.1803 0.64174-0.4534 0.91624-0.7316 0.21805-0.22095 0.45513-0.45663 0.54842-0.75271 0.0979-0.31073 0.10312-0.66941-3e-3 -0.97733-0.0835-0.24185-0.32504-0.40106-0.52716-0.55798-0.25665-0.19922-0.51489-0.45352-0.83638-0.50055-0.84567-0.12363-1.7477-0.24976-2.564 3e-3 -0.53007 0.16439-0.82989 0.74173-1.1926 1.1617-0.24564 0.28439-0.45964 0.60126-0.6225 0.93994-0.23119 0.48074-0.47281 0.97461-0.55184 1.5022-0.0948 0.63275-0.17184 1.3151 0.0392 1.919 0.31646 0.90552 0.84861 1.7491 1.4915 2.461 0.37337 0.41349 0.91773 0.69126 1.4621 0.80985 0.73459 0.16003 1.5455 0.24734 2.2555 0 1.1042-0.38468 1.8256-1.8859 2.9935-1.8286 0.74355 0.0365 0.46077 1.4595 0.94843 2.022 0.44615 0.51458 1.1332 0.76077 1.7372 1.0756m-37.668-1.6304c0.67985-0.25641 1.382-0.46009 2.0396-0.76923 0.15276-0.0718 0.28441-0.20621 0.3581-0.35809 0.53341-1.0994 1.1444-2.1839 1.4494-3.3671 0.18793-0.72916 0.13908-1.5188 6.1e-4 -2.259-0.13797-0.73743-0.47067-1.4315-0.81574-2.0976-0.25878-0.49957-0.97279-0.8103-0.98196-1.3729-6e-3 -0.39349 0.65282-0.44342 0.94814-0.70355 0.30423-0.26798 0.76176-0.47846 0.84445-0.87537 0.21753-1.0442 0.12793-2.1405 5e-3 -3.2-0.049-0.42096-0.26173-0.82199-0.51283-1.1634-0.36075-0.49045-0.79006-0.94666-1.2923-1.2908-0.53911-0.36945-1.1421-0.68668-1.7827-0.81629-0.73824-0.14935-1.51-0.075-2.2596-1e-3 -0.98816 0.0968-1.9644 0.29959-2.9346 0.51037-0.79294 0.17224-1.5812 0.37601-2.3493 0.63754-0.0966 0.0329-0.17311 0.13266-0.20113 0.23078-0.0482 0.1687-0.11337 0.38092-0.0149 0.52615 0.17273 0.25489 0.45627 0.43692 0.74324 0.54856 0.20818 0.081 0.45229 0.0507 0.67011 1e-3 1.0571-0.24039 2.0665-0.68161 3.1347-0.8664 0.22585-0.0391 0.42528 0.20984 0.65448 0.21082 0.12393 5.2e-4 0.18613-0.19071 0.30901-0.20679 0.52665-0.069 1.0688-0.12848 1.5929-0.0423 0.52601 0.0865 1.0355 0.29172 1.5012 0.551 0.26458 0.14728 0.47916 0.38727 0.64235 0.64233 0.22838 0.35703 0.43801 0.74625 0.51284 1.1634 0.1049 0.58472 0.47131 1.401 0.0156 1.7821-0.96721 0.8088-2.4229 0.71658-3.5859 1.2036-0.22092 0.0925-0.41139 0.28998-0.5062 0.50992-0.0879 0.20388-0.12846 0.48449-7e-4 0.6661 0.19621 0.27893 0.54796 0.41632 0.85962 0.55478 0.45921 0.20401 0.991 0.22748 1.4342 0.4643 0.26919 0.14383 0.45658 0.40933 0.64715 0.64773 0.23282 0.2912 0.45821 0.59568 0.61669 0.93314 0.22329 0.47555 0.41229 0.97363 0.52012 1.4878 0.0677 0.32288 0.0998 0.67548-5.8e-4 0.98975-0.26185 0.81961-0.67024 1.5869-1.0666 2.3506-0.17047 0.32847-0.26501 0.84519-0.6284 0.91523-1.3591 0.26196-2.7721 0.10827-4.1524 6e-3 -1.1305-0.0836-2.2523-0.29452-3.3541-0.56094-0.59235-0.14325-1.1071-0.54004-1.7041-0.66217-0.2616-0.0535-0.55398 0.0212-0.78633 0.15277-0.24971 0.14139-0.44012 0.38211-0.59027 0.62668-0.0584 0.0951-0.0635 0.24295 0 0.33472 0.22569 0.32647 0.4615 0.69915 0.82497 0.85855 0.79742 0.34976 1.6816 0.46164 2.5384 0.61663 1.3402 0.24241 2.6894 0.44636 4.0454 0.57422 0.52873 0.0499 1.0666 0.0306 1.5927-0.0425 0.12301-0.0171 0.17628-0.21548 0.3004-0.22046m18.187-0.46786c0.88796-0.46481 1.8176-0.85748 2.6639-1.3944 0.25325-0.16065 0.34306-0.8349 0.5961-0.67392 0.47953 0.30511 0.31906 1.1613 0.75085 1.5309 0.24928 0.21338 0.7144 0.14161 0.98334-0.0464 0.20659-0.14441 0.16874-0.49131 0.14467-0.74222-0.0319-0.33264-0.27279-0.62183-0.30736-0.9542-0.055-0.52859-0.12868-1.0906 0.0423-1.5938 0.11357-0.33419 0.48232-0.97204 0.75252-0.74496 0.8569 0.72012 1.1038 1.9532 1.7623 2.8584 0.17488 0.24038 0.49882 0.33047 0.70991 0.53982 0.19384 0.19229 0.24726 0.5358 0.49349 0.65381 0.19172 0.0919 0.5204 0.0672 0.62706-0.11673 0.16208-0.27948 0.12939-0.672 3e-3 -0.96921-0.22034-0.51693-0.7199-0.87081-0.99567-1.3605-0.42232-0.74979-0.63566-1.6092-1.089-2.3408-0.15304-0.24701-0.48579-0.32577-0.69093-0.53162-0.0441-0.0442-0.0354-0.12438-0.024-0.18576 0.0309-0.16641 0.0518-0.3468 0.14879-0.48544 0.17453-0.24939 0.38505-0.48746 0.64402-0.64737 0.56858-0.35107 1.2214-0.54593 1.8077-0.86651 0.0881-0.0482 0.16242-0.13416 0.19561-0.22889 0.0378-0.10785 0.0559-0.24057 5e-3 -0.34283-0.13736-0.27527-0.27432-0.60065-0.5468-0.74347-0.24912-0.13058-0.60565-0.13525-0.84367 0.0146-0.87946 0.55386-1.5547 1.3826-2.3793 2.0151-0.0683 0.0524-0.25048 0.0936-0.25798 8e-3 -0.10154-1.161-0.13834-2.334-0.0471-3.4958 0.10074-1.2831 0.47957-2.5316 0.62077-3.8108 0.018-0.16291-0.0623-0.32929-0.14838-0.46878-0.0722-0.11716-0.1726-0.25858-0.30943-0.27338-0.19197-0.0207-0.51726-0.01-0.55047 0.18033-0.68685 3.9319-0.63775 7.9883-1.555 11.873-0.13626 0.57709-0.95091 0.71976-1.4812 0.98514-0.67816 0.33948-1.3874 0.63297-2.1227 0.81876-0.12408 0.0314-0.20029-0.20529-0.32813-0.19937-0.22637 0.0105-0.40885 0.22427-0.63464 0.24383-0.1637 0.0142-0.3374-0.0513-0.47018-0.1481-0.23253-0.16946-0.528-0.3468-0.59326-0.62701-0.14519-0.62351-0.17505-1.3048 0-1.9206 0.14076-0.49521 0.51515-0.91412 0.90226-1.2535 0.17351-0.1521 0.47435-0.23907 0.67931-0.13308 0.33848 0.17501 0.4198 0.66699 0.74313 0.86859 0.13846 0.0863 0.3348-0.0284 0.47756-0.10749 0.12109-0.067 0.23803-0.17688 0.27639-0.30984 0.061-0.2114 0.0728-0.45123 3e-3 -0.66003-0.10238-0.30835-0.30122-0.57978-0.50042-0.83643-0.15693-0.20212-0.31615-0.44357-0.55799-0.52716-0.30798-0.10642-0.66324-0.0895-0.97748-3e-3 -0.31335 0.0859-0.5798 0.30118-0.83638 0.50052-0.24795 0.19266-0.50743 0.39529-0.66568 0.66647-0.44903 0.7695-0.8715 1.5687-1.1352 2.4197-0.14433 0.4657 0.16963 1.0351-0.0675 1.4611-0.19671 0.35336-0.67598 0.47461-1.0672 0.5773-0.37762 0.0991-0.81209 0.16342-1.1712 0.0103-0.28335-0.12088-0.43693-0.4567-0.54854-0.74381-0.0797-0.20498-0.0435-0.44482 3e-3 -0.65982 0.0262-0.12112 0.20552-0.18515 0.20671-0.30911 1e-3 -0.12848-0.22895-0.2038-0.2006-0.3291 0.1953-0.86283 0.71682-1.6406 0.84455-2.5161 0.029-0.19894-0.22167-0.37844-0.41327-0.43939-0.30739-0.0978-0.64957-0.0532-0.96767 1.9e-4 -0.10065 0.0169-0.19169 0.10678-0.23097 0.20095-0.40717 0.97638-0.53163 2.0834-1.095 2.9788-0.33944 0.53949-0.95308 0.86533-1.5141 1.1679-0.19104 0.10306-0.44911 0.0793-0.6512 0-0.18451-0.0724-0.36832-0.22915-0.42053-0.42035-0.11209-0.41043-0.11806-0.85693-0.0427-1.2756 0.0936-0.52008 0.23977-1.0559 0.54067-1.4903 0.23352-0.33715 0.79013-0.36935 0.99394-0.72528 0.13451-0.23489 0.0457-0.58825-0.11864-0.80331-0.22238-0.29096-0.59932-0.43082-0.93557-0.57587-0.0584-0.0252-0.11396 0.0597-0.16036 0.10309-0.24847 0.2326-0.55826 0.4238-0.72156 0.72241-0.3632 0.66419-0.68859 1.3703-0.82957 2.1141-0.14009 0.73916-0.11934 1.5143 1e-3 2.257 0.052 0.3207 0.3013 0.57971 0.50055 0.83636 0.15691 0.20215 0.312 0.45673 0.55799 0.52716 0.4149 0.11884 0.87927 0.1203 1.2947 3e-3 0.63193-0.1778 1.1203-0.96506 1.7691-0.86533 0.57985 0.0891 0.73309 0.92279 1.1678 1.3167 0.24039 0.21778 0.53064 0.38828 0.83571 0.49857 0.13285 0.048 0.28939 6e-3 0.4215-0.0441 0.58349-0.22104 1.1832-0.42773 1.7093-0.76321 0.22737-0.14496 0.22408-0.62576 0.49327-0.64114 0.24326-0.0139 0.24349 0.43627 0.43399 0.58819 0.42519 0.33902 0.86714 0.69617 1.385 0.86218 0.41097 0.13178 0.86678 0.0529 1.2947-3e-3 0.12289-0.0161 0.1854-0.19754 0.30903-0.20682m-21.426-1.7992c0.12404-0.0643 0.27404-0.0934 0.37212-0.19284 0.17261-0.17508 0.2877-0.39923 0.4175-0.60803 0.15765-0.25367 0.32525-0.50418 0.44406-0.77823 0.0448-0.10318 0.0374-0.22275 0.0387-0.33524 2e-3 -0.17523 0.0568-0.37192-0.0286-0.5249-0.11658-0.20883-0.54781-0.24191-0.53275-0.48059 0.19972-3.1656 0.82775-6.2902 1.159-9.4448 0.0175-0.16694-0.0208-0.35172-0.11583-0.49003-0.16255-0.23657-0.36364-0.47567-0.62669-0.59051-0.1499-0.0655-0.33659 0.0269-0.47873 0.10782-0.15819 0.0901-0.35448 0.20627-0.38707 0.3854-0.60866 3.3458-1.1138 6.712-1.5183 10.089-0.0883 0.73733-0.14636 1.5093 0.0427 2.2274 0.0883 0.33554 0.42992 0.57376 0.73726 0.73478m166.69-1.0036c0.28357-0.17501 0.5991-0.30658 0.85068-0.52505 0.60129-0.52213 1.0943-1.1606 1.6939-1.6846 0.35578-0.31092 0.716-0.65616 1.1622-0.81143 0.19223-0.0669 0.43851 0.0555 0.57444 0.20706 0.51931 0.57898 0.73284 1.419 1.3305 1.9167 0.24805 0.20658 0.7052 0.18436 0.96835-3e-3 0.20868-0.14822 0.20554-0.52469 0.10605-0.76053-0.37805-0.89642-1.6556-1.5539-1.4862-2.5119 0.16134-0.91199 1.5056-1.0807 2.2249-1.6642 0.30203-0.24503 0.51682-0.59058 0.83328-0.81665 0.42981-0.30707 0.95111-0.4686 1.3858-0.76871 0.42413-0.29282 0.90335-0.56531 1.178-1.0014 0.12118-0.19235-0.0299-0.46392-0.12479-0.67056-0.0577-0.12576-0.17691-0.238-0.30991-0.27624-0.20861-0.0599-0.45651-0.096-0.65121 0-0.29736 0.14651-0.45322 0.49154-0.72669 0.67895-0.43588 0.29877-0.95889 0.45835-1.3863 0.76917-0.74051 0.53857-1.3775 1.2085-2.1022 1.7681-0.24307 0.18769-0.54736 0.6514-0.79361 0.4679-0.5574-0.41541-0.64358-1.2346-1.0198-1.8192-0.30234-0.46988-0.65894-0.90311-1.011-1.337-0.067-0.0826-0.13696-0.1929-0.24231-0.20758-0.16159-0.0225-0.33475 0.0285-0.47751 0.10748-0.12109 0.067-0.23807 0.17688-0.27646 0.30988-0.061 0.21139-0.0975 0.46112-3e-3 0.66003 0.41571 0.87955 1.115 1.6103 1.4991 2.5042 0.12848 0.29911 0.16443 0.69785-4e-3 0.97666-0.22552 0.37414-0.73538 0.47992-1.0544 0.77841-0.9216 0.86237-1.8736 1.7078-2.6587 2.6961-0.13501 0.16998-0.0989 0.45797 0 0.65118m-32.898 0.45575c0.15939-0.0482 0.33648-0.0571 0.47815-0.14462 0.15747-0.0973 0.32971-0.21878 0.39224-0.39298 0.24722-0.68902 0.42676-1.4082 0.51477-2.135 0.0162-0.13394-0.22644-0.20871-0.21475-0.34314 0.20269-2.3265 0.64883-4.6276 0.85052-6.9542 0.0112-0.12958-0.19076-0.19562-0.21979-0.32239-0.0493-0.21533-0.045-0.44525-6e-3 -0.66266 0.25784-1.4278 0.48041-2.8694 0.89468-4.26 0.0941-0.31573 0.4418-0.49496 0.60678-0.78012 0.0565-0.0976 0.0394-0.22339 0.039-0.33618-7.3e-4 -0.21417 0.0633-0.4548-0.0423-0.64114-0.17108-0.30188-0.42896-0.57578-0.7374-0.7348-0.14538-0.075-0.34436 0.0145-0.47867 0.10778-0.28018 0.19455-0.58136 0.41465-0.72143 0.72562-0.31378 0.6965-0.47226 1.4585-0.60166 2.2114-0.35626 2.0732-0.6503 4.1589-0.8529 6.2527-0.013 0.13431 0.22833 0.20892 0.21463 0.34314-0.21646 2.1218-0.65842 4.2159-0.89603 6.3355-0.0474 0.42273-0.0696 0.86514 0.0428 1.2754 0.0525 0.19153 0.25277 0.31641 0.42169 0.42087m-51.311-0.0425c0.39108-0.17874 0.82646-0.28205 1.1733-0.53629 0.4155-0.30459 0.83794-0.65344 1.0741-1.1113 0.1494-0.28955 0.0944-0.66461 3e-3 -0.97747-0.12096-0.4162-0.29054-0.86115-0.61975-1.1431-0.48227-0.41293-1.0994-0.659-1.7055-0.84802-0.12717-0.0397-0.21149 0.24539-0.33992 0.21008-1.1685-0.32132-2.2613-0.87692-3.4166-1.243-0.72287-0.2291-1.4901-0.30142-2.2099-0.53992-0.16-0.053-0.22458-0.29077-0.39032-0.32156-0.12133-0.0225-0.19668 0.21402-0.31773 0.19003-0.17163-0.034-0.24316-0.268-0.40546-0.33337-1.2971-0.52249-2.6559-0.88388-3.9474-1.42-0.17526-0.0728-0.38865-0.2026-0.41416-0.39068-0.0189-0.13892 0.18948-0.30319 0.32493-0.26706 0.26222 0.0699 0.38699 0.39203 0.62593 0.52072 0.098 0.0528 0.2641 0.083 0.33399-4e-3 0.0698-0.0866-0.17505-0.29776-0.0677-0.32663 1.0499-0.28223 2.135-0.44669 3.2196-0.52063 0.23147-0.0158 0.41507 0.26867 0.64677 0.25708 1.907-0.0956 3.7934-0.45758 5.6991-0.57501 0.12922-8e-3 0.20138 0.2008 0.33079 0.20349 0.12329 3e-3 0.19406-0.18991 0.31737-0.19001 0.12303-9e-5 0.1938 0.1836 0.3167 0.18955 0.1 5e-3 0.1568-0.18985 0.25287-0.16184 0.21189 0.0618 0.33485 0.29657 0.53422 0.39127 0.12659 0.0601 0.28731 0.11545 0.41608 0.0602 0.26635-0.11438 0.40336-0.47235 0.68666-0.53369 0.22601-0.0489 0.41801 0.24521 0.64926 0.24445 0.22755-7.7e-4 0.40884-0.23096 0.6357-0.24875 0.84283-0.0661 1.6934-0.0661 2.5363 0 0.22687 0.0178 0.40845 0.23813 0.63576 0.24881 0.12927 6e-3 0.20177-0.2139 0.33076-0.20334 2.537 0.20737 5.0515 0.6474 7.5888 0.85065 0.13466 0.0108 0.20904-0.22895 0.34341-0.21518 1.0654 0.10907 2.0939 0.48507 3.1611 0.574 0.23111 0.0193 0.41641-0.28458 0.64661-0.25668 2.332 0.28247 4.6227 0.84451 6.9481 1.1766 0.59956 0.0856 1.2238-0.0546 1.8154 0.075 0.23815 0.0522 0.35066 0.35914 0.57719 0.44925 0.2525 0.10044 0.53819 0.12653 0.80882 0.10199 0.12287-0.0111 0.18659-0.21627 0.30927-0.20327 0.10078 0.0107 0.0723 0.21875 0.16743 0.25381 0.97594 0.35971 1.9632 0.71564 2.9853 0.90814 0.22393 0.0422 0.41786-0.22067 0.64569-0.2243 0.22489-4e-3 0.41837 0.20438 0.64331 0.20364 0.12394-4.2e-4 0.18869-0.17694 0.30899-0.20681 0.27414-0.068 0.61417 0.0855 0.84363-0.0792 0.31159-0.22366 0.38321-0.66736 0.61844-0.9703 0.14584-0.18784 0.41419-0.27735 0.51685-0.49189 0.0429-0.0897-0.16928-0.15197-0.16132-0.25119 0.01-0.12326 0.17511-0.18869 0.20633-0.30835 0.0542-0.20743 0.076-0.43014 0.0417-0.64175-0.0364-0.22461-0.2345-0.40866-0.24848-0.63577-8e-3 -0.12333 0.25476-0.21332 0.18976-0.31839-0.28305-0.45774-0.59064-1.0343-1.1111-1.1714-1.7219-0.4538-3.5383-0.42584-5.3164-0.52249-0.13473-7e-3 -0.2095 0.23379-0.34309 0.21484-0.64443-0.0914-1.2349-0.43869-1.8793-0.53-0.12817-0.0182-0.19511 0.18942-0.32138 0.21808-0.21529 0.0489-0.44521 0.0452-0.66231 5e-3 -1.9012-0.35089-3.7704-0.87018-5.6794-1.1757-0.12714-0.0204-0.19844 0.17462-0.32051 0.21548-0.10965 0.0367-0.23222 0.0234-0.34685 8e-3 -1.9988-0.27109-3.9815-0.66895-5.9888-0.86722-0.22815-0.0225-0.42539 0.20605-0.65457 0.21103-0.12325 3e-3 -0.19404-0.18994-0.31731-0.18994-0.12329 0-0.19409 0.19326-0.31732 0.18994-0.12392-3e-3 -0.18912-0.17548-0.30904-0.20682-0.20738-0.0542-0.43036-0.0773-0.64175-0.0417-0.22924 0.0387-0.41677 0.28727-0.64756 0.25913-0.54594-0.0665-1.0172-0.46079-1.563-0.52851-0.22979-0.0285-0.4148 0.25257-0.64635 0.25449-0.22659 2e-3 -0.40822-0.23419-0.63461-0.2438-0.12317-5e-3 -0.19115 0.16656-0.30867 0.20379-0.10634 0.0336-0.22702 0.0292-0.33463-1.5e-4 -0.21857-0.0597-0.40121-0.24381-0.62706-0.26257-0.8425-0.0699-1.6934-0.0661-2.5363 0-0.22684 0.0178-0.40857 0.23477-0.6357 0.24881-0.12302 8e-3 -0.19406-0.19266-0.31731-0.18991-0.12327 3e-3 -0.18538 0.20553-0.30867 0.20382-0.23059-3e-3 -0.42642-0.22803-0.65677-0.21722-4.3422 0.20318-8.6669 0.75546-13.013 0.85687-0.32327 8e-3 0.56908-0.3298 0.78385-0.57156 0.0844-0.0951-0.0348-0.29074 0.0587-0.37699 0.681-0.62829 1.4123-1.21 2.1964-1.7037 0.11525-0.0725 0.27895 0.12332 0.40302 0.0672 0.19311-0.0873 0.25157-0.37076 0.4474-0.45188 0.0925-0.0383 0.15428 0.14539 0.25302 0.16184 0.0583 0.01 0.11008-0.0511 0.15003-0.0947 0.30157-0.32895 0.51545-0.74646 0.86975-1.0178 0.0785-0.0602 0.15191 0.14447 0.24949 0.16055 0.0583 0.01 0.10183-0.0604 0.15-0.0947 0.23027-0.16379 0.48387-0.30094 0.68506-0.49936 0.20868-0.20581 0.2854-0.54129 0.53146-0.7005 0.55115-0.35663 1.1658-0.62515 1.7968-0.80612 0.12221-0.035 0.21097 0.25058 0.32637 0.19729 0.51027-0.23553 0.87926-0.70929 1.3713-0.98092 0.63977-0.35318 1.3716-0.5217 2.0063-0.88376 0.25937-0.14792 0.4491-0.39701 0.64072-0.62598 0.19923-0.2381 0.43683-0.47116 0.52614-0.76846 0.0366-0.12171-0.20343-0.19934-0.19724-0.32627 0.011-0.22616 0.28002-0.4104 0.24404-0.63394-0.0682-0.42379-0.25646-0.84463-0.53466-1.1715-0.31452-0.36966-0.71914-0.70749-1.1838-0.84796-0.51719-0.15634-1.1134-0.18524-1.621 0-0.7462 0.27234-1.3051 0.90814-1.9864 1.3166-1.212 0.7265-2.4322 1.4427-3.6902 2.0862-0.16068 0.0822-0.38976-0.0298-0.53609 0.0758-0.23895 0.17242-0.30426 0.52273-0.5394 0.70032-1.2609 0.95221-2.6716 1.6967-3.9189 2.6666-0.66126 0.51416-1.1596 1.2114-1.7851 1.7685-0.3949 0.35174-0.83438 0.65094-1.2692 0.95193-0.9411 0.65143-1.8758 1.3155-2.8572 1.9044-0.85861 0.51529-1.797 0.8891-2.6557 1.4041-0.34403 0.20627-0.68099 0.44516-0.93955 0.7518-0.35057 0.41578-0.68831 0.86975-0.86218 1.385-0.13706 0.40613-0.0855 0.8592-0.0389 1.2853 0.0247 0.2262 0.23474 0.4086 0.24881 0.63571 8e-3 0.12339-0.2771 0.23127-0.18968 0.31861 0.0998 0.0997 0.27112-0.096 0.41222-0.0963 0.0592-1.2e-4 0.10821 0.0532 0.15008 0.0951 0.0969 0.0969 0.24654 0.18081 0.26201 0.31701 0.0139 0.12262-0.22609 0.19974-0.18996 0.31769 0.057 0.18601 0.22513 0.46076 0.41341 0.4119 0.16678-0.0433-0.16405-0.44159-9e-3 -0.51685 0.20056-0.0973 0.41095 0.21179 0.63389 0.2135 0.22496 2e-3 0.42997-0.27466 0.64344-0.20367 0.31221 0.10379 0.46823 0.46567 0.73277 0.66125 0.26094 0.19294 0.51704 0.43964 0.83613 0.49869 0.22353 0.0414 0.42-0.18539 0.64391-0.22467 0.2171-0.0381 0.45052-0.0689 0.66126-4e-3 0.35714 0.10962 0.7183 0.26361 0.99647 0.513 0.0711 0.0637-0.13907 0.14566-0.15721 0.23938-8e-3 0.043 0.0508 0.10467 0.0929 0.0928 0.11961-0.0337 0.18892-0.18023 0.31038-0.20645 0.21504-0.0465 0.45651-0.0868 0.65999-3e-3 0.47809 0.19659 0.93855 0.46597 1.3184 0.81659 0.0732 0.0676-0.14133 0.15429-0.16068 0.25201-8e-3 0.0428 0.0498 0.10101 0.0925 0.0925 0.0985-0.0196 0.16135-0.20001 0.25409-0.16162 0.1958 0.0811 0.25043 0.3732 0.4472 0.45184 0.0931 0.0372 0.14818-0.14612 0.24392-0.17563 0.10978-0.0339 0.2371-0.0464 0.34459-6e-3 0.34928 0.13169 0.71827 0.26227 0.99623 0.51142 0.0713 0.0639-0.13863 0.14615-0.15784 0.23993-9e-3 0.0445 0.0423 0.098 0.0872 0.10458 0.21425 0.0317 0.43715 0.0459 0.64973 4e-3 0.0992-0.0193 0.14742-0.20539 0.24495-0.17878 0.21289 0.0581 0.33005 0.30695 0.53395 0.39133 0.0602 0.0249 0.11066-0.1336 0.16713-0.10116 0.10257 0.0589 0.097 0.22345 0.18442 0.30316 0.1582 0.14419 0.34497 0.2572 0.53606 0.35367 0.37713 0.19036 0.74411 0.44821 1.1629 0.5039 0.3314 0.0441 0.64747-0.26434 0.97872-0.21918 0.11567 0.0158-0.15606 0.26282-0.0712 0.34296 0.22331 0.21079 0.55594 0.26132 0.83853 0.38144 0.36698 0.15598 0.71573 0.38522 1.1097 0.44672 0.20287 0.0316 0.38991-0.23349 0.58858-0.18167 0.205 0.0535 0.25026 0.37326 0.44704 0.45178 0.0932 0.0372 0.14841-0.14661 0.24444-0.17581 0.10654-0.0324 0.23581-0.0524 0.33403 3e-5 0.44422 0.23693 0.78569 0.65435 1.2514 0.84564 0.11766 0.0483 0.19928-0.19602 0.32646-0.19748 0.12327-1e-3 0.19405 0.19 0.31734 0.19 0.12326 0 0.19404-0.19263 0.3173-0.18994 0.12306 3e-3 0.18802 0.17621 0.30802 0.20361m82.276-0.35519c0.57235-0.25705 1.162-0.47873 1.7171-0.77115 0.33884-0.1785 0.65808-0.39658 0.95608-0.63711 0.19846-0.16019 0.3953-0.33741 0.52399-0.55765 0.0564-0.0965 0.0722-0.25177-2e-3 -0.33521-0.0995-0.11166-0.27603-0.12951-0.42483-0.14416-0.21616-0.0212-0.44672-0.0368-0.65048 0.0384-0.46836 0.17288-0.86933 0.49551-1.3282 0.69205-0.49011 0.20987-0.98254 0.45495-1.5112 0.52392-0.22446 0.0293-0.40765-0.23309-0.63376-0.24408-0.12701-6e-3 -0.20376 0.23087-0.32648 0.19742-0.3305-0.0901-0.65744-0.26849-0.88235-0.52692-0.28961-0.33279-0.43347-0.77096-0.60193-1.1787-0.20834-0.50427-0.40054-1.0191-0.52548-1.5502-0.0335-0.14252-0.0165-0.30948 0.0584-0.43527 0.12869-0.21616 0.28885-0.45392 0.52408-0.54303 0.15939-0.0604 0.31527 0.15189 0.48553 0.16049 0.63931 0.0323 1.3025 0.12998 1.92-0.0389 0.52213-0.14279 0.94291-0.53775 1.376-0.86252 0.0507-0.038 0.0447-0.12805 0.0257-0.18859-0.1911-0.6095-0.32303-1.254-0.65009-1.8026-0.1589-0.26651-0.4494-0.47925-0.75174-0.54904-0.52353-0.12091-1.1029-0.16873-1.6119 3e-3 -0.46536 0.15725-0.7944 0.58374-1.1446 0.92822-0.26285 0.25851-0.48428 0.55939-0.68335 0.86975-0.30255 0.47174-0.67355 0.92767-0.81701 1.4694-0.13843 0.52298-0.10978 1.0929-2e-3 1.6229 0.14285 0.70105 0.4595 1.3568 0.74292 2.0136 0.12463 0.28882 0.2868 0.56375 0.47717 0.81421 0.16177 0.2128 0.34323 0.42279 0.57034 0.56384 0.36002 0.22357 0.74411 0.45102 1.1634 0.51282m-9.4062-0.37253c0.34131-0.23493 0.73429-0.40848 1.024-0.70477 0.42831-0.43815 0.49026-1.456 1.1028-1.4706 0.65494-0.0156 0.87012 0.98523 1.3675 1.4116 0.25048 0.21472 0.527 0.49765 0.85693 0.4953 0.52911-4e-3 1.0338-0.26673 1.5025-0.51215 0.21945-0.1149 0.43497-0.30487 0.50931-0.54117 0.0759-0.24118 0.0762-0.57272-0.10251-0.75155-0.15356-0.15363-0.43887-0.0465-0.65164-3e-3 -0.22247 0.0456-0.40393 0.2258-0.62759 0.2651-0.21119 0.0371-0.44773 0.0491-0.64179-0.0421-0.22687-0.10651-0.41327-0.30396-0.54678-0.51602-0.22727-0.361-0.52573-0.74485-0.51547-1.1713 8e-3 -0.31418 0.51001-0.44711 0.56182-0.75708 0.0659-0.39416-0.32013-0.78357-0.23886-1.1749 0.18842-0.90683 0.74332-1.7007 1.0199-2.5847 0.64728-2.0686 1.2414-4.1557 1.7486-6.263 0.0764-0.31757 0.12191-0.67908-5e-3 -0.97983-0.17865-0.42181-0.45645-0.85797-0.86264-1.0698-0.34317-0.17896-0.78048-0.0561-1.161 0.0145-0.19421 0.036-0.39743 0.13608-0.51333 0.29602-0.40415 0.55784-0.72489 1.1761-1.0082 1.804-0.24622 0.54568-0.43817 1.1187-0.57355 1.7019-0.1601 0.68976-0.23349 1.3976-0.30933 2.1017-0.23645 2.195-0.32077 4.407-0.62732 6.5934-0.0548 0.39057-0.27053 0.74307-0.45059 1.0939-0.22052 0.42977-0.32458 1.0083-0.74768 1.2414-0.43252 0.23834-1.0042 0.1135-1.4816-0.0129-0.24737-0.0655-0.40109-0.32507-0.55801-0.52722-0.19922-0.25662-0.36478-0.54117-0.50055-0.83633-0.0471-0.10254-0.0388-0.22352-0.0388-0.3364 0-0.21698-0.0336-0.44528 0.0389-0.64984 0.22055-0.62241 0.49164-1.2315 0.82895-1.7993 0.12805-0.21551 0.30551-0.4483 0.54682-0.51629 0.41253-0.11627 0.86117-0.058 1.2859-2.2e-4 0.224 0.0305 0.40165 0.23453 0.62625 0.26038 0.14771 0.017 0.40345 8e-3 0.42368-0.1395 0.0405-0.29477-0.10239-0.61255-0.28839-0.84478-0.28775-0.35935-0.64624-0.70469-1.0787-0.86243-0.40271-0.14685-0.87417-0.11905-1.286 0-0.32931 0.0952-0.60067 0.3537-0.8273 0.6109-0.38046 0.43179-0.71206 0.91382-0.96963 1.4284-0.24411 0.4877-0.4332 1.0126-0.52152 1.5508-0.0208 0.1268 0.2143 0.19186 0.21445 0.32037 2.8e-4 0.22937-0.27881 0.43439-0.21329 0.65421 0.25635 0.85983 0.61914 1.7068 1.1358 2.4403 0.27652 0.39255 0.71347 0.69608 1.1726 0.83683m-6.2375-0.0577c0.25995-0.15247 0.69616-0.16785 0.77987-0.45737 0.37555-1.2985 0.37805-2.6776 0.51569-4.0223 0.0336-0.32797 0.0848-0.6712-3e-3 -0.98904-0.0864-0.3132-0.3013-0.57971-0.50055-0.83637-0.19214-0.24749-0.4155-0.4747-0.66467-0.66464-0.26239-0.20001-0.52701-0.49777-0.8569-0.49527-0.52964 4e-3 -1.0232 0.29038-1.5037 0.51316-0.33822 0.15683-0.65179 0.37204-0.93313 0.61666-0.56379 0.49021-0.9552 1.9702-1.5913 1.5783-0.8396-0.51712-0.23743-1.9732-0.56168-2.9044-0.0555-0.15918-0.32278-0.11941-0.49136-0.11962-0.0657-1e-4 -0.13648 0.0565-0.15735 0.1188-0.2435 0.72659-0.54886 1.45-0.62393 2.2126-0.13462 1.3673-0.0455 2.7486 3.9e-4 4.1218 6e-3 0.16495 0.0661 0.3306 0.15302 0.47092 0.0729 0.11761 0.1756 0.24274 0.30984 0.27631 0.2739 0.0685 0.66568 0.2294 0.84693 0.0129 0.87424-1.0444 1.2458-2.441 2.0842-3.5144 0.48181-0.61694 1.1474-1.0836 1.8198-1.4843 0.18909-0.11271 0.46649-0.0983 0.66037 6e-3 0.13239 0.0712 0.1355 0.2771 0.14487 0.42718 0.0394 0.63263 0.0681 1.2714 1.8e-4 1.9016-0.0358 0.33225-0.26779 0.62235-0.30771 0.95414-0.0636 0.52945-0.155 1.0898 8e-4 1.5998 0.0943 0.30862 0.43844 0.47796 0.69406 0.67495m-109.04-1.5302c-0.22475 1e-3 -0.46309 0.081-0.67419 4e-3 -0.26552-0.0969-0.74482-0.22391-0.68479-0.50015 0.10034-0.46189 0.58744-0.7833 1.0098-0.99558 0.29103-0.1463 0.66512-0.0965 0.97722-3e-3 0.27051 0.0809 0.62781 0.22311 0.68382 0.49988 0.0458 0.2265-0.29773 0.35879-0.48185 0.4985m125.77-3.9475c-0.16345-0.0358-0.34481-0.0248-0.49035-0.10742-0.11957-0.0678-0.3158-0.19287-0.26129-0.31909 0.13714-0.31754 0.41711-0.58133 0.72131-0.74601 0.19104-0.10342 0.48361-0.13497 0.6517 3e-3 0.1644 0.13467 0.21646 0.43909 0.11679 0.62677m-90.149-1.1442c-0.13855-0.0379-0.27203-0.11142-0.41565-0.1138-0.0461-7.6e-4 -0.12837 0.0808-0.0894 0.10547 0.12279 0.0776 0.27762 0.10288 0.42284 0.10529m83.133-2.2347c-0.0521-0.13562-0.15487-0.26157-0.1564-0.40683-1e-3 -0.14704 8.5e-4 -0.41437 0.14792-0.41562 0.14627-1e-3 0.14676 0.26678 0.14825 0.41309m0.10459-0.59055c-0.0172-0.54968-0.17508-1.1131-0.0516-1.649 0.13657-0.59298 0.38938-1.1955 0.80835-1.6367 0.16647-0.17535 0.11356 0.48728 0.0593 0.72287m-124.8-10.068c-0.11128-0.0673-0.20399-0.2082-0.33384-0.20176-0.22788 0.0113-0.40973 0.23203-0.63718 0.24994-0.8428 0.0664-1.6938 0.0707-2.5362 0-0.22632-0.019-0.40335-0.22885-0.62749-0.26556-0.42051-0.0689-0.85141-0.0466-1.2775-0.0466-0.21484 0-0.4342-5e-3 -0.64285 0.0466-0.22055 0.0542-0.40058 0.25464-0.62744 0.26556-1.3797 0.0663-2.771 0.11728-4.1438-0.0361-3.2228-0.35998-6.4218-0.91998-9.6123-1.5004-1.1053-0.20108-2.1656-0.6033-3.2634-0.84204-1.3396-0.29129-2.7099-0.43274-4.0442-0.74716-0.60897-0.14349-1.1565-0.50284-1.7706-0.62295-0.1307-0.0256-0.20922 0.23577-0.3399 0.21005-0.80338-0.1583-1.5787-0.44428-2.3428-0.73862-1.3206-0.50867-2.6328-1.0462-3.9042-1.6677-0.20962-0.10248-0.31177-0.35315-0.50302-0.48685-0.86569-0.60516-1.8096-1.0957-2.659-1.7236-0.14203-0.10498-0.1555-0.32477-0.28051-0.44956-0.54647-0.54538-1.176-1.0031-1.722-1.549-0.094-0.094-0.0877-0.26101-0.1819-0.35479-0.2821-0.28104-0.63031-0.48768-0.92862-0.75144-0.10237-0.0905-0.22691-0.17877-0.27005-0.30841-0.0678-0.20389-0.0465-0.4281-0.0465-0.64297-3e-5 -0.21485-0.0127-0.43631 0.0463-0.64289 0.0343-0.12008 0.2025-0.17764 0.22345-0.30078 0.0828-0.48648-0.19972-1.0713 0.0793-1.4783 0.4558-0.66477 1.3209-0.92847 1.9316-1.4545 0.1349-0.11621 0.14454-0.341 0.28283-0.45319 0.46195-0.37481 0.95459-0.72235 1.4887-0.98422 1.2134-0.59491 2.4626-1.1214 3.7348-1.5769 1.5521-0.55567 3.1621-0.93582 4.7275-1.4527 0.3153-0.1041 0.58586-0.33044 0.9087-0.40814 1.5836-0.3812 3.1818-0.70835 4.7904-0.96369 2.3283-0.36959 4.6684-0.67077 7.0137-0.91009 0.63027-0.0643 1.2701-0.0615 1.9006 4e-4 0.22646 0.0222 0.40844 0.23794 0.63573 0.24877 0.12314 6e-3 0.19112-0.16656 0.30866-0.20376 0.10632-0.0337 0.22908-0.0361 0.33458 9e-5 0.11685 0.0401 0.17662 0.22189 0.30004 0.21747 0.33208-0.0119 0.62978-0.24643 0.96168-0.26257 1.4783-0.0718 2.9618-0.0725 4.4401 0 0.2273 0.0111 0.40842 0.23867 0.63575 0.24877 0.1238 6e-3 0.18658-0.18753 0.309-0.20678 0.4202-0.0661 0.85425-0.10205 1.2754-0.0424 1.595 0.22592 3.1524 0.68167 4.7491 0.89569 0.13321 0.0179 0.21097-0.24207 0.34224-0.2132 2.218 0.48795 4.4075 1.1019 6.5877 1.7378 1.5686 0.45749 3.1216 0.97207 4.6534 1.5408 1.6355 0.60724 3.2617 1.2476 4.8428 1.985 0.42182 0.19672 0.73168 0.58313 1.1406 0.80549 0.75367 0.40985 1.5728 0.68872 2.3342 1.0841 0.54793 0.28455 1.0801 0.60227 1.5883 0.95291 0.19765 0.13636 0.31829 0.36731 0.51807 0.50052 0.43951 0.293 0.96101 0.45468 1.3858 0.76871 0.37286 0.27563 0.68678 0.62732 0.98407 0.98318 0.24092 0.2884 0.44394 0.60926 0.62248 0.93995 0.20155 0.37326 0.43721 0.74707 0.51369 1.1643 0.097 0.52902 0.2019 1.1168-4e-3 1.6135-0.213 0.51248-0.70704 0.87445-1.1618 1.1926-1.6355 1.1444-3.32 2.2285-5.0783 3.1736-1.3925 0.7485-2.8419 1.4142-4.3484 1.8934-1.4834 0.47189-3.0424 0.66312-4.5734 0.94464-1.1078 0.2037-2.2179 0.41644-3.3403 0.51059-0.12877 0.0108-0.20121-0.20355-0.33044-0.20276-0.12396 7.9e-4 -0.18796 0.18063-0.30914 0.2067-0.21219 0.0457-0.43941 0.0478-0.65111 0-0.12685-0.0286-0.19264-0.22956-0.32231-0.21973m98.08-6.7665c-0.11136-0.0674-0.20386-0.20285-0.33404-0.20233-0.12391 4.9e-4 -0.19199 0.16742-0.31009 0.20492-0.10633 0.0338-0.22913 0.036-0.33466-1.2e-4 -0.11682-0.0401-0.1832-0.1774-0.30002-0.21747-0.1055-0.0362-0.2287-0.0351-0.33462-1.2e-4 -0.12293 0.0406-0.19284 0.22534-0.32205 0.21717-1.5032-0.0951-4.0148 0.90826-4.4884-0.52158-0.48059-1.4509 2.1195-2.2052 3.2415-3.243 0.24493-0.2266 0.59723-0.31324 0.84478-0.53693 0.86625-0.78281 1.63-1.6732 2.483-2.4704 0.0971-0.0908 0.26101-0.0878 0.35479-0.18191 0.22586-0.22669 0.36454-0.52924 0.58493-0.76123 0.96054-1.0109 2.021-1.9259 2.9535-2.9627 0.5618-0.62463 0.94559-1.3972 1.5196-2.0107 0.61886-0.66132 1.1836-1.5014 2.0407-1.794 0.33319-0.11377 0.1813 0.69422 0.15265 1.0451-0.23401 2.8644-0.72635 5.7044-0.93811 8.5705-0.0171 0.23139 0.27206 0.41529 0.25708 0.64682-0.0743 1.1472-0.27485 2.2862-0.51972 3.4094-0.0288 0.13223-0.15198 0.2713-0.28628 0.28787"/></svg>
