<?xml version="1.0" encoding="UTF-8"?>
<!-- Created with Inkscape (http://www.inkscape.org/) -->
<svg width="71.201" height="101.17" version="1.1" viewBox="0 0 71.201 101.17" xml:space="preserve" xmlns="http://www.w3.org/2000/svg"><path d="m32.248 1.9779e-7c-1.2412 2.4e-4 -1.9522 1.5331-2.957 2.2617-0.97382 0.70611-2.0231 1.3077-2.9766 2.041-0.42683 0.32831-0.70235 0.83411-1.1504 1.1328-2.4173 1.6115-5.0083 2.9552-7.418 4.5781-0.82051 0.55264-1.556 1.2286-2.25 1.9336-0.23051 0.23416-0.50233 0.52505-0.49414 0.85352 9e-3 0.3591 0.40015 0.60233 0.53906 0.93359 0.0458 0.10929 0.0188 0.23819 2e-3 0.35547-0.26744 1.8626-0.50039 3.7322-0.85547 5.5801-0.23927 1.2452-0.50498 2.4853-0.76562 3.7266-0.35272 4e-3 -0.7049 0.0216-1.0527 0.0762-1.0854 0.17004-2.1338 0.53119-3.1816 0.86133-0.50612 0.15945-1.0056 0.35354-1.4726 0.60547-0.40962 0.22097-0.73376 0.57863-1.1406 0.80468-0.54912 0.30505-1.1595 0.4877-1.7148 0.78125-0.3323 0.17566-0.64394 0.39075-0.93946 0.62305-0.71941 0.56543-1.3773 1.2039-2.0996 1.7656-0.23185 0.18032-0.52548 0.27288-0.75586 0.45507-0.24881 0.19675-0.54502 0.38312-0.67188 0.67383-0.37954 0.86972-0.61587 1.8002-0.8125 2.7285-0.0889 0.41986-0.10777 0.86383-0.0371 1.2871 0.10478 0.62738 0.29989 1.2423 0.55664 1.8242 0.0869 0.19702 0.42051 0.2478 0.45117 0.46093 0.31445 2.1859 0.47114 4.3952 0.56446 6.6016 0.01 0.23184-0.27849 0.41534-0.25782 0.64648 0.57829 6.4656 1.2821 12.921 2.0469 19.367 0.45222 3.8114 0.95223 7.6198 1.6035 11.402 0.31481 1.8283 0.81924 3.6203 1.293 5.4141 0.58123 2.2008 1.1952 4.3928 1.8711 6.5664 0.69583 2.2376 1.4264 4.4673 2.2422 6.6641 0.11882 0.31994 0.27004 0.67013 0.55274 0.86133 0.18284 0.12365 0.44633 0.0137 0.66016-0.041 0.12015-0.0308 0.20393-0.27037 0.31054-0.20704 1.4642 0.86969 2.7171 2.0749 4.2109 2.8926 1.8067 0.98895 3.7438 1.72 5.6484 2.5039 0.45996 0.18927 0.95089 0.29833 1.4355 0.41016 1.4107 0.32555 2.8218 0.65335 4.248 0.90234 1.8977 0.3313 3.7961 0.71856 5.7188 0.83789l7.2891-0.0312c1.6256-0.28708 3.259-0.53442 4.877-0.86133 1.9004-0.384 3.8039-0.76435 5.6758-1.2695 0.82108-0.22159 1.6034-0.57055 2.3848-0.90625 0.459-0.1972 0.85897-0.52522 1.3301-0.69141 0.2603-0.0918 0.65727 0.14991 0.82617-0.0684 0.62529-0.80832 0.95309-1.8106 1.3555-2.75 0.82832-1.9339 1.5055-3.9294 2.334-5.8633 0.44227-1.0324 1.0431-1.9924 1.4746-3.0293 0.3721-0.89413 0.6567-1.8233 0.93164-2.752 0.24194-0.81717 0.43736-1.6479 0.61914-2.4805 0.93366-4.2766 1.7445-8.58 2.7266-12.846 1.0598-4.6032 2.3582-9.1497 3.3965-13.758 0.58129-2.5799 1.0164-5.1919 1.4609-7.7988 0.22643-1.3278 0.30383-2.6781 0.55274-4.002 0.14537-0.77304 0.49932-1.4992 0.62695-2.2754 0.0208-0.12625-0.20578-0.20035-0.19922-0.32813 0.0117-0.22726 0.23558-0.40948 0.24805-0.63672 0.0583-1.0615 0.19094-2.1496-0.0391-3.1875-0.17238-0.77777-0.7132-1.4283-1.1328-2.1055-0.21053-0.33972-0.46744-0.65288-0.75-0.93554-0.36546-0.36566-0.76661-0.69705-1.1855-1-0.95369-0.68957-1.9045-1.3911-2.9277-1.9727-0.9308-0.52899-1.9631-0.85976-2.916-1.3477-0.0273-0.014-0.045-0.0425-0.0684-0.0625 0.0644-0.32053 0.13647-0.63965 0.19726-0.96093 0.59447-3.1415 0.93601-6.3257 1.4785-9.4766 0.26776-1.5552 0.7193-3.0777 0.95117-4.6387 0.0197-0.13242-0.23654-0.20846-0.21094-0.33984 0.1196-0.61426 0.47316-1.1639 0.62305-1.7715 0.34567-1.4011 0.76835-2.8039 0.85937-4.2441 0.0198-0.31226-0.26779-0.6148-0.54296-0.76367-0.24736-0.13379-0.56749-0.0389-0.84376 0.0137-0.22312 0.0425-0.40298 0.22785-0.62695 0.26563-0.31183 0.0526-0.63695 0.0499-0.94922 0-2.226-0.35523-4.4209-0.89362-6.6523-1.2129-0.13286-0.019-0.20894 0.23187-0.3418 0.21289-1.3816-0.19745-2.718-0.6503-4.0996-0.84766-0.13299-0.019-0.2121 0.23963-0.34375 0.21289-2.2294-0.453-4.4094-1.1206-6.627-1.6289-1.2699-0.29105-2.5647-0.4657-3.832-0.76758-2.9715-0.70773-5.8263-2.2604-8.8809-2.2598zm1.5098 1.4375c0.56401 0.10892 1.3182 0.92355 1.9453 1.0977 3.37 0.93579 6.7703 1.7648 10.172 2.5781 2.2113 0.5287 4.4249 1.0528 6.6641 1.4473 0.13234 0.0233 0.21037-0.22909 0.34376-0.21289 2.2966 0.27912 4.5741 0.69235 6.8535 1.0879 0.56926 0.0988 1.112 0.34296 1.6875 0.39453 0.13368 0.012 0.20918-0.23355 0.3418-0.21289 0.65515 0.10202 1.2848 0.33679 1.9082 0.5625 0.15833 0.0573 0.34634 0.13077 0.42188 0.28125 0.0827 0.16464 0.0313 0.37198-4e-3 0.55274-0.178 0.90209-0.45658 1.7815-0.63477 2.6836-0.20458 1.0358-0.29676 2.0913-0.51171 3.125-0.1986 0.9549-0.54882 1.8754-0.72852 2.834-0.35187 1.8771-0.54042 3.7821-0.86524 5.6641-0.27303 1.5819-0.59398 3.1564-0.92773 4.7266-0.4103 1.9303-0.83447 3.8583-1.3027 5.7754-0.22821 0.93427-0.58475 1.8348-0.78516 2.7754-0.56452 2.6493-1.1466 5.3002-1.5742 7.9746-1.7033 0.39441-3.4148 0.75208-5.1406 1.0273-0.23194 0.037-0.43344-0.23733-0.66797-0.22461-1.6902 0.0916-3.3613 0.43131-5.0508 0.53516-0.12921 8e-3 -0.20079-0.21118-0.33008-0.20508-0.22732 0.0107-0.40941 0.23883-0.63672 0.25-1.4782 0.0725-2.9612 0.0725-4.4394 0-0.2273-0.0111-0.40916-0.25-0.63672-0.25-0.22755 0-0.40752 0.23792-0.63477 0.25-1.3727 0.073-2.7504 0.0165-4.125 4e-3 -0.21483-2e-3 -0.43587 0.0117-0.64258-0.0469-0.11951-0.0338-0.1746-0.22021-0.29882-0.2207-0.23038-9.8e-4 -0.42843 0.23359-0.65821 0.2168-1.1247-0.0822-2.2314-0.32227-3.3438-0.50782-1.8836-0.31427-3.7799-0.57131-5.6426-0.99218-0.51556-0.11645-0.94537-0.49676-1.4609-0.61328-0.12899-0.0291-0.20796 0.23166-0.33789 0.20703-2.6855-0.50894-5.3455-1.1534-8.0039-1.7891-0.71799-0.17169-1.4348-0.35889-2.1211-0.63086-0.17491-0.0693-0.34704-0.14775-0.52149-0.21874 0.24768-0.55552 0.34382-1.1855 0.5-1.7774 0.28709-1.0879 0.5816-2.1777 0.74414-3.291 0.0194-0.13303-0.23685-0.21148-0.21289-0.34375 0.19374-1.0697 0.65078-2.0789 0.84571-3.1484 0.0239-0.13089-0.23447-0.20887-0.21094-0.33985 0.45172-2.5146 1.18-4.975 1.6172-7.4922 0.0292-0.16816 0.052-0.33752 0.0801-0.50586 0.16176-0.27951 0.30881-0.5659 0.41602-0.86914 0.0354-0.10037-0.11154-0.12817-0.25586-0.14258 0.46493-3.0049 0.79797-6.0302 1.2773-9.0332 0.0448-0.28092 0.0119-0.82935 0.29492-0.80079 3.3668 0.33982 6.6398 1.3236 9.9844 1.8379 0.63652 0.0979 1.3017 0.12799 1.9316-6e-3 0.24715-0.0525 0.41333-0.30945 0.55078-0.52149 0.14151-0.21832 0.20058-0.48196 0.26367-0.73437 0.50581-2.0235 0.90096-4.0753 1.4414-6.0898 0.58511-2.181 0.54017-4.7153 1.9336-6.4922 0.13387-0.17071 0.30028-0.21209 0.48829-0.17579zm-2.7129 1.4219c0.14789 0.0599 0.092 0.5381 0.0449 0.75586-0.14711 0.68005-0.52117 1.2929-0.70899 1.9629-0.72345 2.5805-1.3374 5.1901-2.0215 7.7812-0.0251 0.095-0.034 0.20798-0.10547 0.27539l-0.75781 0.53906c-2.2479-0.38291-4.5127-0.6789-6.7441-1.1484-1.0771-0.22666-2.2799-0.28258-3.166-0.93554-0.30493-0.22467 0.48976-0.58689 0.79688-0.8086 0.42829-0.30917 0.9468-0.47711 1.3867-0.76953 0.19493-0.12961 0.30676-0.36517 0.50586-0.48828 0.36951-0.22849 0.80169-0.33862 1.1797-0.55273 0.83031-0.47028 1.6486-0.96405 2.4394-1.498 0.19835-0.13394 0.32206-0.35731 0.51563-0.49805 0.97286-0.70746 2.0142-1.3193 2.9766-2.041 0.3105-0.23291 0.51678-0.58802 0.83203-0.81446 0.88366-0.63473 1.7228-1.399 2.75-1.7578 0.03-0.0105 0.055-0.0105 0.0762-2e-3zm-8.9414 22.187c-0.18983 0.0331-0.38172 0.18624-0.53125 0.31055-0.27908 0.23206-0.51344 0.53086-0.67188 0.85742-0.38478 0.79303-0.67743 1.6303-0.94336 2.4707-0.62236 1.9669-1.1078 3.9748-1.7188 5.9453-0.30367 0.9795-0.78156 1.9039-1.0234 2.9004-0.10191 0.41989-0.0987 0.87757 6e-3 1.2969 0.0477 0.19208 0.24729 0.32116 0.41992 0.41797h0.32422c0.1889-0.17489 0.41122-0.32144 0.56836-0.52539 0.19842-0.25754 0.41104-0.52747 0.48632-0.84375 0.0305-0.1283-0.23963-0.21066-0.20507-0.33789 0.91762-3.3784 2.0114-6.7052 3.0293-10.055 0.03-0.0986 0.0418-0.21482 0.11328-0.28906 0.26647-0.27668 0.67616-0.4191 0.88086-0.74414 0.11706-0.18595 0.0826-0.45365 2e-3 -0.65821-0.11143-0.28439-0.25997-0.63513-0.54883-0.73437-0.0613-0.0211-0.12422-0.0228-0.1875-0.0117zm-8.6875 0.7793c-1.0655 4.9252-2.1839 9.841-3 14.811-0.41539-0.19609-0.83164-0.38952-1.2324-0.61328-1.0353-0.57801-2.0389-1.2304-2.9492-1.9902-1.0393-0.86743-1.8931-1.9351-2.873-2.8691-0.22996-0.21915-0.65771-0.28257-0.75195-0.58594-0.17866-0.5752-0.0797-1.2108 8e-3 -1.8066 0.0913-0.6206 0.15812-1.2986 0.52344-1.8086 0.48401-0.67563 1.2044-1.1662 1.916-1.5957 1.4152-0.85403 2.9023-1.5957 4.4277-2.2324 1.2746-0.53199 2.5982-0.94524 3.9316-1.3086zm25.928 2.7109c-0.0745 0.0129-0.14898 0.0386-0.21484 0.0684-0.30272 0.13767-0.62824 0.27769-0.8457 0.5293-0.48297 0.55884-0.85907 1.2052-1.2129 1.8535-0.27135 0.49722-0.47936 1.0296-0.6543 1.5684-0.40524 1.2481-0.40162 2.6643-1.084 3.7852-0.19832 0.32578-0.34904-0.70469-0.64648-0.94336-0.32655-0.26206-0.75492-0.37014-1.1523-0.50195-0.11209-0.0372-0.25071-0.0557-0.35352 2e-3 -0.44835 0.25341-0.85264 0.58102-1.252 0.90625-0.20846 0.1698-0.40423 0.35977-0.56641 0.57422-0.19599 0.25912-0.44217 0.51621-0.5 0.83594-0.1151 0.63641-0.0981 1.3019-2e-3 1.9414 0.0783 0.51898 0.2952 1.0109 0.51758 1.4863 0.0659 0.14099 0.2052 0.23984 0.33203 0.33008 0.26473 0.18833 0.52763 0.39749 0.83593 0.5 0.21158 0.0703 0.45637 0.0703 0.66797 0 0.3083-0.10251 0.5822-0.29956 0.83789-0.5 0.37636-0.29507 0.63957-0.73108 1.0488-0.97852 0.0899-0.0543 0.19045 0.10556 0.24805 0.19336 0.21907 0.33377 0.32031 0.74143 0.57031 1.0527 0.17397 0.21655 0.40911 0.40216 0.67188 0.49219l1.0391 0.0937c0.15973-0.0499 0.34422-0.0486 0.47851-0.14844 0.22968-0.17078 0.45635-0.37772 0.57813-0.63672 0.0405-0.0861-0.0835-0.19346-0.17188-0.22852-0.58905-0.23349-1.2557-0.26349-1.8164-0.55859-0.15063-0.0793-0.14921-0.31482-0.16406-0.48438-0.0282-0.32236-0.0345-0.65316 0.0371-0.96874 0.11616-0.51236 0.28294-1.0192 0.51953-1.4883 0.63144-1.252 1.4492-2.404 2.0762-3.6582 0.54825-1.0967 1.034-2.2278 1.4453-3.3828 0.074-0.20773 0.0481-0.44846-6e-3 -0.66211-0.0484-0.19016-0.15494-0.37034-0.29297-0.50977-0.21804-0.22025-0.46592-0.42764-0.75195-0.54687-0.0668-0.0279-0.14226-0.0285-0.2168-0.0156zm22.326 1.7031c0.92866 0.48528 1.9287 0.83168 2.8398 1.3496 0.99509 0.56558 1.9329 1.2296 2.8574 1.9043 0.25363 0.18509 0.50777 0.39481 0.66602 0.66602 0.44901 0.7695 0.82777 1.5836 1.1348 2.4199 0.076 0.20698 0.0427 0.44669-4e-3 0.66211-0.0263 0.12113-0.20372 0.18467-0.20703 0.3086-3e-3 0.12326 0.25708 0.21395 0.19141 0.31835-0.29457 0.46814-0.70947 0.86014-1.1465 1.1992-0.90433 0.7016-1.8868 1.2977-2.8574 1.9043-0.72315 0.45191-1.4715 0.86218-2.2207 1.2695-0.61896 0.33655-1.2366 0.68213-1.8828 0.96289-0.712 0.30935-1.4303 0.61205-2.1719 0.83985 0.35731-1.9622 0.64346-3.9377 1.0391-5.8926 0.53594-2.6483 1.1826-5.2729 1.7617-7.9121zm-22.828 0.22851c0.0235-9e-3 0.0461-9e-3 0.0684 6e-3 0.1242 0.0803 0.17105 0.29434 0.11133 0.42969l-1.4356 2.5723c-0.0206-0.2341-0.14448-0.48362-0.0606-0.70313 0.28456-0.74402 0.72148-1.4214 1.1328-2.1035 0.0412-0.0682 0.11315-0.17561 0.18359-0.20118zm-15.322 2.4766c-0.0628-4.4e-4 -0.12621 0.0178-0.16797 0.0547-0.23138 0.20474-0.40077 0.48097-0.52539 0.76368-0.25407 0.57642-0.44944 1.1792-0.59961 1.791-0.23736 0.96704-0.51832 1.9387-0.56054 2.9336-9e-3 0.20215 0.22903 0.3641 0.41601 0.4414 0.20059 0.0829 0.46869 0.11569 0.65235 0 0.46956-0.29584 0.82905-0.73984 1.1914-1.1602 0.21787-0.25274 0.33064-0.58358 0.53711-0.8457 0.1687-0.2142 0.36879-0.40433 0.58203-0.57422 0.37004-0.29483 0.71994-0.64611 1.1621-0.81445 0.30191-0.11496 0.70736-0.18543 0.97071 2e-3 0.20908 0.14859 0.16951 0.51337 0.10547 0.76172-0.19553 0.75843-0.62636 1.4397-0.86524 2.1856-0.0665 0.2078-0.0438 0.43414-0.043 0.65234 7.4e-4 0.21488-0.0398 0.44592 0.0469 0.64258 0.0798 0.18106 0.24928 0.32114 0.42187 0.41797h0.32422c0.15284-0.0898 0.38971-0.10635 0.45899-0.26953 0.40832-0.96179 0.72028-1.9697 0.92578-2.9941 0.10637-0.53022 0.11297-1.0923 0-1.6211-0.0707-0.33093-0.26709-0.65569-0.53125-0.86718-0.33099-0.26498-0.75229-0.56931-1.1699-0.4961-0.88226 0.15466-1.6594 0.68861-2.4394 1.1289-0.28757 0.1623-0.40701 0.6886-0.73633 0.66406-0.24748-0.0184-0.17302-0.48119-0.15234-0.72851 0.0189-0.22629 0.22246-0.40595 0.26562-0.62891 0.0608-0.31412 0.0667-0.63989 0.043-0.95898-0.0111-0.14918-0.0328-0.32434-0.14453-0.42383-0.0416-0.0371-0.10519-0.0562-0.16797-0.0566zm18.721 2.8711c-0.0612-3.1e-4 -0.12405 9e-3 -0.17774 0.0332-0.51094 0.22855-1.0154 0.48547-1.4668 0.81641-0.37396 0.27417-0.69126 0.62314-0.98438 0.98242-0.2054 0.25174-0.44798 0.51523-0.5 0.83594-0.12042 0.74261-0.15085 1.5204-2e-3 2.2578 0.12927 0.64062 0.50402 1.2072 0.8164 1.7812 0.0765 0.14069 0.19864 0.26273 0.33789 0.3418 0.36852 0.20929 0.75393 0.40503 1.1641 0.51172 0.31342 0.0815 0.64685 0.043 0.9707 0.043 0.21816 0 0.44419 0.0223 0.65234-0.043 0.42901-0.13464 0.80004-0.42538 1.2324-0.54883 0.21179-0.0605 0.45821-0.0736 0.66211 0.01 0.0796 0.0325 0.0362 0.18378-8e-3 0.25782-0.10818 0.18298-0.35408 0.27447-0.42578 0.47461-0.0501 0.13992 4.7e-4 0.32284 0.0996 0.43359 0.0729 0.0814 0.21517 0.0483 0.32422 0.041 0.14137-9e-3 0.28962-0.0258 0.41601-0.0899 1.099-0.55734 2.014-1.7477 3.2461-1.7676 0.64615-0.0105 0.578 1.1616 0.93359 1.7012 0.11795 0.17898 0.2705 0.3623 0.47266 0.43359l0.47265-0.0996c0.0923-0.11139 0.30892-0.19479 0.27735-0.33594-0.17143-0.76663-0.61234-1.4485-0.84375-2.1992-0.0201-0.0653 0.0554-0.13549 0.11328-0.17187 0.75207-0.47315 1.5018-0.95309 2.2988-1.3457 0.65628-0.32324 1.3947-0.46345 2.0469-0.79493 0.31921-0.16226 0.63161-0.37914 0.83789-0.67187 0.0713-0.10125-0.0458-0.25089-0.11523-0.35352-0.0773-0.11441-0.17786-0.23706-0.31055-0.27539-0.21182-0.0612-0.447-0.0619-0.66015-6e-3 -0.41004 0.10849-0.79177 0.30606-1.1738 0.49024-1.0705 0.51611-2.0071 1.7904-3.1816 1.6094-0.77663-0.11972-0.45174-1.511-0.78907-2.2207-0.15324-0.32248-0.38548-0.61899-0.66601-0.83984-0.1048-0.0825-0.29629-0.0815-0.40039 2e-3 -0.24007 0.19232-0.58469 0.44607-0.53711 0.75 0.0785 0.50107 0.71447 0.77145 0.85156 1.2598 0.16284 0.58017 0.39261 1.3429 0.01 1.8086-0.73543 0.89578-1.9137 1.3317-2.9727 1.8027-0.13516 0.0601-0.13478-0.2828-0.11719-0.42968 0.0147-0.12296 0.17171-0.19129 0.20508-0.31055 0.0123-0.044-0.0423-0.10184-0.0879-0.10547-0.42701-0.0342-0.86073-0.0614-1.2852-4e-3 -0.22502 0.0307-0.40051 0.24792-0.62695 0.26563-0.74042 0.0578-1.5161 0.16701-2.2285-0.043-0.2986-0.088-0.39757-0.48654-0.52735-0.76953-0.22685-0.49466-0.40642-1.0137-0.5332-1.543-0.0521-0.21741-0.074-0.46155 2e-3 -0.67188 0.0968-0.26834 0.20947-0.66085 0.49219-0.69921 0.33502-0.0454 0.55724 0.39825 0.875 0.51367 0.20394 0.0741 0.43702 0.0878 0.64844 0.0391 0.64816-0.14926 1.2874-0.35779 1.8965-0.625 0.0778-0.0341 0.0994-0.15753 0.0801-0.24023-0.11444-0.48801-0.26442-0.97181-0.47266-1.4277-0.0647-0.14157-0.20318-0.24-0.33007-0.33008-0.26446-0.18787-0.53682-0.37454-0.83594-0.5-0.0542-0.0228-0.11454-0.0329-0.17578-0.0332zm-8.6211 0.33594c0.12526 5e-3 0.25618 0.0658 0.36524 0.12695 0.18523 0.10391 0.26436 0.38626 0.47265 0.42773 0.22116 0.0441 0.42647-0.2625 0.64453-0.20507 0.14206 0.0375 0.14036 0.26764 0.15235 0.41406 0.0264 0.32181 0.0678 0.66406-0.0391 0.96875-0.1855 0.52862-0.48562 1.0166-0.81641 1.4688-0.24025 0.32837-0.5509 0.60425-0.87695 0.84766l-0.3125 0.041c-0.21789-0.0135-0.46378 0.0656-0.6543-0.041-0.30414-0.17014-0.63327-0.40598-0.73828-0.73829-0.16193-0.51235-0.1485-1.0956-4e-3 -1.6133 0.11956-0.42944 0.44441-0.7865 0.75977-1.1016 0.25764-0.25742 0.57818-0.4653 0.92383-0.58008 0.0396-0.0131 0.0813-0.0173 0.12304-0.0156zm8.4531 0.97265c0.15989-0.0337 0.33699 0.0258 0.47851 0.10743 0.11867 0.0685 0.28452 0.18362 0.25977 0.31836l-0.39649 0.42382c-0.25219-0.0326-0.56546 0.0709-0.75585-0.0977-0.12229-0.10831 0.0265-0.33548 0.10546-0.47852 0.0665-0.12054 0.1739-0.24509 0.3086-0.27344zm-39.197 0.99024c0.0361-0.0183 0.0739-0.0203 0.10938 4e-3 0.41514 0.28235 0.54444 0.8516 0.88476 1.2207 0.2499 0.27103 0.54488 0.50625 0.86914 0.68164 1.659 0.89722 3.344 1.7526 5.0645 2.5254 1.1022 0.49512 2.2239 0.96665 3.3926 1.2734 3.6379 0.95505 7.3165 1.755 11.002 2.5059 2.3426 0.47729 4.7016 0.89969 7.0762 1.1777 0.33733 0.0395 0.65132-0.2544 0.99023-0.23242 1.2683 0.0823 2.5087 0.43648 3.7754 0.54101 0.12891 0.0106 0.20073-0.20327 0.33008-0.20312 0.1296 1.8e-4 0.2025 0.20938 0.33203 0.20508 3.5201-0.11728 7.0363-0.33621 10.551-0.56641 1.0304-0.0675 2.0476-0.30691 3.0801-0.32617 0.23184-4e-3 0.41613 0.2826 0.64649 0.25586 1.9995-0.23214 3.9809-0.60641 5.959-0.98242 0.019 5e-3 0.0383 0.0155 0.0566 0.0176l0.043-0.0351c0.16772-0.0319 0.33623-0.0619 0.50391-0.0937 0.69582-0.1322 1.3803-0.32068 2.0527-0.54297 0.5726-0.18927 1.1358-0.41522 1.6738-0.6875 2.0545-1.0396 4.0934-2.1108 6.0977-3.2441 0.48883-0.27643 0.89066-0.68964 1.3711-0.98047 0.0385-0.0233 0.10944 0.0432 0.10352 0.0879-0.0294 0.22238-0.19996 0.41828-0.19922 0.64258 4.2e-4 0.12928 0.21528 0.20136 0.20312 0.33008-0.11755 1.242-0.3512 2.472-0.58593 3.6973-0.0482 0.2514-0.24863 0.46506-0.26172 0.72071-7e-3 0.13223 0.21756 0.2077 0.20898 0.33984-0.0179 0.27609-0.22658 0.51001-0.28125 0.78125-0.33177 1.646-0.54103 3.3138-0.87695 4.959-0.0637 0.31216-0.29173 0.5831-0.32032 0.90039-0.0119 0.13208 0.23897 0.21067 0.20899 0.33985-0.35326 1.5222-0.91941 2.9883-1.3301 4.4961-0.45908 1.6854-0.88806 3.3796-1.2793 5.082-1.3144 5.7195-2.4806 11.472-3.8379 17.182-0.27156 1.1425-0.65239 2.2565-1.0449 3.3633-0.89678 2.5286-1.8602 5.0346-2.8223 7.5391-0.40951 1.066-0.8088 2.1376-1.293 3.1719-0.17263 0.36881-0.49409 0.65418-0.66992 1.0215-0.0783 0.16367 0.0527 0.41135-0.0762 0.53906-0.32048 0.31766-0.74335 0.52832-1.1641 0.69141-1.5287 0.59259-3.0827 1.1264-4.6621 1.5664-1.475 0.41095-2.9775 0.73321-4.4883 0.98242l-6.2852 0.79493c-0.43436-8.2e-4 -0.87392 0.0534-1.3047-2e-3 -0.12291-0.0159-0.18476-0.21189-0.3086-0.20703-0.22645 9e-3 -0.40815 0.24414-0.63476 0.24414s-0.40836-0.2345-0.63477-0.24414c-0.12294-5e-3 -0.18955 0.16535-0.30664 0.20313-0.11002 0.0355-0.23325 0.0239-0.34765 8e-3 -1.6566-0.2395-3.3209-0.44061-4.9609-0.77539-2.7669-0.56475-5.5527-1.092-8.252-1.9219-1.4199-0.43652-2.7225-1.1904-4.0488-1.8594-0.78955-0.39823-1.5512-0.85354-2.291-1.3379-0.20085-0.13147-0.31201-0.37597-0.51758-0.5-0.86744-0.52322-2.221-0.52747-2.6816-1.4297-1.4904-2.9189-2.0282-6.2384-2.8535-9.4102-0.92819-3.567-1.6922-7.1767-2.4043-10.793-0.0259-0.13137 0.23385-0.20761 0.21289-0.33984-0.22906-1.4455-0.68109-2.8496-0.94531-4.2891-0.47408-2.5829-0.90316-5.175-1.2695-7.7754-0.27796-1.9729-0.46136-3.9574-0.66407-5.9394-0.29389-2.8734-0.63012-5.7433-0.82617-8.625-9e-3 -0.13502 0.22864-0.20896 0.2168-0.34376-0.11197-1.2753-0.45314-2.523-0.58008-3.7969-0.0527-0.52844-0.026-1.0672 0.043-1.5938 0.0161-0.12289 0.2037-0.18469 0.20703-0.30859 3e-3 -0.12329-0.21601-0.19596-0.18945-0.31641 0.0278-0.12584 0.12616-0.33378 0.23437-0.38867zm14.775 17.025c-0.22008 4e-3 -0.44071 0.0285-0.65625 0.0605-1.4811 0.22198-2.9263 0.65633-4.4102 0.85937-0.13133 0.018-0.21563-0.25522-0.33985-0.20898-0.50738 0.1889-1.0013 0.46546-1.3828 0.84961-0.12468 0.12555-0.0617 0.37024 0.0117 0.53125 0.082 0.18012 0.23054 0.36249 0.41992 0.41992 0.31222 0.0947 0.65643 0.0564 0.97852 4e-3 0.26133-0.0423 0.48323-0.2282 0.74218-0.2832 1.1071-0.2352 2.224-0.43527 3.3457-0.58594 0.4254-0.0571 0.86629-0.11974 1.2871-0.0352 0.62251 0.12509 1.2483 0.32147 1.7891 0.65429 0.31318 0.19278 0.47397 0.56178 0.68164 0.86524 0.18377 0.26853 0.40979 0.52997 0.48828 0.8457 0.0307 0.12342-0.19914 0.19903-0.19726 0.32617 2e-3 0.12393 0.18928 0.18592 0.20703 0.3086 0.0561 0.38782 0.33863 0.96582 8e-3 1.1758-1.1276 0.71548-2.597 0.68082-3.8106 1.2383-0.28174 0.12943-0.47799 0.45504-0.53515 0.75977-0.0378 0.20184 0.15569 0.38653 0.29101 0.54101 0.11227 0.12818 0.26839 0.22095 0.42774 0.28125 0.62413 0.23614 1.3081 0.3157 1.9102 0.60352 0.24734 0.11825 0.40854 0.36859 0.57813 0.58398 0.23062 0.29294 0.45676 0.59613 0.61523 0.93359 0.2233 0.47556 0.41367 0.9741 0.52149 1.4883 0.0677 0.32291 0.0984 0.67596-2e-3 0.99023-0.26185 0.81961-0.67004 1.5859-1.0664 2.3496-0.17047 0.32846-0.26215 0.85394-0.62696 0.91602-1.5731 0.26767-3.1957 0.12253-4.7871 6e-3 -1.2396-0.0908-2.4781-0.2948-3.6758-0.62695-0.30356-0.0842-0.46015-0.44064-0.73437-0.5957-0.0961-0.0544-0.21971-9e-3 -0.33008-6e-3 -0.17294 5e-3 -0.37771-0.0686-0.51758 0.0332-0.24872 0.18107-0.40954 0.4669-0.54687 0.74219-0.0512 0.10251-0.0333 0.23551 4e-3 0.34375 0.0644 0.18552 0.14281 0.3829 0.29102 0.51172 0.28866 0.25091 0.61027 0.50745 0.98242 0.5957 1.8101 0.42939 3.6523 0.72489 5.5 0.94141 0.83934 0.0984 1.6927 0.0662 2.5352 0 0.22686-0.0179 0.40996-0.22889 0.63672-0.24805l0.39843 0.16211c0.58695-0.26934 1.3282-0.32986 1.7617-0.80859 0.62564-0.69098 0.88751-1.6431 1.2402-2.5059 0.23764-0.58127 0.41936-1.1894 0.52343-1.8086 0.0722-0.42999 0.079-0.87982 0-1.3086-0.0991-0.53686-0.31804-1.0466-0.52734-1.5508-0.17035-0.4104-0.35013-0.82468-0.60937-1.1856-0.26637-0.37076-1.0426-0.539-0.95118-0.98633 0.10518-0.51486 0.94263-0.49233 1.3262-0.85156 0.32531-0.30468 0.66131-0.66687 0.75976-1.1016 0.16618-0.73395 0.10481-1.5124 2e-3 -2.2578-0.072-0.52038-0.29622-1.0108-0.51953-1.4863-0.15847-0.33746-0.38408-0.64264-0.61718-0.9336-0.19289-0.24078-0.38239-0.5086-0.6543-0.65429-0.66727-0.35751-1.3796-0.6514-2.1152-0.83008-0.21178-0.0514-0.4303-0.0669-0.65039-0.0625zm40.18 1.6504c-0.26386-0.0625-0.49793 0.24377-0.68359 0.44141-0.18998 0.20224-0.30612 0.46816-0.41211 0.7246-0.71223 1.7232-1.306 3.4927-2.0391 5.207-0.0606 0.14169-0.19139 0.25705-0.32813 0.32812-0.62927 0.32712-1.3929 0.41318-1.9473 0.85547-0.18065 0.14411-0.10809 0.49256 6e-3 0.69336 0.13628 0.23926 0.39627 0.43313 0.66602 0.48828 0.24711 0.0505 0.47648-0.19335 0.72852-0.20312 0.15039-6e-3 0.43746 8e-3 0.42382 0.1582-0.0761 0.83625-0.46988 1.6133-0.6582 2.4316-0.19522 0.84824-0.20207 1.7438-0.49219 2.5644-0.10042 0.28408-0.40499 0.44898-0.64062 0.63672-0.2946 0.23477-0.59542 0.47598-0.94141 0.625-0.78609 0.33859-1.611 0.58511-2.4316 0.82813-0.11063 0.0328-0.23686 0.0308-0.3457-8e-3 -0.11674-0.041-0.18245-0.17663-0.29883-0.21875-0.16709-0.0605-0.40407 0.0479-0.52734-0.0801-0.58191-0.60403-1.1209-1.2714-1.4961-2.0215-0.14572-0.29135-0.0954-0.66385-4e-3 -0.97656 0.0799-0.27389 0.20943-0.66281 0.49218-0.70117 0.33501-0.0454 0.5492 0.42538 0.875 0.51562 0.31731 0.0879 0.66903 0.0806 0.98828 0 0.50953-0.12857 1.0337-0.29605 1.4512-0.61523 0.4839-0.36996 0.87568-0.86866 1.1797-1.3965 0.1098-0.19065 0.0712-0.45113 2e-3 -0.66015-0.10043-0.30532-0.2649-0.60084-0.49219-0.82813-0.24187-0.24191-0.53593-0.48105-0.87305-0.53906-0.74098-0.12747-1.5137-0.12015-2.2559 0-0.32074 0.0519-0.58617 0.29656-0.83789 0.50195-0.3593 0.29312-0.70812 0.60858-0.98242 0.98242-0.33143 0.45172-0.57643 0.96446-0.81641 1.4707-0.0483 0.10196-0.039 0.22312-0.0391 0.33593-3.4e-4 0.74611-0.0779 1.5011 0.0371 2.2383 0.0649 0.41611 0.3097 0.78257 0.49219 1.1621 0.11882 0.24711 0.22977 0.5064 0.41015 0.71289 0.43669 0.49987 0.79617 1.1864 1.4277 1.3906 0.91385 0.29547 1.9368 0.17882 2.8809 2e-3 0.55068-0.10294 1.0018-0.50689 1.4688-0.8164 0.19951-0.13226 0.32191-0.35745 0.51562-0.49805 0.26297-0.19082 0.53035-0.40268 0.84375-0.48828 0.10003-0.0273 0.19881 0.0982 0.24805 0.18945 0.2981 0.55237 0.46001 1.1725 0.7793 1.7129 0.1395 0.23615 0.36162 0.41757 0.57812 0.58594 0.28797 0.22394 0.58663 0.44966 0.92578 0.58399l0.64258 0.0391c0.14177-0.031 0.29653-0.0242 0.42383-0.0937 0.35939-0.19654 0.70875-0.42203 1.0156-0.69336 0.59345-0.52463 1.1581-1.0861 1.6758-1.6856 0.21236-0.24591 0.36511-0.54035 0.5-0.83594 0.0466-0.10217 0.051-0.22476 0.0352-0.33593-0.023-0.16233-0.0601-0.33065-0.14844-0.46875-0.0738-0.11535-0.21318-0.34748-0.31835-0.25977-0.65658 0.54745-1.0426 1.3704-1.6875 1.9316-0.42232 0.36755-0.92241 0.69219-1.4688 0.81445-0.29362 0.0657-0.61061-0.11475-0.85157-0.29492-0.24862-0.18591-0.51401-0.44345-0.54883-0.75195-0.16659-1.4764-0.19889-2.9798-0.0391-4.457 0.11443-1.0577 0.12188-2.3038 0.85352-3.0762 0.59886-0.63217 1.7137-0.31653 2.5586-0.52735 0.34474-0.086 0.74583-0.11508 1.002-0.36132 0.14795-0.14225 0.20019-0.52955 0.0137-0.61524-0.88391-0.40604-1.9763-0.23019-2.8379-0.68164-0.2325-0.12182-0.0632-0.54379 0.0352-0.78711 0.29858-0.73861 0.70873-1.4304 1.1348-2.1035 0.17633-0.27862 0.56572-0.41901 0.66211-0.73438 0.0663-0.21673-0.24669-0.40812-0.24414-0.63477 4e-3 -0.33463 0.31708-0.6387 0.26172-0.96875-0.0505-0.30078-0.25011-0.66409-0.54688-0.73437zm-43.029 0.64648c-0.17456-0.0392-0.393 0.0996-0.46875 0.26172-0.30058 0.64316-0.50737 1.3382-0.60742 2.041-0.0331 0.23217 0.25283 0.4354 0.22266 0.66797-0.30325 2.3387-0.93355 4.6271-1.2129 6.9688-0.11335 0.95026-0.11457 1.9265 0.0391 2.8711 0.0495 0.30408 0.26343 0.62821 0.54883 0.74414l0.98242-0.12109c0.30633-0.62988 0.69528-1.2272 0.91992-1.8906 0.0537-0.15842-0.033-0.34259-0.11523-0.48828-0.10474-0.18561-0.32006-0.28872-0.42774-0.47266-0.055-0.094-0.0536-0.21823-0.0391-0.32617 0.286-2.1202 0.73812-4.2176 0.9375-6.3476 0.10476-1.119 0.19263-2.2709-0.0273-3.373-0.0603-0.30188-0.45159-0.46781-0.75196-0.53516zm26.012 8e-3c-0.40224 0.13507-0.58461 0.64157-0.73828 1.0371-0.0461 0.11856 0.20995 0.18923 0.21094 0.3164 2e-3 0.22494-0.20232 0.41959-0.20313 0.64453-4.7e-4 0.12836 0.20676 0.19999 0.19922 0.32813-0.0198 0.3367-0.22151 0.64199-0.27734 0.97461-0.22725 1.3539-0.46037 2.7097-0.57031 4.0781-0.0108 0.13483 0.22843 0.20895 0.21679 0.34375-0.12497 1.448-0.0817 2.966-0.61914 4.3164-0.22201 0.55787-0.9549 0.74405-1.498 1-0.77833 0.36673-1.5987 0.65335-2.4356 0.85351-0.31378 0.075-0.66602 0.0776-0.9668-0.0391-0.39851-0.1547-0.79057-0.40006-1.0469-0.74219-0.13216-0.17639-0.0684-0.45121-4e-3 -0.66211 0.22352-0.73525 0.4397-1.4943 0.85547-2.1406 0.17632-0.27411 0.52486-0.57397 0.8418-0.49805 0.38326 0.0918 0.45446 0.66641 0.78125 0.88672 0.13906 0.0937 0.35074 0.0511 0.50195-0.0215 0.17749-0.0851 0.42361-0.22126 0.41601-0.41797-0.0203-0.52371-0.1209-1.1222-0.49023-1.4941-0.37767-0.38028-0.98166-0.52173-1.5176-0.5293-0.32988-5e-3 -0.60036 0.2893-0.85742 0.4961-0.36174 0.29099-0.72622 0.59853-0.98437 0.98437-0.26947 0.4028-0.44294 0.8703-0.57032 1.3379-0.24518 0.90005-0.27644 1.8515-0.54101 2.7461-0.0257 0.087-0.13444-0.16415-0.22461-0.15429-0.22583 0.0247-0.40934 0.2202-0.63477 0.24804-0.38109 0.047-0.80267 0.13131-1.1523-0.0273-0.28053-0.12729-0.48505-0.44235-0.54688-0.74414-0.12981-0.63333-0.10868-1.3018-2e-3 -1.9394 0.092-0.55109 0.48289-1.0215 0.58789-1.5703 0.0473-0.24731 0.0629-0.60229-0.14648-0.74218-0.26839-0.17935-0.64898-0.058-0.9668-2e-3 -0.10805 0.0192-0.20584 0.11551-0.24805 0.2168-0.40387 0.96917-0.5178 2.0718-1.0762 2.9609-0.33938 0.54047-0.95922 0.85735-1.5156 1.1699-0.1869 0.10498-0.42919 0.0615-0.64258 0.041-0.14967-0.0144-0.39403 2e-3 -0.42774-0.14454-0.14277-0.62094-0.14458-1.2808-0.0449-1.9102 0.0668-0.42167 0.26507-0.83381 0.53321-1.166 0.25939-0.32141 0.82865-0.35571 0.99804-0.73242 0.12193-0.27121-0.10879-0.60724-0.28906-0.84375-0.18808-0.24674-0.48094-0.40318-0.76172-0.53516-0.0574-0.027-0.11381 0.0601-0.16016 0.10352-0.24829 0.23227-0.5426 0.43105-0.7207 0.7207-0.34589 0.5625-0.71538 1.1485-0.83008 1.7988-0.16682 0.9458-0.20134 1.9447 4e-3 2.8828 0.0981 0.44745 0.44561 0.88025 0.86328 1.0684 0.45199 0.20361 1.006 0.11088 1.4863-0.0117 0.64934-0.16577 1.1664-0.93972 1.8281-0.83398 0.47972 0.0767 0.42686 0.88882 0.75391 1.248 0.23056 0.25323 0.54252 0.45691 0.875 0.53906 0.419 0.10355 0.89367 0.15953 1.293-4e-3 0.60401-0.24787 0.99296-0.86703 1.5703-1.1719 0.13496-0.0713 0.31761 0.0258 0.44531 0.10937 0.25561 0.16727 0.42579 0.44205 0.67188 0.62305 0.2406 0.17697 0.48155 0.40198 0.77734 0.44336l2.0176-0.0527c0.57374-0.25848 1.1753-0.46149 1.7207-0.77539 0.48521-0.27927 0.79655-1.0507 1.3535-0.99414 0.48068 0.0488 0.42404 0.90127 0.79492 1.2109 0.16659 0.13912 0.48806 0.14019 0.65039-4e-3 0.30281-0.26877 0.49522-0.67565 0.56641-1.0742 0.0408-0.22845-0.23557-0.41551-0.25781-0.64649-0.051-0.529-0.1302-1.0907 0.041-1.5938 0.11137-0.32721 0.40361-0.76736 0.7461-0.7207 0.36744 0.05 0.46408 0.58212 0.64062 0.9082 0.29865 0.5516 0.40488 1.2096 0.7793 1.7129 0.48492 0.65176 1.0542 1.2805 1.7539 1.6934 0.16909 0.0998 0.35386-0.22234 0.42774-0.4043 0.0828-0.20382 0.0994-0.4617 4e-3 -0.66015-0.61006-1.2745-1.3189-2.5048-2.0859-3.6914-0.26016-0.40247-1.0164-0.57291-0.98047-1.0508 0.0416-0.55317 0.70448-0.87512 1.1504-1.2051 0.48888-0.36175 1.1771-0.42404 1.6172-0.84375 0.16689-0.15915 0.11146-0.4942-8e-3 -0.6914-0.15945-0.26306-0.46687-0.40962-0.74218-0.54688-0.10254-0.0512-0.24705-0.0571-0.34375 4e-3 -0.27829 0.17706-0.4624 0.47567-0.72461 0.67578-0.2335 0.17819-0.53085 0.26434-0.75586 0.45312-0.43652 0.36627-0.77413 0.84-1.2148 1.2012-0.0665 0.0545-0.24221 0.0918-0.25976 8e-3 -0.0881-0.42316-0.0603-0.86762-0.01-1.2969 0.23596-2.0034 0.63624-3.9846 0.86914-5.9883 0.0194-0.16669-0.0186-0.35297-0.11523-0.49023-0.16444-0.23377-0.36384-0.66714-0.63477-0.57617zm8.2461 8.8086c0.1133-5.9e-4 0.22574 0.0186 0.32812 0.0586 0.18374 0.0722 0.32236 0.24723 0.41797 0.41993 0.0539 0.0974 0.0774 0.25397 0 0.33398l-1.0371 0.73828c-0.32799 6e-5 -0.67097 0.0968-0.98437 0-0.18759-0.0579-0.42527-0.2345-0.4043-0.42969 0.0271-0.25275 0.31245-0.40859 0.51172-0.5664 0.2547-0.20172 0.52758-0.39759 0.83593-0.5 0.1044-0.0346 0.21873-0.0541 0.33204-0.0547z"/></svg>
